G04 DipTrace 3.3.1.1*
G04 BottomSilk.gbo*
%MOIN*%
G04 #@! TF.FileFunction,Legend,Bot*
G04 #@! TF.Part,Single*
%ADD27C,0.006*%
%FSLAX26Y26*%
G04*
G70*
G90*
G75*
G01*
G04 BotSilk*
%LPD*%
X534090Y652840D2*
D27*
X503946D1*
X529779Y684936D2*
X532664Y682084D1*
X534090Y677773D1*
Y672036D1*
X532664Y667725D1*
X529779Y664840D1*
X526927D1*
X524042Y666299D1*
X522616Y667725D1*
X521190Y670577D1*
X518305Y679199D1*
X516879Y682084D1*
X515420Y683510D1*
X512568Y684936D1*
X508257D1*
X505405Y682084D1*
X503946Y677773D1*
Y672036D1*
X505405Y667725D1*
X508257Y664840D1*
X534090Y705558D2*
X532664Y702673D1*
X529779Y699821D1*
X526927Y698362D1*
X522616Y696936D1*
X515420D1*
X511142Y698362D1*
X508257Y699821D1*
X505405Y702673D1*
X503946Y705558D1*
Y711295D1*
X505405Y714147D1*
X508257Y717032D1*
X511142Y718458D1*
X515420Y719884D1*
X522616D1*
X526927Y718458D1*
X529779Y717032D1*
X532664Y714147D1*
X534090Y711295D1*
Y705558D1*
Y731884D2*
X503946D1*
Y749095D1*
Y784076D2*
X534090Y772569D1*
X503946Y761095D1*
X513994Y765406D2*
Y779765D1*
X534090Y806124D2*
X503946D1*
X534090Y796076D2*
Y816172D1*
Y846809D2*
Y828172D1*
X503946D1*
Y846809D1*
X519731Y828172D2*
Y839646D1*
X474091Y642367D2*
X443947D1*
X474091Y632319D2*
Y652415D1*
Y664415D2*
X443947D1*
X474091Y684511D2*
X443947D1*
X459732Y664415D2*
Y684511D1*
X474091Y696511D2*
X443947D1*
X469780Y728607D2*
X472665Y725755D1*
X474091Y721444D1*
Y715707D1*
X472665Y711396D1*
X469780Y708511D1*
X466928D1*
X464043Y709970D1*
X462617Y711396D1*
X461191Y714248D1*
X458306Y722870D1*
X456880Y725755D1*
X455421Y727181D1*
X452569Y728607D1*
X448258D1*
X445406Y725755D1*
X443947Y721444D1*
Y715707D1*
X445406Y711396D1*
X448258Y708511D1*
X469780Y792600D2*
X472665Y789748D1*
X474091Y785437D1*
Y779700D1*
X472665Y775389D1*
X469780Y772504D1*
X466928D1*
X464043Y773963D1*
X462617Y775389D1*
X461191Y778241D1*
X458306Y786863D1*
X456880Y789748D1*
X455421Y791174D1*
X452569Y792600D1*
X448258D1*
X445406Y789748D1*
X443947Y785437D1*
Y779700D1*
X445406Y775389D1*
X448258Y772504D1*
X474091Y804600D2*
X443947D1*
X474091Y816600D2*
X443947D1*
Y826648D1*
X445406Y830959D1*
X448258Y833844D1*
X451143Y835270D1*
X455421Y836696D1*
X462617D1*
X466928Y835270D1*
X469780Y833844D1*
X472665Y830959D1*
X474091Y826648D1*
Y816600D1*
Y867332D2*
Y848696D1*
X443947D1*
Y867332D1*
X459732Y848696D2*
Y860169D1*
M02*
