G04 DipTrace 3.3.1.1*
G04 Top.gtl*
%MOIN*%
G04 #@! TF.FileFunction,Copper,L1,Top*
G04 #@! TF.Part,Single*
G04 #@! TA.AperFunction,Conductor*
%ADD13C,0.012*%
%ADD14C,0.016*%
%ADD15R,0.055118X0.019685*%
%ADD16R,0.062992X0.031496*%
G04 #@! TA.AperFunction,ViaPad*
%ADD17C,0.031685*%
%FSLAX26Y26*%
G04*
G70*
G90*
G75*
G01*
G04 Top*
%LPD*%
X712451Y723301D2*
D13*
X538926D1*
X499949Y684325D1*
X431200D1*
Y634325D2*
X487449D1*
X544931Y691805D1*
X712451D1*
Y628813D2*
X606939D1*
X562451Y584325D1*
X431200D1*
X712451Y565821D2*
X593947D1*
X562451Y534325D1*
X431200D1*
X712451Y754797D2*
X532922D1*
X512451Y734325D1*
X431200D1*
Y784325D2*
X710481D1*
X712451Y786293D1*
Y817789D2*
X547735D1*
X531200Y834325D1*
X431200D1*
X712451Y849285D2*
X553739D1*
X518700Y884325D1*
X431200D1*
X712451Y880781D2*
X559743D1*
X506200Y934325D1*
X431200D1*
X712451Y534325D2*
D14*
X637451D1*
X562451Y659325D2*
X711466D1*
X712451Y660309D1*
X431200Y434386D2*
D13*
X571886D1*
X637451Y499951D1*
Y534325D1*
X712451Y912277D2*
D14*
X659498D1*
X637451Y934325D1*
Y596825D2*
X712451Y597317D1*
X476434Y482819D2*
D13*
X432767D1*
X431200Y484386D1*
D17*
X637451Y534325D3*
X562451Y659325D3*
X476434Y482819D3*
X637451Y934325D3*
Y596825D3*
D15*
X712451Y723301D3*
Y660309D3*
Y534325D3*
Y597317D3*
Y912277D3*
D16*
X431200Y684325D3*
Y634325D3*
Y584325D3*
Y534325D3*
Y734325D3*
Y784325D3*
D15*
X712451Y691805D3*
D16*
X431200Y834325D3*
Y884325D3*
Y934325D3*
D15*
X712451Y628813D3*
Y565821D3*
Y754797D3*
Y786293D3*
Y817789D3*
Y849285D3*
Y880781D3*
D16*
X431200Y484386D3*
Y434386D3*
M02*
