G04 DipTrace 3.3.1.1*
G04 TopSilk.gto*
%MOIN*%
G04 #@! TF.FileFunction,Legend,Top*
G04 #@! TF.Part,Single*
%ADD27C,0.006*%
%FSLAX26Y26*%
G04*
G70*
G90*
G75*
G01*
G04 TopSilk*
%LPD*%
X494935Y450391D2*
D27*
X506409Y420247D1*
X517883Y450391D1*
X547127Y436032D2*
X544242Y438917D1*
X541357Y440343D1*
X537079D1*
X534194Y438917D1*
X531342Y436032D1*
X529883Y431720D1*
Y428869D1*
X531342Y424558D1*
X534194Y421706D1*
X537079Y420247D1*
X541357D1*
X544242Y421706D1*
X547127Y424558D1*
X576371Y436032D2*
X573486Y438917D1*
X570601Y440343D1*
X566323D1*
X563438Y438917D1*
X560586Y436032D1*
X559127Y431720D1*
Y428869D1*
X560586Y424558D1*
X563438Y421706D1*
X566323Y420247D1*
X570601D1*
X573486Y421706D1*
X576371Y424558D1*
X516256Y491296D2*
X514830Y494148D1*
X511945Y497033D1*
X509093Y498459D1*
X503356D1*
X500471Y497033D1*
X497619Y494148D1*
X496160Y491296D1*
X494734Y486985D1*
Y479789D1*
X496160Y475511D1*
X497619Y472626D1*
X500471Y469774D1*
X503356Y468315D1*
X509093D1*
X511945Y469774D1*
X514830Y472626D1*
X516256Y475511D1*
Y479789D1*
X509093D1*
X548352Y498459D2*
Y468315D1*
X528256Y498459D1*
Y468315D1*
X560352Y498459D2*
Y468315D1*
X570400D1*
X574711Y469774D1*
X577596Y472626D1*
X579022Y475511D1*
X580448Y479789D1*
Y486985D1*
X579022Y491296D1*
X577596Y494148D1*
X574711Y497033D1*
X570400Y498459D1*
X560352D1*
X477559Y687325D2*
X507703D1*
Y697373D1*
X506244Y701684D1*
X503392Y704569D1*
X500507Y705995D1*
X496229Y707421D1*
X489033D1*
X484722Y705995D1*
X481870Y704569D1*
X478985Y701684D1*
X477559Y697373D1*
Y687325D1*
X481870Y736632D2*
X479019Y735206D1*
X477593Y730895D1*
Y728043D1*
X479019Y723732D1*
X483330Y720847D1*
X490492Y719421D1*
X497655D1*
X503392Y720847D1*
X506277Y723732D1*
X507703Y728043D1*
Y729469D1*
X506277Y733747D1*
X503392Y736632D1*
X499081Y738058D1*
X497655D1*
X493344Y736632D1*
X490492Y733747D1*
X489067Y729469D1*
Y728043D1*
X490492Y723732D1*
X493344Y720847D1*
X497655Y719421D1*
X492648Y750058D2*
Y766638D1*
X477559Y778638D2*
X507703D1*
Y788686D1*
X506244Y792997D1*
X503392Y795883D1*
X500507Y797308D1*
X496229Y798734D1*
X489033D1*
X484722Y797308D1*
X481870Y795883D1*
X478985Y792997D1*
X477559Y788686D1*
Y778638D1*
X477593Y819356D2*
X479018Y815045D1*
X483330Y812160D1*
X490492Y810734D1*
X494803D1*
X501966Y812160D1*
X506277Y815045D1*
X507703Y819356D1*
Y822208D1*
X506277Y826519D1*
X501966Y829371D1*
X494803Y830830D1*
X490492D1*
X483329Y829371D1*
X479018Y826519D1*
X477593Y822208D1*
Y819356D1*
X483329Y829371D2*
X501966Y812160D1*
X484200Y526572D2*
X504296Y556683D1*
X537818Y549553D2*
X536392Y552405D1*
X533507Y555290D1*
X530655Y556716D1*
X524918D1*
X522033Y555290D1*
X519181Y552405D1*
X517722Y549553D1*
X516296Y545242D1*
Y538046D1*
X517722Y533768D1*
X519181Y530883D1*
X522033Y528031D1*
X524918Y526572D1*
X530655D1*
X533507Y528031D1*
X536392Y530883D1*
X537818Y533768D1*
X549818Y556716D2*
Y526572D1*
X561818Y556716D2*
Y526572D1*
X576177Y546668D2*
X561818Y532309D1*
X567555Y538046D2*
X577603Y526572D1*
X484200Y582821D2*
X504296Y612932D1*
X516296Y612965D2*
Y582821D1*
X526344D1*
X530655Y584280D1*
X533540Y587132D1*
X534966Y590017D1*
X536392Y594295D1*
Y601491D1*
X534966Y605802D1*
X533540Y608654D1*
X530655Y611539D1*
X526344Y612965D1*
X516296D1*
X568488Y608654D2*
X565636Y611539D1*
X561325Y612965D1*
X555588D1*
X551277Y611539D1*
X548392Y608654D1*
Y605802D1*
X549851Y602917D1*
X551277Y601491D1*
X554129Y600065D1*
X562751Y597180D1*
X565636Y595754D1*
X567062Y594295D1*
X568488Y591443D1*
Y587132D1*
X565636Y584280D1*
X561325Y582821D1*
X555588D1*
X551277Y584280D1*
X548392Y587132D1*
M02*
