G04 DipTrace 3.3.1.1*
G04 Bottom.gbl*
%MOIN*%
G04 #@! TF.FileFunction,Copper,L2,Bot*
G04 #@! TF.Part,Single*
G04 #@! TA.AperFunction,Conductor*
%ADD13C,0.01*%
G04 #@! TA.AperFunction,CopperBalancing*
%ADD14C,0.012*%
G04 #@! TA.AperFunction,Conductor*
%ADD15C,0.032*%
%ADD16C,0.015*%
%ADD17C,0.016*%
%ADD18C,0.04*%
G04 #@! TA.AperFunction,ViaPad*
%ADD19C,0.035622*%
G04 #@! TA.AperFunction,Conductor*
%ADD21C,0.024*%
%ADD22C,0.024016*%
%ADD23C,0.014*%
%ADD24C,0.02*%
%ADD25C,0.022*%
G04 #@! TA.AperFunction,ViaPad*
%ADD27C,0.031685*%
G04 #@! TA.AperFunction,CopperBalancing*
%ADD28C,0.006*%
%ADD29C,0.013*%
%ADD37R,0.03937X0.043307*%
%ADD38R,0.043307X0.03937*%
%ADD43R,0.063X0.046*%
G04 #@! TA.AperFunction,ViaPad*
%ADD57C,0.027699*%
%ADD60C,0.027748*%
%ADD62C,0.059055*%
%FSLAX26Y26*%
G04*
G70*
G90*
G75*
G01*
G04 Bottom*
%LPD*%
X1499951Y887451D2*
D13*
X1962450D1*
X1987450Y862451D1*
X2139665Y1468701D2*
X2212451D1*
X2256201Y1424951D1*
Y1143701D1*
X2206201Y1093701D1*
Y1062450D1*
X2237450Y1031201D1*
X456201Y1237451D2*
X493702D1*
X543701Y1287450D1*
Y1512449D1*
X593702Y1562450D1*
X1293702D1*
X1320562Y1535591D1*
Y1512451D1*
X1286706D2*
Y1525696D1*
X1268701Y1543701D1*
X606201D1*
X568701Y1506201D1*
Y1281201D1*
X474951Y1187451D1*
X456201D1*
X2068701Y868701D2*
Y899950D1*
X2037450Y931201D1*
X1812451D1*
X1781201Y962451D1*
Y1468699D1*
X1724950Y1524950D1*
X1393701D1*
X1356201Y1487450D1*
X1274951D1*
X1252741Y1509660D1*
Y1512823D1*
X2139665Y1368701D2*
X2199950D1*
X2237450Y1331201D1*
Y1149950D1*
X2187450Y1099950D1*
Y1024951D1*
X2231201Y981201D1*
X2237450D1*
X2139665Y1268701D2*
X2199950D1*
X2218701Y1249950D1*
Y1156201D1*
X2168701Y1106201D1*
Y1006201D1*
X2237450Y937451D1*
Y931201D1*
X2139665Y1568701D2*
X2237450D1*
X2274950Y1531201D1*
Y1118701D1*
X2237450Y1081201D1*
Y881201D2*
X2143701Y974950D1*
Y1168701D1*
X2139665D1*
Y1089665D1*
X2118701Y1068701D1*
X1940576D1*
X2134325Y484325D2*
Y490576D1*
X2106201Y518701D1*
Y749951D1*
X2024951Y831201D1*
Y878075D1*
X1993701Y909325D1*
X1646827D1*
X1631201Y924951D1*
Y1177756D1*
X874951Y1335236D2*
X978987D1*
X1081202Y1437451D1*
X1356201D1*
X1406201Y1487451D1*
Y1490576D1*
X456201Y1499950D2*
D15*
X437451D1*
X418701Y1518701D1*
X543701Y1643701D1*
X2024951D1*
X2031202Y1637450D1*
D18*
X2068701D1*
X2106201D1*
X2068701Y1637451D2*
D15*
Y1637450D1*
X2031201Y1637451D2*
X2031202Y1637450D1*
X2068701Y1637451D1*
X2106201D1*
Y1637450D1*
X456201Y1543701D2*
X418701Y1518701D1*
X424950D2*
D18*
X443701Y1499950D1*
X456201D1*
D15*
X462450D1*
Y1543701D1*
X456201D1*
X424950Y1518701D2*
D18*
X449950Y1543701D1*
X456201D1*
X1706201Y768701D2*
D13*
Y668701D1*
X1606201Y568701D1*
X1356201D1*
X1974950Y1487451D2*
D18*
Y1574951D1*
D15*
X1949951Y1599950D1*
X568699D1*
X506201Y1537451D1*
Y1356201D1*
D18*
X499951D1*
Y1349951D1*
X506201D1*
Y1312451D1*
X499951D1*
X1974950Y1487451D2*
D16*
Y1531201D1*
Y1574950D1*
X499951Y1349951D2*
D15*
D3*
Y1312451D2*
Y1349951D1*
X468701Y1331201D2*
D18*
X487451Y1349951D1*
D19*
X499951D1*
X468701Y1331201D2*
D18*
X493701Y1306201D1*
D19*
X499951Y1312451D1*
X506201Y689272D2*
D13*
Y546825D1*
X456201Y496825D1*
X856201D2*
X806201Y546825D1*
Y668701D1*
X822736Y685236D1*
X856201D1*
X656201Y496825D2*
X706201Y546825D1*
Y659325D1*
X728076Y681201D1*
X752165D1*
X756201Y685236D1*
X1047736Y1078076D2*
D14*
X1018701D1*
X1493701Y1118701D2*
X1467790D1*
X1461541Y1124950D1*
X956201Y1418701D2*
D21*
X885630D1*
X956201Y1468701D2*
D15*
Y1418701D1*
X1506201Y1298701D2*
X1471825Y1299950D1*
X1453764D1*
X1437450D1*
Y1283636D1*
Y1246825D1*
D21*
Y1265575D1*
X1471825Y1299950D1*
X1437450Y1283636D2*
D16*
X1453764Y1299950D1*
X1437450D2*
X1504951D1*
X1506201Y1298701D1*
X956201Y1418701D2*
Y1443701D1*
X931201D1*
Y1456201D1*
X943701Y1468701D1*
X956201D1*
X1437450Y1299950D2*
Y1246825D1*
X1778076Y818701D2*
D22*
X1393701D1*
X1118701D1*
X881201D1*
X868701Y831201D1*
X856201Y843701D1*
Y1237451D1*
X1002899D1*
X1020175Y1254727D1*
X1084325Y1318878D1*
X1129163D1*
X1137450Y1327165D1*
X1118701Y910236D2*
D14*
Y881201D1*
X1393701Y910236D2*
Y881201D1*
X868701Y831201D2*
D23*
X806201Y768701D1*
X821547Y753354D1*
X790854D1*
X806201Y768701D1*
X1047736Y1159325D2*
D14*
Y1189665D1*
X1043172Y1197177D1*
X821547Y753354D2*
D23*
X855012D1*
X856201Y752165D1*
X790854Y753354D2*
X757390D1*
X756201Y752165D1*
X1393701Y881201D2*
D17*
X1428076D1*
X1490576Y943701D1*
Y1039961D1*
X706201Y1337451D2*
D15*
X806201D1*
X756201D2*
D21*
X782764Y1314013D1*
Y1310888D1*
X806202Y1287450D1*
X856201Y1237451D1*
X1043172Y1197177D2*
D17*
X1020180Y1220171D1*
X1002899Y1237451D1*
X1393701Y881201D2*
Y868701D1*
X1415576D1*
X1428076Y881201D1*
X1393701D2*
X1406201Y868701D1*
Y859325D1*
X1428076Y881201D1*
X1362450Y1327165D2*
D14*
X1383415D1*
X1412450Y1356201D1*
X1137450D2*
D17*
X1190575Y1409325D1*
X1331201D1*
X1362450Y1378076D1*
Y1327165D1*
X1137450D2*
D14*
Y1356201D1*
X1118701Y881201D2*
Y818701D1*
X1393701Y881201D2*
D24*
Y818701D1*
X1020175Y1254727D2*
D17*
X1020180Y1220171D1*
X718701Y1493701D2*
D15*
X643701D1*
X756201Y752165D2*
D23*
X711541D1*
X556201Y596825D1*
X1461541Y1043701D2*
D17*
X1476550Y1039961D1*
X1490576D2*
X1476550D1*
X782764Y1314013D2*
D21*
X806201Y1337450D1*
Y1337451D1*
D15*
X756201D1*
X806201D2*
D21*
X806202Y1287450D1*
X718701Y1493701D2*
D25*
X743701D1*
X818701Y1418701D1*
X718701Y1493701D2*
D27*
X681201D1*
X643701D2*
X681201D1*
X1506201Y1238701D2*
D17*
Y1196827D1*
X1487450Y1178076D1*
X1328075D1*
X1309325Y1196825D1*
Y1156199D1*
X1328076Y1174950D1*
Y1178076D1*
X1318701D1*
X1309325Y1196825D2*
Y1296827D1*
X1281201Y1324951D1*
X1258415D1*
X1256201Y1327165D1*
X1309325Y1156199D2*
Y931201D1*
X1288361Y910236D1*
X1265576D1*
X1256201Y1327165D2*
D13*
Y1356201D1*
X1265576Y910236D2*
X1274950Y900862D1*
Y881201D1*
D57*
X456201Y1187451D3*
Y1237451D3*
D19*
X2106201Y1637450D3*
X1974950Y1487451D3*
X456201Y1499950D3*
X499951Y1312451D3*
X1974950Y1531201D3*
Y1574950D3*
X2068701Y1637451D3*
X2031201D3*
X456201Y1543701D3*
X424950Y1518701D3*
X499951Y1349951D3*
X468701Y1331201D3*
D60*
X1274950Y881201D3*
D19*
X599951Y1337451D3*
Y1299951D3*
D60*
X837450Y1506201D3*
X1199950Y1356201D3*
X1387451Y668701D3*
X1274951Y418701D3*
X1906201D3*
D19*
X2199951Y587451D3*
D60*
X1706201Y1068701D3*
D19*
X2287451Y587451D3*
X2156201D3*
D60*
X1306201Y718701D3*
X1006201Y1306201D3*
X1131201Y743701D3*
X2274950Y1637451D3*
D62*
X456201Y596825D3*
D19*
X643701Y1299951D3*
D60*
X656201Y768701D3*
X968701D3*
X1806201Y668701D3*
X1762450Y940576D3*
D19*
X643701Y1374950D3*
D60*
X1137450Y1490576D3*
X1462450Y862451D3*
X1256201Y1190576D3*
X1490576Y1039961D3*
X1137450Y1356201D3*
X1118701Y881201D3*
D62*
X556201Y596825D3*
D27*
X643701Y1493701D3*
X756201Y1337451D3*
D60*
X1043172Y1197177D3*
X2237450Y981201D3*
Y1081201D3*
X1940576Y1068701D3*
D62*
X456201Y496825D3*
X656201D3*
D60*
X1018701Y1078076D3*
D27*
X956201Y1468701D3*
X931201Y1443701D3*
D60*
X1706201Y768701D3*
X1499951Y887451D3*
X1252741Y1512823D3*
D62*
X756201Y496825D3*
Y596825D3*
D60*
X1631201Y1177756D3*
X874951Y1335236D3*
D19*
X643701Y1337451D3*
X599951Y1374950D3*
D60*
X993701Y1506201D3*
X1337450Y881201D3*
X599951Y687451D3*
X1768701Y418701D3*
X1403201Y740576D3*
X1831201Y593701D3*
X1974951Y1168701D3*
X1931201Y712450D3*
D19*
X2287450Y543701D3*
X2243701Y587451D3*
D60*
X856201Y1368701D3*
X765576Y1384325D3*
X1456201Y968701D3*
X1524951Y1562451D3*
D62*
X856201Y596825D3*
D60*
X1856201Y1006201D3*
X1574950Y1412451D3*
X1318701Y1356201D3*
X1024950Y912450D3*
D19*
X2156201Y543701D3*
D60*
X2062450Y693701D3*
X1206201Y1190576D3*
X1203076Y943701D3*
X1412450Y1356201D3*
X1778076Y818701D3*
X1393701Y881201D3*
D27*
X718701Y1493701D3*
X706201Y1337451D3*
X806201D3*
D60*
X2237450Y1031201D3*
Y931201D3*
Y881201D3*
D62*
X556201Y496825D3*
X856201D3*
D60*
X1493701Y1118701D3*
D27*
X1437450Y1299950D3*
X956201Y1418701D3*
X1437450Y1246825D3*
D60*
X1356201Y568701D3*
X1987450Y862451D3*
X1320562Y1512451D3*
X1286706D3*
X2068701Y868701D3*
D62*
X656201Y596825D3*
D60*
X2134325Y484325D3*
X1406201Y1490576D3*
X1256201Y1356201D3*
D27*
X681201Y1493701D3*
X2125612Y1659832D2*
D28*
X2297732D1*
X2130932Y1653963D2*
X2303591D1*
X2134037Y1648094D2*
X2309462D1*
X2135643Y1642226D2*
X2315098D1*
X2136017Y1636357D2*
X2315098D1*
X2135197Y1630488D2*
X2315098D1*
X2133076Y1624619D2*
X2315098D1*
X2129280Y1618751D2*
X2315098D1*
X1973315Y1612882D2*
X2014747D1*
X2122659D2*
X2315098D1*
X1979185Y1607013D2*
X2315098D1*
X1988549Y1601144D2*
X2315098D1*
X1996576Y1595276D2*
X2041243D1*
X2104224D2*
X2108169D1*
X2171163D2*
X2315098D1*
X2000971Y1589407D2*
X2041243D1*
X2104224D2*
X2108169D1*
X2171163D2*
X2315098D1*
X2003501Y1583538D2*
X2041243D1*
X2104224D2*
X2108169D1*
X2171163D2*
X2315098D1*
X2004663Y1577669D2*
X2041243D1*
X2104224D2*
X2108169D1*
X2249220D2*
X2315098D1*
X1305088Y1571801D2*
X1941810D1*
X2004791D2*
X2041243D1*
X2104224D2*
X2108169D1*
X2255092D2*
X2315098D1*
X1310959Y1565932D2*
X1945114D1*
X2004791D2*
X2041243D1*
X2104224D2*
X2108169D1*
X2260963D2*
X2315098D1*
X1316831Y1560063D2*
X1945114D1*
X2004791D2*
X2041243D1*
X2104224D2*
X2108169D1*
X2266823D2*
X2315098D1*
X1322701Y1554194D2*
X1945114D1*
X2004791D2*
X2041243D1*
X2104224D2*
X2108169D1*
X2171163D2*
X2231217D1*
X2272693D2*
X2315098D1*
X1328560Y1548325D2*
X1945114D1*
X2004791D2*
X2041243D1*
X2104224D2*
X2108169D1*
X2171163D2*
X2237087D1*
X2278564D2*
X2315098D1*
X1333635Y1542457D2*
X1945114D1*
X2004791D2*
X2041243D1*
X2104224D2*
X2108169D1*
X2171163D2*
X2242958D1*
X2284436D2*
X2315098D1*
X1335369Y1536588D2*
X1384900D1*
X1733760D2*
X1945114D1*
X2004791D2*
X2248829D1*
X2288736D2*
X2315098D1*
X1335404Y1530719D2*
X1378735D1*
X1739924D2*
X1945114D1*
X2004791D2*
X2254689D1*
X2289791D2*
X2315098D1*
X608092Y1524850D2*
X1232403D1*
X1340667D2*
X1372865D1*
X1745783D2*
X1945114D1*
X2004791D2*
X2260114D1*
X2289791D2*
X2315098D1*
X602220Y1518982D2*
X1229861D1*
X1343337D2*
X1366993D1*
X1751655D2*
X1945114D1*
X2004791D2*
X2260114D1*
X2289791D2*
X2315098D1*
X596349Y1513113D2*
X626966D1*
X750029D2*
X1229029D1*
X1344264D2*
X1361122D1*
X1757525D2*
X1945114D1*
X2004791D2*
X2260114D1*
X2289791D2*
X2315098D1*
X590479Y1507244D2*
X621798D1*
X759381D2*
X1229709D1*
X1343677D2*
X1355251D1*
X1422815D2*
X1721919D1*
X1763396D2*
X1945114D1*
X2004791D2*
X2260114D1*
X2289791D2*
X2315098D1*
X584619Y1501375D2*
X619056D1*
X765252D2*
X1232064D1*
X1427232D2*
X1727790D1*
X1769268D2*
X1945114D1*
X2004791D2*
X2260114D1*
X2289791D2*
X2315098D1*
X397301Y1495507D2*
X405598D1*
X583541D2*
X617930D1*
X771123D2*
X1236833D1*
X1429388D2*
X1733661D1*
X1775139D2*
X1945114D1*
X2004791D2*
X2041243D1*
X2104224D2*
X2108169D1*
X2171163D2*
X2260114D1*
X2289791D2*
X2315098D1*
X397301Y1489638D2*
X411470D1*
X583541D2*
X618189D1*
X776983D2*
X941509D1*
X970892D2*
X1252021D1*
X1379127D2*
X1382504D1*
X1429892D2*
X1739521D1*
X1780999D2*
X1945114D1*
X2004791D2*
X2041243D1*
X2104224D2*
X2108169D1*
X2171163D2*
X2260114D1*
X2289791D2*
X2315098D1*
X397301Y1483769D2*
X417341D1*
X583541D2*
X619900D1*
X782853D2*
X935357D1*
X977045D2*
X1257892D1*
X1373256D2*
X1381782D1*
X1428885D2*
X1745392D1*
X1786869D2*
X1945337D1*
X2004556D2*
X2041243D1*
X2104224D2*
X2108169D1*
X2171163D2*
X2260114D1*
X2289791D2*
X2315098D1*
X397301Y1477900D2*
X423892D1*
X476009D2*
X480365D1*
X583541D2*
X623415D1*
X788724D2*
X928630D1*
X980303D2*
X1263762D1*
X1367385D2*
X1375911D1*
X1426131D2*
X1751262D1*
X1792669D2*
X1946709D1*
X2003185D2*
X2041243D1*
X2104224D2*
X2108169D1*
X2223991D2*
X2260114D1*
X2289791D2*
X2315098D1*
X397301Y1472031D2*
X434415D1*
X465487D2*
X480365D1*
X583541D2*
X630154D1*
X732240D2*
X736150D1*
X794596D2*
X922759D1*
X981815D2*
X1370041D1*
X1420600D2*
X1757134D1*
X1795647D2*
X1949509D1*
X2000396D2*
X2041243D1*
X2104224D2*
X2108169D1*
X2229861D2*
X2260114D1*
X2289791D2*
X2315098D1*
X397301Y1466163D2*
X480365D1*
X583541D2*
X742021D1*
X800467D2*
X917146D1*
X982037D2*
X1364169D1*
X1405647D2*
X1763005D1*
X1796045D2*
X1954302D1*
X1995592D2*
X2041243D1*
X2104224D2*
X2108169D1*
X2235732D2*
X2260114D1*
X2289791D2*
X2315098D1*
X397301Y1460294D2*
X480365D1*
X583541D2*
X747881D1*
X806327D2*
X911790D1*
X982037D2*
X1358310D1*
X1399787D2*
X1766357D1*
X1796045D2*
X1963513D1*
X1986392D2*
X2041243D1*
X2104224D2*
X2108169D1*
X2241592D2*
X2260114D1*
X2289791D2*
X2315098D1*
X397301Y1454425D2*
X480365D1*
X583541D2*
X753751D1*
X812197D2*
X907923D1*
X982037D2*
X1352438D1*
X1393916D2*
X1766357D1*
X1796045D2*
X2041243D1*
X2104224D2*
X2108169D1*
X2171163D2*
X2205986D1*
X2247463D2*
X2260114D1*
X2289791D2*
X2315098D1*
X397301Y1448556D2*
X480365D1*
X583541D2*
X759622D1*
X848220D2*
X856102D1*
X982037D2*
X1071693D1*
X1388045D2*
X1766357D1*
X1796045D2*
X2041243D1*
X2104224D2*
X2108169D1*
X2171163D2*
X2211857D1*
X2253335D2*
X2260114D1*
X2289791D2*
X2315098D1*
X397301Y1442688D2*
X480365D1*
X583541D2*
X765493D1*
X848220D2*
X856102D1*
X982037D2*
X1065705D1*
X1382173D2*
X1766357D1*
X1796045D2*
X2041243D1*
X2104224D2*
X2108169D1*
X2171163D2*
X2217728D1*
X2289791D2*
X2315098D1*
X397301Y1436819D2*
X480365D1*
X583541D2*
X771365D1*
X848220D2*
X856102D1*
X982037D2*
X1059833D1*
X1376303D2*
X1766357D1*
X1796045D2*
X2223598D1*
X2289791D2*
X2315098D1*
X397301Y1430950D2*
X480365D1*
X583541D2*
X777224D1*
X848220D2*
X856102D1*
X982037D2*
X1053962D1*
X1370444D2*
X1766357D1*
X1796045D2*
X2229458D1*
X2289791D2*
X2315098D1*
X397301Y1425081D2*
X480365D1*
X583541D2*
X783094D1*
X848220D2*
X856102D1*
X982037D2*
X1048091D1*
X1363857D2*
X1766357D1*
X1796045D2*
X2235329D1*
X2289791D2*
X2315098D1*
X397301Y1419213D2*
X480365D1*
X583541D2*
X788966D1*
X848220D2*
X856102D1*
X982037D2*
X1042220D1*
X1083697D2*
X1175486D1*
X1346291D2*
X1766357D1*
X1796045D2*
X2241201D1*
X2289791D2*
X2315098D1*
X397301Y1413344D2*
X480365D1*
X583541D2*
X789177D1*
X848220D2*
X856102D1*
X981463D2*
X1036361D1*
X1077837D2*
X1169614D1*
X1352163D2*
X1766357D1*
X1796045D2*
X2241365D1*
X2289791D2*
X2315098D1*
X397301Y1407475D2*
X480365D1*
X583541D2*
X789177D1*
X848220D2*
X856102D1*
X979412D2*
X1030490D1*
X1071967D2*
X1163743D1*
X1358033D2*
X1766357D1*
X1796045D2*
X2241365D1*
X2289791D2*
X2315098D1*
X397301Y1401606D2*
X480365D1*
X583541D2*
X789177D1*
X848220D2*
X856102D1*
X975369D2*
X1024618D1*
X1066096D2*
X1157873D1*
X1363904D2*
X1766357D1*
X1796045D2*
X2241365D1*
X2289791D2*
X2315098D1*
X397301Y1395738D2*
X480365D1*
X583541D2*
X789177D1*
X848220D2*
X856102D1*
X915159D2*
X945130D1*
X967272D2*
X1018747D1*
X1060224D2*
X1152001D1*
X1369776D2*
X1766357D1*
X1796045D2*
X2041243D1*
X2104224D2*
X2108169D1*
X2171163D2*
X2241365D1*
X2289791D2*
X2315098D1*
X397301Y1389869D2*
X480365D1*
X583541D2*
X789177D1*
X848220D2*
X856102D1*
X915159D2*
X1012877D1*
X1054353D2*
X1146142D1*
X1196104D2*
X1325673D1*
X1375623D2*
X1766357D1*
X1796045D2*
X2041243D1*
X2104224D2*
X2108169D1*
X2171163D2*
X2241365D1*
X2289791D2*
X2315098D1*
X397301Y1384000D2*
X479591D1*
X583541D2*
X1007017D1*
X1048495D2*
X1140270D1*
X1190232D2*
X1331545D1*
X1379244D2*
X1766357D1*
X1796045D2*
X2041243D1*
X2104224D2*
X2108169D1*
X2171163D2*
X2241365D1*
X2289791D2*
X2315098D1*
X397301Y1378131D2*
X473685D1*
X583541D2*
X1001146D1*
X1042623D2*
X1129549D1*
X1184361D2*
X1248294D1*
X1264108D2*
X1337415D1*
X1380287D2*
X1404552D1*
X1420353D2*
X1766357D1*
X1796045D2*
X2041243D1*
X2104224D2*
X2108169D1*
X2211264D2*
X2241365D1*
X2289791D2*
X2315098D1*
X397301Y1372262D2*
X467814D1*
X583541D2*
X995274D1*
X1036752D2*
X1120232D1*
X1178491D2*
X1238978D1*
X1273424D2*
X1343286D1*
X1380287D2*
X1395224D1*
X1429669D2*
X1766357D1*
X1796045D2*
X2041243D1*
X2104224D2*
X2108169D1*
X2217123D2*
X2241365D1*
X2289791D2*
X2315098D1*
X397301Y1366394D2*
X461942D1*
X583541D2*
X989403D1*
X1030881D2*
X1116106D1*
X1172619D2*
X1234853D1*
X1277549D2*
X1344610D1*
X1380287D2*
X1391110D1*
X1433795D2*
X1766357D1*
X1796045D2*
X2041243D1*
X2104224D2*
X2108169D1*
X2222995D2*
X2241365D1*
X2289791D2*
X2315098D1*
X397301Y1360525D2*
X456071D1*
X583541D2*
X695369D1*
X817037D2*
X983533D1*
X1025009D2*
X1114150D1*
X1166760D2*
X1232896D1*
X1279505D2*
X1344610D1*
X1380287D2*
X1389142D1*
X1435752D2*
X1766357D1*
X1796045D2*
X2041243D1*
X2104224D2*
X2108169D1*
X2228865D2*
X2241365D1*
X2289791D2*
X2315098D1*
X397301Y1354656D2*
X450201D1*
X583541D2*
X687130D1*
X825264D2*
X861822D1*
X888088D2*
X977673D1*
X1019151D2*
X1107927D1*
X1166971D2*
X1226673D1*
X1285728D2*
X1332927D1*
X1436115D2*
X1766357D1*
X1796045D2*
X2041243D1*
X2104224D2*
X2108169D1*
X2234736D2*
X2241365D1*
X2289791D2*
X2315098D1*
X397301Y1348787D2*
X444739D1*
X583541D2*
X683052D1*
X829353D2*
X855622D1*
X1013280D2*
X1107927D1*
X1166971D2*
X1226673D1*
X1285728D2*
X1332927D1*
X1434944D2*
X1766357D1*
X1796045D2*
X2041243D1*
X2104224D2*
X2108169D1*
X2171163D2*
X2199130D1*
X2289791D2*
X2315098D1*
X397301Y1342919D2*
X441306D1*
X583541D2*
X680954D1*
X831440D2*
X852552D1*
X1007408D2*
X1107927D1*
X1166971D2*
X1226673D1*
X1285728D2*
X1332927D1*
X1431967D2*
X1766357D1*
X1796045D2*
X2041243D1*
X2104224D2*
X2108169D1*
X2171163D2*
X2204990D1*
X2289791D2*
X2315098D1*
X397301Y1337050D2*
X439454D1*
X583541D2*
X680369D1*
X832037D2*
X851310D1*
X1001537D2*
X1072713D1*
X1166971D2*
X1226673D1*
X1294084D2*
X1332927D1*
X1425991D2*
X1766357D1*
X1796045D2*
X2210861D1*
X2289791D2*
X2315098D1*
X397301Y1331181D2*
X438857D1*
X583541D2*
X681154D1*
X831252D2*
X851591D1*
X995667D2*
X1065974D1*
X1166971D2*
X1226673D1*
X1299955D2*
X1332927D1*
X1409584D2*
X1766357D1*
X1796045D2*
X2216732D1*
X2289791D2*
X2315098D1*
X397301Y1325312D2*
X439454D1*
X583541D2*
X683474D1*
X828932D2*
X853478D1*
X989807D2*
X1060114D1*
X1166971D2*
X1226673D1*
X1305827D2*
X1332927D1*
X1403713D2*
X1464857D1*
X1547537D2*
X1766357D1*
X1796045D2*
X2222602D1*
X2289791D2*
X2315098D1*
X397301Y1319444D2*
X441329D1*
X583541D2*
X687915D1*
X828041D2*
X857474D1*
X892424D2*
X1054243D1*
X1166971D2*
X1226673D1*
X1311685D2*
X1332927D1*
X1397841D2*
X1420818D1*
X1547537D2*
X1766357D1*
X1796045D2*
X2222614D1*
X2289791D2*
X2315098D1*
X397301Y1313575D2*
X444774D1*
X583541D2*
X697419D1*
X828041D2*
X866286D1*
X883612D2*
X1048373D1*
X1166971D2*
X1226673D1*
X1317556D2*
X1332927D1*
X1391971D2*
X1415602D1*
X1547537D2*
X1766357D1*
X1796045D2*
X2222614D1*
X2289791D2*
X2315098D1*
X397301Y1307706D2*
X450247D1*
X583541D2*
X757209D1*
X828041D2*
X1042501D1*
X1166971D2*
X1226673D1*
X1323299D2*
X1332927D1*
X1391971D2*
X1412825D1*
X1547537D2*
X1766357D1*
X1796045D2*
X2222614D1*
X2289791D2*
X2315098D1*
X397301Y1301837D2*
X456118D1*
X583541D2*
X762950D1*
X828041D2*
X1036630D1*
X1166971D2*
X1226673D1*
X1326416D2*
X1332927D1*
X1391971D2*
X1411677D1*
X1547537D2*
X1766357D1*
X1796045D2*
X2222614D1*
X2289791D2*
X2315098D1*
X397301Y1295969D2*
X461978D1*
X583541D2*
X767052D1*
X828323D2*
X1030770D1*
X1092064D2*
X1285209D1*
X1327167D2*
X1411606D1*
X1547537D2*
X1766357D1*
X1796045D2*
X2041243D1*
X2104224D2*
X2108169D1*
X2171163D2*
X2222614D1*
X2289791D2*
X2315098D1*
X397301Y1290100D2*
X467849D1*
X583541D2*
X772911D1*
X834193D2*
X1024900D1*
X1086193D2*
X1107927D1*
X1166971D2*
X1226673D1*
X1285728D2*
X1291067D1*
X1327167D2*
X1332927D1*
X1391971D2*
X1411606D1*
X1547537D2*
X1766357D1*
X1796045D2*
X2041243D1*
X2104224D2*
X2108169D1*
X2171163D2*
X2222614D1*
X2289791D2*
X2315098D1*
X397301Y1284231D2*
X473802D1*
X514459D2*
X519739D1*
X583541D2*
X778782D1*
X840064D2*
X1019029D1*
X1080323D2*
X1107927D1*
X1166971D2*
X1226673D1*
X1285728D2*
X1291490D1*
X1327167D2*
X1332927D1*
X1391971D2*
X1411606D1*
X1547537D2*
X1766357D1*
X1796045D2*
X2041243D1*
X2104224D2*
X2108169D1*
X2171163D2*
X2222614D1*
X2289791D2*
X2315098D1*
X397301Y1278362D2*
X484161D1*
X503244D2*
X513881D1*
X583260D2*
X784654D1*
X845924D2*
X1013157D1*
X1074463D2*
X1107927D1*
X1166971D2*
X1226673D1*
X1285728D2*
X1291490D1*
X1327167D2*
X1332927D1*
X1391971D2*
X1411606D1*
X1547537D2*
X1766357D1*
X1796045D2*
X2041243D1*
X2104224D2*
X2108169D1*
X2211029D2*
X2222614D1*
X2289791D2*
X2315098D1*
X397301Y1272493D2*
X508009D1*
X580564D2*
X790525D1*
X851795D2*
X1007286D1*
X1068592D2*
X1107927D1*
X1166971D2*
X1226673D1*
X1285728D2*
X1291490D1*
X1327167D2*
X1332927D1*
X1391971D2*
X1411606D1*
X1547537D2*
X1766357D1*
X1796045D2*
X2041243D1*
X2104224D2*
X2108169D1*
X2216900D2*
X2222614D1*
X2289791D2*
X2315098D1*
X397301Y1266625D2*
X502138D1*
X574857D2*
X796385D1*
X857667D2*
X1001427D1*
X1062720D2*
X1107927D1*
X1166971D2*
X1226673D1*
X1285728D2*
X1291490D1*
X1327167D2*
X1332927D1*
X1391971D2*
X1411606D1*
X1547537D2*
X1766357D1*
X1796045D2*
X2041243D1*
X2104224D2*
X2108169D1*
X2289791D2*
X2315098D1*
X397301Y1260756D2*
X496266D1*
X568999D2*
X802255D1*
X863537D2*
X995556D1*
X1056849D2*
X1107927D1*
X1166971D2*
X1226673D1*
X1285728D2*
X1291490D1*
X1327167D2*
X1332927D1*
X1391971D2*
X1411606D1*
X1547537D2*
X1766357D1*
X1796045D2*
X2041243D1*
X2104224D2*
X2108169D1*
X2289791D2*
X2315098D1*
X397301Y1254887D2*
X440462D1*
X471944D2*
X490396D1*
X563127D2*
X808126D1*
X1050979D2*
X1107927D1*
X1166971D2*
X1226673D1*
X1285728D2*
X1291490D1*
X1327167D2*
X1332927D1*
X1391971D2*
X1411606D1*
X1547537D2*
X1766357D1*
X1796045D2*
X2041243D1*
X2104224D2*
X2108169D1*
X2289791D2*
X2315098D1*
X397301Y1249018D2*
X435622D1*
X557256D2*
X813997D1*
X1045119D2*
X1107927D1*
X1166971D2*
X1226673D1*
X1285728D2*
X1291490D1*
X1327167D2*
X1332927D1*
X1391971D2*
X1411606D1*
X1547537D2*
X1766357D1*
X1796045D2*
X2041243D1*
X2104224D2*
X2108169D1*
X2171163D2*
X2198896D1*
X2289791D2*
X2315098D1*
X397301Y1243150D2*
X433220D1*
X551385D2*
X819869D1*
X1039248D2*
X1107927D1*
X1166971D2*
X1226673D1*
X1285728D2*
X1291490D1*
X1327167D2*
X1332927D1*
X1391971D2*
X1411877D1*
X1547537D2*
X1766357D1*
X1796045D2*
X2041243D1*
X2104224D2*
X2108169D1*
X2171163D2*
X2203865D1*
X2289791D2*
X2315098D1*
X397301Y1237281D2*
X432517D1*
X545513D2*
X825728D1*
X1038017D2*
X1107927D1*
X1166971D2*
X1226673D1*
X1285728D2*
X1291490D1*
X1327167D2*
X1332927D1*
X1391971D2*
X1413482D1*
X1461416D2*
X1464857D1*
X1547537D2*
X1766357D1*
X1796045D2*
X2203865D1*
X2289791D2*
X2315098D1*
X397301Y1231412D2*
X433314D1*
X539655D2*
X831598D1*
X1038017D2*
X1107927D1*
X1166971D2*
X1226673D1*
X1285728D2*
X1291490D1*
X1327167D2*
X1332927D1*
X1391971D2*
X1416869D1*
X1458041D2*
X1464857D1*
X1547537D2*
X1766357D1*
X1796045D2*
X2203865D1*
X2289791D2*
X2315098D1*
X397301Y1225543D2*
X435822D1*
X533783D2*
X834353D1*
X1039787D2*
X1291490D1*
X1327167D2*
X1423278D1*
X1451619D2*
X1464857D1*
X1547537D2*
X1766357D1*
X1796045D2*
X2203865D1*
X2289791D2*
X2315098D1*
X397301Y1219675D2*
X440861D1*
X471533D2*
X486434D1*
X527912D2*
X834353D1*
X1049080D2*
X1291490D1*
X1327167D2*
X1464857D1*
X1547537D2*
X1766357D1*
X1796045D2*
X2203865D1*
X2289791D2*
X2315098D1*
X397301Y1213806D2*
X480564D1*
X522041D2*
X834353D1*
X886845D2*
X1001567D1*
X1059827D2*
X1291490D1*
X1327167D2*
X1464857D1*
X1547537D2*
X1766357D1*
X1796045D2*
X2203865D1*
X2289791D2*
X2315098D1*
X397301Y1207937D2*
X444950D1*
X467455D2*
X474693D1*
X516169D2*
X834353D1*
X880975D2*
X1007427D1*
X1064232D2*
X1291490D1*
X1327167D2*
X1464857D1*
X1547537D2*
X1766357D1*
X1796045D2*
X2203865D1*
X2289791D2*
X2315098D1*
X397301Y1202068D2*
X437732D1*
X510311D2*
X834353D1*
X878045D2*
X1013298D1*
X1066365D2*
X1291490D1*
X1329064D2*
X1486466D1*
X1524041D2*
X1766357D1*
X1796045D2*
X2203865D1*
X2289791D2*
X2315098D1*
X397301Y1196199D2*
X434228D1*
X504440D2*
X834353D1*
X878045D2*
X1019169D1*
X1066869D2*
X1291490D1*
X1334936D2*
X1480594D1*
X1524029D2*
X1616673D1*
X1645728D2*
X1766357D1*
X1796045D2*
X2041243D1*
X2104224D2*
X2108169D1*
X2171163D2*
X2203865D1*
X2289791D2*
X2315098D1*
X397301Y1190331D2*
X432693D1*
X498568D2*
X834353D1*
X878045D2*
X1020493D1*
X1065849D2*
X1291490D1*
X1522776D2*
X1611213D1*
X1651189D2*
X1766357D1*
X1796045D2*
X2041243D1*
X2104224D2*
X2108169D1*
X2171163D2*
X2203865D1*
X2289791D2*
X2315098D1*
X397301Y1184462D2*
X432705D1*
X492697D2*
X834353D1*
X878045D2*
X1016239D1*
X1079232D2*
X1083177D1*
X1146159D2*
X1291490D1*
X1518815D2*
X1608482D1*
X1653920D2*
X1766357D1*
X1796045D2*
X2041243D1*
X2104224D2*
X2108169D1*
X2171163D2*
X2203865D1*
X2289791D2*
X2315098D1*
X397301Y1178593D2*
X434274D1*
X486827D2*
X834353D1*
X878045D2*
X1016239D1*
X1079232D2*
X1083177D1*
X1146159D2*
X1291490D1*
X1512944D2*
X1607497D1*
X1654904D2*
X1766357D1*
X1796045D2*
X2041243D1*
X2104224D2*
X2108169D1*
X2171163D2*
X2203865D1*
X2289791D2*
X2315098D1*
X397301Y1172724D2*
X437814D1*
X474580D2*
X834353D1*
X878045D2*
X1016239D1*
X1079232D2*
X1083177D1*
X1146159D2*
X1291490D1*
X1507084D2*
X1608037D1*
X1654365D2*
X1766357D1*
X1796045D2*
X2041243D1*
X2104224D2*
X2108169D1*
X2171163D2*
X2203865D1*
X2289791D2*
X2315098D1*
X397301Y1166856D2*
X445161D1*
X467244D2*
X834353D1*
X878045D2*
X1016239D1*
X1079232D2*
X1083177D1*
X1146159D2*
X1291490D1*
X1501213D2*
X1610217D1*
X1652185D2*
X1766357D1*
X1796045D2*
X2041243D1*
X2104224D2*
X2108169D1*
X2171163D2*
X2203865D1*
X2289791D2*
X2315098D1*
X397301Y1160987D2*
X834353D1*
X878045D2*
X1016239D1*
X1079232D2*
X1083177D1*
X1146159D2*
X1291490D1*
X1490327D2*
X1614693D1*
X1647709D2*
X1766357D1*
X1796045D2*
X2041243D1*
X2104224D2*
X2108169D1*
X2171163D2*
X2202751D1*
X2289791D2*
X2315098D1*
X397301Y1155118D2*
X834353D1*
X878045D2*
X1016239D1*
X1079232D2*
X1083177D1*
X1146159D2*
X1291490D1*
X1333224D2*
X1616357D1*
X1646045D2*
X1766357D1*
X1796045D2*
X2041243D1*
X2104224D2*
X2108169D1*
X2171163D2*
X2196881D1*
X2289791D2*
X2315098D1*
X397301Y1149249D2*
X834353D1*
X878045D2*
X1016239D1*
X1079232D2*
X1083177D1*
X1146159D2*
X1291490D1*
X1327353D2*
X1363114D1*
X1426108D2*
X1430052D1*
X1493033D2*
X1616357D1*
X1646045D2*
X1766357D1*
X1796045D2*
X2041243D1*
X2104224D2*
X2108169D1*
X2171163D2*
X2191009D1*
X2289791D2*
X2315098D1*
X397301Y1143381D2*
X834353D1*
X878045D2*
X1016239D1*
X1079232D2*
X1083177D1*
X1146159D2*
X1291490D1*
X1327167D2*
X1363114D1*
X1426108D2*
X1430052D1*
X1493033D2*
X1616357D1*
X1646045D2*
X1766357D1*
X1796045D2*
X2041243D1*
X2104224D2*
X2108169D1*
X2171163D2*
X2185138D1*
X2289791D2*
X2315098D1*
X397301Y1137512D2*
X834353D1*
X878045D2*
X1016239D1*
X1079232D2*
X1083177D1*
X1146159D2*
X1291490D1*
X1327167D2*
X1363114D1*
X1426108D2*
X1430052D1*
X1507728D2*
X1616357D1*
X1646045D2*
X1766357D1*
X1796045D2*
X2124822D1*
X2158541D2*
X2179278D1*
X2289791D2*
X2315098D1*
X397301Y1131643D2*
X834353D1*
X878045D2*
X1016239D1*
X1079232D2*
X1083177D1*
X1146159D2*
X1291490D1*
X1327167D2*
X1363114D1*
X1426108D2*
X1430052D1*
X1513448D2*
X1616357D1*
X1646045D2*
X1766357D1*
X1796045D2*
X2124822D1*
X2158541D2*
X2173407D1*
X2289791D2*
X2315098D1*
X397301Y1125774D2*
X834353D1*
X878045D2*
X1291490D1*
X1327167D2*
X1363114D1*
X1426108D2*
X1430052D1*
X1516307D2*
X1616357D1*
X1646045D2*
X1766357D1*
X1796045D2*
X2124822D1*
X2158541D2*
X2167537D1*
X2289791D2*
X2315098D1*
X397301Y1119906D2*
X834353D1*
X878045D2*
X1291490D1*
X1327167D2*
X1363114D1*
X1426108D2*
X1430052D1*
X1517385D2*
X1616357D1*
X1646045D2*
X1766357D1*
X1796045D2*
X2124822D1*
X2158541D2*
X2161672D1*
X2289791D2*
X2315098D1*
X397301Y1114037D2*
X834353D1*
X878045D2*
X1291490D1*
X1327167D2*
X1363114D1*
X1426108D2*
X1430052D1*
X1516940D2*
X1616357D1*
X1646045D2*
X1766357D1*
X1796045D2*
X2124822D1*
X2289005D2*
X2315098D1*
X397301Y1108168D2*
X834353D1*
X878045D2*
X1291490D1*
X1327167D2*
X1363114D1*
X1426108D2*
X1430052D1*
X1514877D2*
X1616357D1*
X1646045D2*
X1766357D1*
X1796045D2*
X2124822D1*
X2285151D2*
X2315098D1*
X397301Y1102299D2*
X834353D1*
X878045D2*
X1016239D1*
X1079232D2*
X1083177D1*
X1146159D2*
X1291490D1*
X1327167D2*
X1363114D1*
X1426108D2*
X1430052D1*
X1510588D2*
X1616357D1*
X1646045D2*
X1766357D1*
X1796045D2*
X2124822D1*
X2279291D2*
X2315098D1*
X397301Y1096430D2*
X834353D1*
X878045D2*
X1004052D1*
X1079232D2*
X1083177D1*
X1146159D2*
X1291490D1*
X1327167D2*
X1363114D1*
X1426108D2*
X1430052D1*
X1500487D2*
X1616357D1*
X1646045D2*
X1766357D1*
X1796045D2*
X2124822D1*
X2273420D2*
X2315098D1*
X397301Y1090562D2*
X834353D1*
X878045D2*
X998650D1*
X1079232D2*
X1083177D1*
X1146159D2*
X1291490D1*
X1327167D2*
X1616357D1*
X1646045D2*
X1766357D1*
X1796045D2*
X1932470D1*
X1948681D2*
X2119818D1*
X2267549D2*
X2315098D1*
X397301Y1084693D2*
X834353D1*
X878045D2*
X995954D1*
X1079232D2*
X1083177D1*
X1146159D2*
X1291490D1*
X1327167D2*
X1616357D1*
X1646045D2*
X1766357D1*
X1796045D2*
X1923282D1*
X1957869D2*
X2113958D1*
X2261677D2*
X2315098D1*
X397301Y1078824D2*
X834353D1*
X878045D2*
X994993D1*
X1079232D2*
X1083177D1*
X1146159D2*
X1291490D1*
X1327167D2*
X1616357D1*
X1646045D2*
X1766357D1*
X1796045D2*
X1919193D1*
X2261045D2*
X2315098D1*
X397301Y1072955D2*
X834353D1*
X878045D2*
X995556D1*
X1079232D2*
X1083177D1*
X1146159D2*
X1291490D1*
X1327167D2*
X1616357D1*
X1646045D2*
X1766357D1*
X1796045D2*
X1917259D1*
X2259639D2*
X2315098D1*
X397301Y1067087D2*
X834353D1*
X878045D2*
X997770D1*
X1079232D2*
X1083177D1*
X1146159D2*
X1291490D1*
X1327167D2*
X1363114D1*
X1426108D2*
X1430052D1*
X1493033D2*
X1616357D1*
X1646045D2*
X1766357D1*
X1796045D2*
X1916919D1*
X2256357D2*
X2315098D1*
X397301Y1061218D2*
X834353D1*
X878045D2*
X1002282D1*
X1079232D2*
X1083177D1*
X1146159D2*
X1291490D1*
X1327167D2*
X1363114D1*
X1426108D2*
X1430052D1*
X1500252D2*
X1616357D1*
X1646045D2*
X1766357D1*
X1796045D2*
X1918102D1*
X2249667D2*
X2315098D1*
X397301Y1055349D2*
X834353D1*
X878045D2*
X1013885D1*
X1079232D2*
X1083177D1*
X1146159D2*
X1291490D1*
X1327167D2*
X1363114D1*
X1426108D2*
X1430052D1*
X1508420D2*
X1616357D1*
X1646045D2*
X1766357D1*
X1796045D2*
X1921102D1*
X2124252D2*
X2128865D1*
X2234045D2*
X2315098D1*
X397301Y1049480D2*
X834353D1*
X878045D2*
X1016239D1*
X1079232D2*
X1083177D1*
X1146159D2*
X1291490D1*
X1327167D2*
X1363114D1*
X1426108D2*
X1430052D1*
X1512240D2*
X1616357D1*
X1646045D2*
X1766357D1*
X1796045D2*
X1927138D1*
X1954013D2*
X2128865D1*
X2252197D2*
X2315098D1*
X397301Y1043612D2*
X834353D1*
X878045D2*
X1291490D1*
X1327167D2*
X1363114D1*
X1426108D2*
X1430052D1*
X1513999D2*
X1616357D1*
X1646045D2*
X1766357D1*
X1796045D2*
X2128865D1*
X2257552D2*
X2315098D1*
X397301Y1037743D2*
X834353D1*
X878045D2*
X1291490D1*
X1327167D2*
X1363114D1*
X1426108D2*
X1430052D1*
X1514185D2*
X1616357D1*
X1646045D2*
X1766357D1*
X1796045D2*
X2128865D1*
X2202287D2*
X2210169D1*
X2260224D2*
X2315098D1*
X397301Y1031874D2*
X834353D1*
X878045D2*
X1291490D1*
X1327167D2*
X1363114D1*
X1426108D2*
X1430052D1*
X1512827D2*
X1616357D1*
X1646045D2*
X1766357D1*
X1796045D2*
X2128865D1*
X2202287D2*
X2213743D1*
X2261151D2*
X2315098D1*
X397301Y1026005D2*
X834353D1*
X878045D2*
X1291490D1*
X1327167D2*
X1363114D1*
X1426108D2*
X1430052D1*
X1509604D2*
X1616357D1*
X1646045D2*
X1766357D1*
X1796045D2*
X2128865D1*
X2207139D2*
X2214329D1*
X2260576D2*
X2315098D1*
X397301Y1020136D2*
X834353D1*
X878045D2*
X1291490D1*
X1327167D2*
X1363114D1*
X1426108D2*
X1430052D1*
X1508420D2*
X1616357D1*
X1646045D2*
X1766357D1*
X1796045D2*
X2128865D1*
X2212999D2*
X2216552D1*
X2258349D2*
X2315098D1*
X397301Y1014268D2*
X834353D1*
X878045D2*
X1291490D1*
X1327167D2*
X1472732D1*
X1508420D2*
X1616357D1*
X1646045D2*
X1766357D1*
X1796045D2*
X2128865D1*
X2253780D2*
X2315098D1*
X397301Y1008399D2*
X834353D1*
X878045D2*
X1291490D1*
X1327167D2*
X1472732D1*
X1508420D2*
X1616357D1*
X1646045D2*
X1766357D1*
X1796045D2*
X2128865D1*
X2224740D2*
X2233067D1*
X2241837D2*
X2315098D1*
X397301Y1002530D2*
X834353D1*
X878045D2*
X1089177D1*
X1148220D2*
X1236049D1*
X1327167D2*
X1364181D1*
X1423224D2*
X1472732D1*
X1508420D2*
X1616357D1*
X1646045D2*
X1766357D1*
X1796045D2*
X2128865D1*
X2246959D2*
X2315098D1*
X397301Y996661D2*
X834353D1*
X878045D2*
X1089177D1*
X1148220D2*
X1236049D1*
X1327167D2*
X1364181D1*
X1423224D2*
X1472732D1*
X1508420D2*
X1616357D1*
X1646045D2*
X1766357D1*
X1796045D2*
X2128865D1*
X2255232D2*
X2315098D1*
X397301Y990793D2*
X834353D1*
X878045D2*
X1089177D1*
X1148220D2*
X1236049D1*
X1327167D2*
X1364181D1*
X1423224D2*
X1472732D1*
X1508420D2*
X1616357D1*
X1646045D2*
X1766357D1*
X1796045D2*
X2128865D1*
X2259076D2*
X2315098D1*
X397301Y984924D2*
X834353D1*
X878045D2*
X1089177D1*
X1148220D2*
X1236049D1*
X1327167D2*
X1364181D1*
X1423224D2*
X1472732D1*
X1508420D2*
X1616357D1*
X1646045D2*
X1766357D1*
X1796045D2*
X2128865D1*
X2260857D2*
X2315098D1*
X397301Y979055D2*
X834353D1*
X878045D2*
X1089177D1*
X1148220D2*
X1236049D1*
X1327167D2*
X1364181D1*
X1423224D2*
X1472732D1*
X1508420D2*
X1616357D1*
X1646045D2*
X1766357D1*
X1796045D2*
X2128865D1*
X2261068D2*
X2315098D1*
X397301Y973186D2*
X834353D1*
X878045D2*
X1089177D1*
X1148220D2*
X1236049D1*
X1327167D2*
X1364181D1*
X1423224D2*
X1472732D1*
X1508420D2*
X1616357D1*
X1646045D2*
X1766357D1*
X1796045D2*
X2128970D1*
X2259732D2*
X2315098D1*
X397301Y967318D2*
X834353D1*
X878045D2*
X1089177D1*
X1148220D2*
X1236049D1*
X1327167D2*
X1364181D1*
X1423224D2*
X1472732D1*
X1508420D2*
X1616357D1*
X1646045D2*
X1766357D1*
X1797076D2*
X2131079D1*
X2256533D2*
X2315098D1*
X397301Y961449D2*
X834353D1*
X878045D2*
X1089177D1*
X1148220D2*
X1236049D1*
X1327167D2*
X1364181D1*
X1423224D2*
X1472732D1*
X1508420D2*
X1616357D1*
X1646045D2*
X1766392D1*
X1802948D2*
X2136458D1*
X2250052D2*
X2315098D1*
X397301Y955580D2*
X834353D1*
X878045D2*
X1089177D1*
X1148220D2*
X1236049D1*
X1327167D2*
X1364181D1*
X1423224D2*
X1472732D1*
X1508420D2*
X1616357D1*
X1646045D2*
X1768126D1*
X1808807D2*
X2142329D1*
X2240056D2*
X2315098D1*
X397301Y949711D2*
X834353D1*
X878045D2*
X1089177D1*
X1148220D2*
X1236049D1*
X1327167D2*
X1364181D1*
X1423224D2*
X1471606D1*
X1508420D2*
X1616357D1*
X1646045D2*
X1773201D1*
X1814677D2*
X2148201D1*
X2251892D2*
X2315098D1*
X397301Y943843D2*
X834353D1*
X878045D2*
X1291490D1*
X1327167D2*
X1465735D1*
X1508420D2*
X1616357D1*
X1646045D2*
X1779071D1*
X2044600D2*
X2154071D1*
X2257400D2*
X2315098D1*
X397301Y937974D2*
X834353D1*
X878045D2*
X1089177D1*
X1148220D2*
X1236049D1*
X1327167D2*
X1364181D1*
X1423224D2*
X1459865D1*
X1507436D2*
X1616357D1*
X1646045D2*
X1784942D1*
X2051420D2*
X2159942D1*
X2260155D2*
X2315098D1*
X397301Y932105D2*
X834353D1*
X878045D2*
X1089177D1*
X1148220D2*
X1236049D1*
X1327167D2*
X1364181D1*
X1423224D2*
X1453993D1*
X1503932D2*
X1616357D1*
X1646045D2*
X1790814D1*
X2057280D2*
X2165802D1*
X2261151D2*
X2315098D1*
X397301Y926236D2*
X834353D1*
X878045D2*
X1089177D1*
X1148220D2*
X1236049D1*
X1326440D2*
X1364181D1*
X1423224D2*
X1448134D1*
X1498096D2*
X1616357D1*
X1650651D2*
X1796673D1*
X2063151D2*
X2171673D1*
X2260623D2*
X2315098D1*
X397301Y920367D2*
X834353D1*
X878045D2*
X1089177D1*
X1148220D2*
X1236049D1*
X1323335D2*
X1364181D1*
X1423224D2*
X1442262D1*
X1492224D2*
X1617118D1*
X2069021D2*
X2177545D1*
X2258467D2*
X2315098D1*
X397301Y914499D2*
X834353D1*
X878045D2*
X1089177D1*
X1148220D2*
X1236049D1*
X1317604D2*
X1364181D1*
X1423224D2*
X1436392D1*
X1486353D2*
X1620915D1*
X2009268D2*
X2033415D1*
X2074892D2*
X2183415D1*
X2254025D2*
X2315098D1*
X397301Y908630D2*
X834353D1*
X878045D2*
X1089177D1*
X1148220D2*
X1236049D1*
X1311732D2*
X1364181D1*
X1423224D2*
X1430521D1*
X1480483D2*
X1490087D1*
X1509815D2*
X1626786D1*
X2015139D2*
X2039286D1*
X2080588D2*
X2189286D1*
X2243033D2*
X2315098D1*
X397301Y902761D2*
X834353D1*
X878045D2*
X1089177D1*
X1148220D2*
X1236049D1*
X1305861D2*
X1364181D1*
X1474623D2*
X1482037D1*
X1517865D2*
X1632657D1*
X2020999D2*
X2045146D1*
X2083260D2*
X2195146D1*
X2246385D2*
X2315098D1*
X397301Y896892D2*
X834353D1*
X878045D2*
X1089177D1*
X1148220D2*
X1236049D1*
X1299873D2*
X1364181D1*
X1468752D2*
X1478251D1*
X2026869D2*
X2051017D1*
X2083541D2*
X2201017D1*
X2255021D2*
X2315098D1*
X397301Y891024D2*
X834353D1*
X878045D2*
X1089177D1*
X1148220D2*
X1236049D1*
X1296475D2*
X1364181D1*
X1462881D2*
X1476517D1*
X1979619D2*
X1991262D1*
X2032740D2*
X2053865D1*
X2083541D2*
X2206888D1*
X2258971D2*
X2315098D1*
X397301Y885155D2*
X834353D1*
X878045D2*
X1089177D1*
X1148220D2*
X1236049D1*
X1298327D2*
X1364181D1*
X1457009D2*
X1476353D1*
X1992392D2*
X1997134D1*
X2037908D2*
X2051873D1*
X2085533D2*
X2212759D1*
X2260823D2*
X2315098D1*
X397301Y879286D2*
X834353D1*
X878045D2*
X1095071D1*
X1142337D2*
X1251318D1*
X1298584D2*
X1370064D1*
X1451139D2*
X1477724D1*
X2039736D2*
X2047549D1*
X2089845D2*
X2213814D1*
X2261080D2*
X2315098D1*
X397301Y873417D2*
X834353D1*
X878045D2*
X1096337D1*
X1141060D2*
X1252583D1*
X1297319D2*
X1371341D1*
X1445280D2*
X1480982D1*
X2039795D2*
X2045474D1*
X2091932D2*
X2215091D1*
X2259815D2*
X2315098D1*
X397301Y867549D2*
X834353D1*
X878045D2*
X1099454D1*
X1137955D2*
X1255701D1*
X1294201D2*
X1373861D1*
X1439408D2*
X1487602D1*
X1512299D2*
X1961614D1*
X2039795D2*
X2045017D1*
X2092388D2*
X2218197D1*
X2256697D2*
X2315098D1*
X397301Y861680D2*
X834353D1*
X878045D2*
X1102865D1*
X1134545D2*
X1261970D1*
X1287932D2*
X1373861D1*
X1433537D2*
X1963747D1*
X2039795D2*
X2046083D1*
X2091323D2*
X2224478D1*
X2250428D2*
X2315098D1*
X397301Y855811D2*
X834353D1*
X878045D2*
X1102865D1*
X1134545D2*
X1373861D1*
X1427667D2*
X1964709D1*
X2039795D2*
X2048919D1*
X2088487D2*
X2315098D1*
X397301Y849942D2*
X834353D1*
X880612D2*
X1102865D1*
X1134545D2*
X1373861D1*
X1421795D2*
X1967415D1*
X2039795D2*
X2054591D1*
X2082803D2*
X2315098D1*
X397301Y844073D2*
X834353D1*
X886483D2*
X1102865D1*
X1134545D2*
X1373861D1*
X1414835D2*
X1972829D1*
X2002072D2*
X2010106D1*
X2039795D2*
X2315098D1*
X397301Y838205D2*
X835079D1*
X1791076D2*
X2010106D1*
X2039795D2*
X2315098D1*
X397301Y832336D2*
X837646D1*
X1797345D2*
X2010106D1*
X2044552D2*
X2315098D1*
X397301Y826467D2*
X840400D1*
X1800451D2*
X2010915D1*
X2050424D2*
X2315098D1*
X397301Y820598D2*
X834529D1*
X1801717D2*
X2014818D1*
X2056295D2*
X2315098D1*
X397301Y814730D2*
X828657D1*
X1801448D2*
X2020689D1*
X2062167D2*
X2315098D1*
X397301Y808861D2*
X822798D1*
X1799596D2*
X2026549D1*
X2068025D2*
X2315098D1*
X397301Y802992D2*
X816927D1*
X1795635D2*
X2032419D1*
X2073896D2*
X2315098D1*
X397301Y797123D2*
X811056D1*
X858193D2*
X1769193D1*
X1786963D2*
X2038290D1*
X2079768D2*
X2315098D1*
X397301Y791255D2*
X805185D1*
X852323D2*
X1700545D1*
X1711857D2*
X2044161D1*
X2085639D2*
X2315098D1*
X397301Y785386D2*
X799314D1*
X846451D2*
X1689610D1*
X1722791D2*
X2050033D1*
X2091509D2*
X2315098D1*
X397301Y779517D2*
X474705D1*
X537697D2*
X724713D1*
X787693D2*
X793454D1*
X887689D2*
X1685169D1*
X1727232D2*
X2055892D1*
X2097369D2*
X2315098D1*
X397301Y773648D2*
X474705D1*
X537697D2*
X724713D1*
X887689D2*
X1683025D1*
X1729377D2*
X2061762D1*
X2103240D2*
X2315098D1*
X397301Y767780D2*
X474705D1*
X537697D2*
X706478D1*
X887689D2*
X1682509D1*
X1729892D2*
X2067634D1*
X2109112D2*
X2315098D1*
X397301Y761911D2*
X474705D1*
X537697D2*
X697724D1*
X887689D2*
X1683505D1*
X1728896D2*
X2073505D1*
X2114983D2*
X2315098D1*
X397301Y756042D2*
X474705D1*
X537697D2*
X691853D1*
X887689D2*
X1686259D1*
X1726143D2*
X2079377D1*
X2119669D2*
X2315098D1*
X397301Y750173D2*
X474705D1*
X537697D2*
X685982D1*
X888873D2*
X1691357D1*
X1721045D2*
X2085235D1*
X2121041D2*
X2315098D1*
X397301Y744304D2*
X474705D1*
X537697D2*
X680110D1*
X892167D2*
X1691357D1*
X1721045D2*
X2091106D1*
X2121041D2*
X2315098D1*
X397301Y738436D2*
X474705D1*
X537697D2*
X674239D1*
X892681D2*
X1691357D1*
X1721045D2*
X2091365D1*
X2121041D2*
X2315098D1*
X397301Y732567D2*
X474705D1*
X537697D2*
X668381D1*
X892681D2*
X1691357D1*
X1721045D2*
X2091365D1*
X2121041D2*
X2315098D1*
X397301Y726698D2*
X662509D1*
X892681D2*
X1691357D1*
X1721045D2*
X2091365D1*
X2121041D2*
X2315098D1*
X397301Y720829D2*
X656638D1*
X892681D2*
X1691357D1*
X1721045D2*
X2091365D1*
X2121041D2*
X2315098D1*
X397301Y714961D2*
X474705D1*
X537697D2*
X650766D1*
X892681D2*
X1691357D1*
X1721045D2*
X2091365D1*
X2121041D2*
X2315098D1*
X397301Y709092D2*
X474705D1*
X537697D2*
X644896D1*
X892681D2*
X1691357D1*
X1721045D2*
X2091365D1*
X2121041D2*
X2315098D1*
X397301Y703223D2*
X474705D1*
X537697D2*
X639037D1*
X892681D2*
X1691357D1*
X1721045D2*
X2091365D1*
X2121041D2*
X2315098D1*
X397301Y697354D2*
X474705D1*
X537697D2*
X633165D1*
X892681D2*
X1691357D1*
X1721045D2*
X2091365D1*
X2121041D2*
X2315098D1*
X397301Y691486D2*
X474705D1*
X537697D2*
X627294D1*
X892681D2*
X1691357D1*
X1721045D2*
X2091365D1*
X2121041D2*
X2315098D1*
X397301Y685617D2*
X474705D1*
X537697D2*
X621423D1*
X892681D2*
X1691357D1*
X1721045D2*
X2091365D1*
X2121041D2*
X2315098D1*
X397301Y679748D2*
X474705D1*
X537697D2*
X615552D1*
X892681D2*
X1691357D1*
X1721045D2*
X2091365D1*
X2121041D2*
X2315098D1*
X397301Y673879D2*
X474705D1*
X537697D2*
X609693D1*
X892681D2*
X1690642D1*
X1721045D2*
X2091365D1*
X2121041D2*
X2315098D1*
X397301Y668010D2*
X474705D1*
X537697D2*
X603822D1*
X892659D2*
X1684770D1*
X1721021D2*
X2091365D1*
X2121041D2*
X2315098D1*
X397301Y662142D2*
X474705D1*
X537697D2*
X597950D1*
X891041D2*
X1678900D1*
X1719440D2*
X2091365D1*
X2121041D2*
X2315098D1*
X397301Y656273D2*
X491357D1*
X521045D2*
X592079D1*
X885123D2*
X1673041D1*
X1714505D2*
X2091365D1*
X2121041D2*
X2315098D1*
X397301Y650404D2*
X491357D1*
X839549D2*
X1667169D1*
X1708647D2*
X2091365D1*
X2121041D2*
X2315098D1*
X397301Y644535D2*
X491357D1*
X833689D2*
X1661298D1*
X1702776D2*
X2091365D1*
X2121041D2*
X2315098D1*
X397301Y638667D2*
X491357D1*
X827819D2*
X1655427D1*
X1696904D2*
X2091365D1*
X2121041D2*
X2315098D1*
X397301Y632798D2*
X491357D1*
X821948D2*
X1649556D1*
X1691033D2*
X2091365D1*
X2121041D2*
X2315098D1*
X397301Y626929D2*
X491357D1*
X821045D2*
X1643697D1*
X1685163D2*
X2091365D1*
X2121041D2*
X2315098D1*
X397301Y621060D2*
X491357D1*
X821045D2*
X1637825D1*
X1679303D2*
X2091365D1*
X2121041D2*
X2315098D1*
X397301Y615192D2*
X491357D1*
X821045D2*
X1631954D1*
X1673432D2*
X2091365D1*
X2121041D2*
X2315098D1*
X397301Y609323D2*
X491357D1*
X821045D2*
X1626083D1*
X1667560D2*
X2091365D1*
X2121041D2*
X2315098D1*
X397301Y603454D2*
X491357D1*
X821045D2*
X1620213D1*
X1661689D2*
X2091365D1*
X2121041D2*
X2315098D1*
X397301Y597585D2*
X491357D1*
X821045D2*
X1614341D1*
X1655819D2*
X2091365D1*
X2121041D2*
X2315098D1*
X397301Y591717D2*
X491357D1*
X821045D2*
X1353470D1*
X1358927D2*
X1608482D1*
X1649959D2*
X2091365D1*
X2121041D2*
X2315098D1*
X397301Y585848D2*
X491357D1*
X821045D2*
X1340098D1*
X1372295D2*
X1602610D1*
X1644088D2*
X2091365D1*
X2121041D2*
X2315098D1*
X397301Y579979D2*
X491357D1*
X821045D2*
X1335423D1*
X1638217D2*
X2091365D1*
X2121041D2*
X2315098D1*
X397301Y574110D2*
X491357D1*
X821045D2*
X1333126D1*
X1632345D2*
X2091365D1*
X2121041D2*
X2315098D1*
X397301Y568241D2*
X491357D1*
X821045D2*
X1332493D1*
X1626475D2*
X2091365D1*
X2121041D2*
X2315098D1*
X397301Y562373D2*
X491357D1*
X821045D2*
X1333373D1*
X1620615D2*
X2091365D1*
X2121041D2*
X2315098D1*
X397301Y556504D2*
X491357D1*
X821045D2*
X1335962D1*
X1614147D2*
X2091365D1*
X2121041D2*
X2315098D1*
X397301Y550635D2*
X489270D1*
X823131D2*
X1341177D1*
X1371217D2*
X2091365D1*
X2121041D2*
X2315098D1*
X397301Y544766D2*
X483400D1*
X829001D2*
X2091365D1*
X2121041D2*
X2315098D1*
X397301Y538898D2*
X426259D1*
X834861D2*
X2091365D1*
X2121041D2*
X2315098D1*
X397301Y533029D2*
X416041D1*
X870663D2*
X2091365D1*
X2121041D2*
X2315098D1*
X397301Y527160D2*
X413650D1*
X880940D2*
X2091365D1*
X2121041D2*
X2315098D1*
X397301Y521291D2*
X413474D1*
X886869D2*
X2091365D1*
X2124345D2*
X2315098D1*
X397301Y515423D2*
X413474D1*
X890819D2*
X2091739D1*
X2130217D2*
X2315098D1*
X397301Y509554D2*
X413474D1*
X893420D2*
X2094693D1*
X2136088D2*
X2315098D1*
X397301Y503685D2*
X413474D1*
X894955D2*
X2100482D1*
X2147549D2*
X2315098D1*
X397301Y497816D2*
X413474D1*
X895552D2*
X2106341D1*
X2153689D2*
X2315098D1*
X397301Y491948D2*
X413474D1*
X895260D2*
X2111907D1*
X2156748D2*
X2315098D1*
X397301Y486079D2*
X413474D1*
X894052D2*
X2110677D1*
X2157979D2*
X2315098D1*
X397301Y480210D2*
X413474D1*
X891827D2*
X2110982D1*
X2157673D2*
X2315098D1*
X397301Y474341D2*
X413474D1*
X888381D2*
X2112881D1*
X2155776D2*
X2315098D1*
X397301Y468472D2*
X413474D1*
X883236D2*
X2116900D1*
X2151744D2*
X2315098D1*
X397301Y462604D2*
X414869D1*
X875021D2*
X2125829D1*
X2142827D2*
X2315098D1*
X397301Y456735D2*
X420213D1*
X864064D2*
X2315098D1*
X397301Y450866D2*
X2315098D1*
X397301Y444997D2*
X2315098D1*
X397301Y439129D2*
X2315098D1*
X397301Y433260D2*
X2315098D1*
X397301Y427391D2*
X2315098D1*
X397301Y421522D2*
X2315098D1*
X401596Y415654D2*
X2310810D1*
X407455Y409785D2*
X2304938D1*
X413327Y403916D2*
X2299067D1*
X419197Y398047D2*
X2293209D1*
X1019843Y1107001D2*
X1078630D1*
Y1049151D1*
X1016843D1*
Y1055046D1*
X1013304Y1055601D1*
X1009856Y1056722D1*
X1006623Y1058369D1*
X1003689Y1060500D1*
X1001125Y1063064D1*
X998993Y1065999D1*
X997346Y1069231D1*
X996226Y1072680D1*
X995657Y1076262D1*
Y1079890D1*
X996226Y1083472D1*
X997346Y1086921D1*
X998993Y1090154D1*
X1001125Y1093088D1*
X1003689Y1095652D1*
X1006623Y1097783D1*
X1009856Y1099430D1*
X1013304Y1100551D1*
X1016839Y1101113D1*
X1016843Y1107001D1*
X1019843D1*
X1084371D2*
X1145559D1*
Y1049151D1*
X1083772D1*
Y1107001D1*
X1084371D1*
X1239651Y941130D2*
X1292093D1*
X1292085Y946283D1*
X1236651Y946272D1*
Y1008059D1*
X1292083D1*
X1292085Y1289697D1*
X1285127Y1296643D1*
X1285126Y1296272D1*
X1227276D1*
Y1358059D1*
X1233171D1*
X1233726Y1361597D1*
X1234846Y1365046D1*
X1236493Y1368278D1*
X1238625Y1371213D1*
X1241189Y1373777D1*
X1244123Y1375908D1*
X1247356Y1377555D1*
X1250804Y1378676D1*
X1254387Y1379244D1*
X1258014D1*
X1261597Y1378676D1*
X1265046Y1377555D1*
X1268278Y1375908D1*
X1271213Y1373777D1*
X1273777Y1371213D1*
X1275908Y1368278D1*
X1277555Y1365046D1*
X1278676Y1361597D1*
X1279238Y1358063D1*
X1285126Y1358059D1*
Y1341735D1*
X1287798Y1340879D1*
X1290209Y1339651D1*
X1292398Y1338060D1*
X1299756Y1330778D1*
X1322434Y1308024D1*
X1324025Y1305835D1*
X1325253Y1303424D1*
X1326089Y1300852D1*
X1326512Y1298180D1*
X1326566Y1287827D1*
Y1203955D1*
X1335214Y1195319D1*
X1480314Y1195316D1*
X1488957Y1203965D1*
X1488961Y1206471D1*
X1465461Y1206461D1*
Y1263542D1*
X1462689Y1260777D1*
X1462613Y1244845D1*
X1462379Y1242877D1*
X1461992Y1240933D1*
X1461455Y1239026D1*
X1460769Y1237167D1*
X1459940Y1235366D1*
X1458971Y1233638D1*
X1457870Y1231990D1*
X1456643Y1230433D1*
X1455298Y1228978D1*
X1453843Y1227633D1*
X1452286Y1226406D1*
X1450638Y1225304D1*
X1448909Y1224336D1*
X1447109Y1223507D1*
X1445249Y1222820D1*
X1443343Y1222283D1*
X1441399Y1221896D1*
X1439430Y1221663D1*
X1437450Y1221585D1*
X1435470Y1221663D1*
X1433501Y1221896D1*
X1431558Y1222283D1*
X1429651Y1222820D1*
X1427791Y1223507D1*
X1425991Y1224336D1*
X1424262Y1225304D1*
X1422614Y1226406D1*
X1421058Y1227633D1*
X1419602Y1228978D1*
X1418257Y1230433D1*
X1417030Y1231990D1*
X1415929Y1233638D1*
X1414961Y1235366D1*
X1414131Y1237167D1*
X1413445Y1239026D1*
X1412908Y1240933D1*
X1412521Y1242877D1*
X1412287Y1244845D1*
X1412210Y1249825D1*
Y1299950D1*
X1412287Y1301930D1*
X1412521Y1303899D1*
X1412907Y1305843D1*
X1413445Y1307749D1*
X1414131Y1309609D1*
X1414961Y1311409D1*
X1415929Y1313138D1*
X1417030Y1314786D1*
X1418257Y1316343D1*
X1419602Y1317798D1*
X1421058Y1319143D1*
X1422614Y1320370D1*
X1424262Y1321471D1*
X1425991Y1322440D1*
X1427791Y1323269D1*
X1429651Y1323955D1*
X1431558Y1324493D1*
X1433501Y1324879D1*
X1435470Y1325113D1*
X1440450Y1325190D1*
X1465471D1*
X1465461Y1330941D1*
X1546941D1*
Y1206461D1*
X1523445D1*
X1523387Y1195474D1*
X1522965Y1192802D1*
X1522129Y1190230D1*
X1520900Y1187819D1*
X1519310Y1185630D1*
X1512028Y1178272D1*
X1498647Y1164967D1*
X1496458Y1163377D1*
X1494047Y1162148D1*
X1491475Y1161312D1*
X1488803Y1160890D1*
X1478450Y1160836D1*
X1338353D1*
X1326570Y1149062D1*
X1326512Y929848D1*
X1326089Y927176D1*
X1325253Y924604D1*
X1324025Y922193D1*
X1322434Y920004D1*
X1315152Y912646D1*
X1299558Y897127D1*
X1297369Y895537D1*
X1294954Y894307D1*
X1294657Y893278D1*
X1296304Y890046D1*
X1297425Y886597D1*
X1297993Y883014D1*
Y879387D1*
X1297425Y875804D1*
X1296304Y872356D1*
X1294657Y869123D1*
X1292526Y866189D1*
X1289962Y863625D1*
X1287028Y861493D1*
X1283795Y859846D1*
X1280346Y858726D1*
X1276764Y858157D1*
X1273136D1*
X1269554Y858726D1*
X1266105Y859846D1*
X1262873Y861493D1*
X1259938Y863625D1*
X1257374Y866189D1*
X1255243Y869123D1*
X1253596Y872356D1*
X1252475Y875804D1*
X1251913Y879339D1*
X1236651Y879343D1*
Y941130D1*
X1239651D1*
X1433647Y1153875D2*
X1492434D1*
Y1141769D1*
X1495514Y1141744D1*
X1499097Y1141176D1*
X1502546Y1140055D1*
X1505778Y1138408D1*
X1508713Y1136277D1*
X1511277Y1133713D1*
X1513408Y1130778D1*
X1515055Y1127546D1*
X1516176Y1124097D1*
X1516744Y1120514D1*
Y1116887D1*
X1516176Y1113304D1*
X1515055Y1109856D1*
X1513408Y1106623D1*
X1511277Y1103689D1*
X1508713Y1101125D1*
X1505778Y1098993D1*
X1502546Y1097346D1*
X1499097Y1096226D1*
X1495514Y1095657D1*
X1491887D1*
X1489314Y1096025D1*
X1430647D1*
Y1153875D1*
X1433647D1*
X1364318D2*
X1425505D1*
Y1096025D1*
X1363718D1*
Y1153875D1*
X1364318D1*
X1227875Y1291130D2*
X1285126D1*
Y1229343D1*
X1227276D1*
Y1291130D1*
X1227875D1*
X1019843Y1188251D2*
X1021846D1*
X1020697Y1191781D1*
X1020129Y1195364D1*
X1020110Y1195853D1*
X999773Y1216196D1*
X888652Y1216203D1*
X877448Y1205005D1*
X877449Y852503D1*
X889999Y839953D1*
X1101877Y839949D1*
X1103466Y841534D1*
X1103461Y863829D1*
X1101125Y866189D1*
X1098993Y869123D1*
X1097346Y872356D1*
X1096226Y875804D1*
X1095664Y879339D1*
X1089776Y879343D1*
Y941130D1*
X1147626D1*
Y879343D1*
X1141731D1*
X1141176Y875804D1*
X1140055Y872356D1*
X1138408Y869123D1*
X1136277Y866189D1*
X1133936Y863832D1*
X1133941Y840314D1*
X1136701Y839949D1*
X1374462D1*
X1374461Y868400D1*
X1373106Y870707D1*
X1371718Y874058D1*
X1370871Y877585D1*
X1370664Y879339D1*
X1364776Y879343D1*
Y941130D1*
X1422626D1*
Y900126D1*
X1473335Y950841D1*
X1473336Y1014776D1*
X1430647D1*
Y1072626D1*
X1492434D1*
Y1063004D1*
X1495972Y1062436D1*
X1499421Y1061315D1*
X1502654Y1059668D1*
X1505588Y1057537D1*
X1508152Y1054972D1*
X1510283Y1052038D1*
X1511930Y1048806D1*
X1513051Y1045357D1*
X1513619Y1041774D1*
Y1038147D1*
X1513051Y1034564D1*
X1511930Y1031115D1*
X1510283Y1027883D1*
X1508152Y1024949D1*
X1507820Y1024591D1*
X1507762Y942348D1*
X1507340Y939676D1*
X1506504Y937104D1*
X1505276Y934693D1*
X1503685Y932504D1*
X1496403Y925146D1*
X1417398Y846217D1*
X1415209Y844626D1*
X1414022Y843962D1*
X1412941Y842201D1*
Y839940D1*
X1768970Y839949D1*
X1770933Y840684D1*
X1774461Y841530D1*
X1778076Y841815D1*
X1781692Y841530D1*
X1785219Y840684D1*
X1788570Y839295D1*
X1791663Y837400D1*
X1794420Y835045D1*
X1796776Y832287D1*
X1798671Y829194D1*
X1800059Y825844D1*
X1800906Y822316D1*
X1801190Y818701D1*
X1800906Y815085D1*
X1800059Y811558D1*
X1798671Y808207D1*
X1796776Y805114D1*
X1794420Y802357D1*
X1791663Y800001D1*
X1788570Y798106D1*
X1785219Y796718D1*
X1781692Y795871D1*
X1778076Y795587D1*
X1774461Y795871D1*
X1770933Y796718D1*
X1769005Y797450D1*
X881201Y797453D1*
X877877Y797714D1*
X874635Y798492D1*
X871554Y799769D1*
X868711Y801510D1*
X866176Y803676D1*
X865157Y804696D1*
X841562Y781094D1*
X887094Y781091D1*
X887168Y751222D1*
X888722Y749668D1*
X890013Y747891D1*
X891010Y745934D1*
X891689Y743844D1*
X892033Y741675D1*
X892076Y728576D1*
X892033Y667602D1*
X891689Y665433D1*
X891010Y663344D1*
X890013Y661386D1*
X888722Y659609D1*
X887165Y658052D1*
X887094Y656311D1*
X884598D1*
X882403Y655386D1*
X880266Y654873D1*
X878076Y654701D1*
X843260D1*
X820445Y631895D1*
X820441Y552720D1*
X840773Y532392D1*
X844689Y533844D1*
X847585Y534623D1*
X850533Y535177D1*
X853516Y535500D1*
X856513Y535592D1*
X859509Y535451D1*
X862486Y535080D1*
X865424Y534480D1*
X868307Y533655D1*
X871118Y532608D1*
X873840Y531348D1*
X876455Y529881D1*
X878950Y528217D1*
X881308Y526364D1*
X883517Y524335D1*
X885562Y522140D1*
X887432Y519794D1*
X889114Y517311D1*
X890598Y514706D1*
X891878Y511993D1*
X892944Y509189D1*
X893790Y506312D1*
X894411Y503378D1*
X894803Y500404D1*
X894969Y496825D1*
X894852Y493828D1*
X894505Y490849D1*
X893928Y487906D1*
X893126Y485016D1*
X892102Y482197D1*
X890864Y479466D1*
X889419Y476837D1*
X887774Y474329D1*
X885940Y471955D1*
X883929Y469731D1*
X881751Y467669D1*
X879420Y465781D1*
X876951Y464079D1*
X874357Y462572D1*
X871655Y461272D1*
X868860Y460184D1*
X866808Y459562D1*
X865293Y458055D1*
X863516Y456764D1*
X861558Y455766D1*
X859469Y455088D1*
X857299Y454744D1*
X844201Y454701D1*
X426978Y454744D1*
X424808Y455088D1*
X422719Y455766D1*
X420761Y456764D1*
X418984Y458055D1*
X417430Y459609D1*
X416139Y461386D1*
X415142Y463343D1*
X414463Y465433D1*
X414119Y467602D1*
X414076Y480701D1*
X414119Y526049D1*
X414463Y528218D1*
X415142Y530307D1*
X416139Y532265D1*
X417430Y534042D1*
X418984Y535596D1*
X420761Y536887D1*
X422718Y537885D1*
X424808Y538563D1*
X426978Y538907D1*
X440076Y538950D1*
X478197D1*
X491963Y552727D1*
X491961Y660345D1*
X475307Y660346D1*
Y718197D1*
X537094D1*
Y660346D1*
X520442D1*
X520441Y651455D1*
X587869Y651450D1*
X700058Y763648D1*
X701995Y765304D1*
X704168Y766635D1*
X706522Y767610D1*
X709000Y768206D1*
X711546Y768406D1*
X725310D1*
X725307Y781091D1*
X787094D1*
Y772571D1*
X842190Y827657D1*
X840043Y829902D1*
X838084Y832598D1*
X836570Y835570D1*
X835539Y838740D1*
X835018Y842034D1*
X834953Y849701D1*
Y1228650D1*
X767745Y1295870D1*
X765580Y1298404D1*
X763839Y1301245D1*
X763138Y1302766D1*
X761962Y1304041D1*
X752710Y1312206D1*
X706201Y1312211D1*
X704220Y1312289D1*
X702252Y1312522D1*
X700308Y1312908D1*
X698402Y1313446D1*
X696542Y1314133D1*
X694741Y1314962D1*
X693013Y1315930D1*
X691365Y1317031D1*
X689808Y1318259D1*
X688353Y1319604D1*
X687008Y1321059D1*
X685781Y1322615D1*
X684680Y1324264D1*
X683711Y1325992D1*
X682882Y1327793D1*
X682196Y1329652D1*
X681657Y1331559D1*
X681272Y1333503D1*
X681038Y1335471D1*
X680961Y1337451D1*
X681038Y1339432D1*
X681272Y1341400D1*
X681657Y1343344D1*
X682196Y1345251D1*
X682882Y1347110D1*
X683711Y1348911D1*
X684680Y1350639D1*
X685781Y1352287D1*
X687008Y1353844D1*
X688353Y1355299D1*
X689808Y1356644D1*
X691365Y1357871D1*
X693013Y1358972D1*
X694741Y1359941D1*
X696542Y1360770D1*
X698402Y1361457D1*
X700308Y1361995D1*
X702252Y1362381D1*
X704220Y1362614D1*
X709201Y1362692D1*
X806201D1*
X808181Y1362614D1*
X810150Y1362381D1*
X812093Y1361995D1*
X814000Y1361457D1*
X815860Y1360770D1*
X817660Y1359941D1*
X819388Y1358972D1*
X821037Y1357871D1*
X822593Y1356644D1*
X824049Y1355299D1*
X825394Y1353844D1*
X826621Y1352287D1*
X827722Y1350639D1*
X828690Y1348911D1*
X829520Y1347110D1*
X830206Y1345251D1*
X830744Y1343344D1*
X831130Y1341400D1*
X831364Y1339432D1*
X831441Y1337451D1*
X831364Y1335471D1*
X831130Y1333503D1*
X830744Y1331559D1*
X830206Y1329652D1*
X829520Y1327793D1*
X828690Y1325992D1*
X827718Y1324257D1*
X827441Y1322451D1*
X827442Y1296238D1*
X864999Y1258692D1*
X994096Y1258699D1*
X1070526Y1335035D1*
X1073223Y1336995D1*
X1076194Y1338508D1*
X1079365Y1339539D1*
X1082659Y1340060D1*
X1090325Y1340126D1*
X1108525D1*
Y1358059D1*
X1114420D1*
X1114975Y1361597D1*
X1116096Y1365046D1*
X1117743Y1368278D1*
X1119874Y1371213D1*
X1122438Y1373777D1*
X1125373Y1375908D1*
X1128605Y1377555D1*
X1132054Y1378676D1*
X1135636Y1379244D1*
X1136126Y1379262D1*
X1179382Y1422438D1*
X1179201Y1423211D1*
X1087029Y1423139D1*
X988235Y1324408D1*
X986428Y1323094D1*
X984436Y1322080D1*
X982311Y1321390D1*
X980104Y1321041D1*
X966987Y1320996D1*
X893147D1*
X891295Y1318892D1*
X888538Y1316537D1*
X885445Y1314642D1*
X882094Y1313253D1*
X878567Y1312407D1*
X874951Y1312122D1*
X871336Y1312407D1*
X867808Y1313253D1*
X864458Y1314642D1*
X861365Y1316537D1*
X858608Y1318892D1*
X856252Y1321650D1*
X854357Y1324743D1*
X852969Y1328093D1*
X852122Y1331621D1*
X851837Y1335236D1*
X852122Y1338852D1*
X852969Y1342379D1*
X854357Y1345730D1*
X856252Y1348823D1*
X858608Y1351580D1*
X861365Y1353936D1*
X864458Y1355831D1*
X867808Y1357219D1*
X871336Y1358066D1*
X874951Y1358350D1*
X878567Y1358066D1*
X882094Y1357219D1*
X885445Y1355831D1*
X888538Y1353936D1*
X891295Y1351580D1*
X893138Y1349474D1*
X973096Y1349476D1*
X1071954Y1448280D1*
X1073761Y1449593D1*
X1075753Y1450608D1*
X1077878Y1451298D1*
X1080085Y1451647D1*
X1093202Y1451692D1*
X1350374Y1451764D1*
X1383726Y1485180D1*
X1383157Y1488762D1*
Y1492390D1*
X1383445Y1494560D1*
X1365449Y1476622D1*
X1363642Y1475308D1*
X1361650Y1474294D1*
X1359525Y1473604D1*
X1357318Y1473255D1*
X1344201Y1473210D1*
X1273835Y1473255D1*
X1271627Y1473604D1*
X1269503Y1474294D1*
X1267510Y1475308D1*
X1265703Y1476622D1*
X1256396Y1485866D1*
X1252560Y1489703D1*
X1249126Y1489993D1*
X1245598Y1490840D1*
X1242248Y1492228D1*
X1239155Y1494123D1*
X1236398Y1496479D1*
X1234042Y1499236D1*
X1232147Y1502329D1*
X1230759Y1505680D1*
X1229912Y1509207D1*
X1229627Y1512823D1*
X1229912Y1516438D1*
X1230759Y1519966D1*
X1232147Y1523316D1*
X1234042Y1526409D1*
X1236398Y1529167D1*
X1236715Y1529461D1*
X612028Y1529388D1*
X582941Y1500201D1*
X582898Y1280084D1*
X582547Y1277877D1*
X581857Y1275752D1*
X580843Y1273760D1*
X579529Y1271953D1*
X570285Y1262646D1*
X484199Y1176623D1*
X482392Y1175310D1*
X480400Y1174295D1*
X478276Y1173605D1*
X476068Y1173255D1*
X474377Y1173211D1*
X472528Y1171125D1*
X469773Y1168772D1*
X466684Y1166878D1*
X463336Y1165492D1*
X459812Y1164646D1*
X456201Y1164362D1*
X452589Y1164646D1*
X449066Y1165492D1*
X445718Y1166878D1*
X442629Y1168772D1*
X439874Y1171125D1*
X437521Y1173879D1*
X435627Y1176969D1*
X434241Y1180316D1*
X433395Y1183840D1*
X433112Y1187451D1*
X433395Y1191063D1*
X434241Y1194587D1*
X435627Y1197934D1*
X437521Y1201024D1*
X439874Y1203778D1*
X442629Y1206131D1*
X445718Y1208025D1*
X449066Y1209411D1*
X452589Y1210257D1*
X456201Y1210541D1*
X459812Y1210257D1*
X463336Y1209411D1*
X466684Y1208025D1*
X469773Y1206131D1*
X471804Y1204446D1*
X490579Y1223217D1*
X474378Y1223211D1*
X472528Y1221125D1*
X469773Y1218772D1*
X466684Y1216878D1*
X463336Y1215492D1*
X459812Y1214646D1*
X456201Y1214362D1*
X452589Y1214646D1*
X449066Y1215492D1*
X445718Y1216878D1*
X442629Y1218772D1*
X439874Y1221125D1*
X437521Y1223879D1*
X435627Y1226969D1*
X434241Y1230316D1*
X433395Y1233840D1*
X433112Y1237451D1*
X433395Y1241063D1*
X434241Y1244587D1*
X435627Y1247934D1*
X437521Y1251024D1*
X439874Y1253778D1*
X442629Y1256131D1*
X445718Y1258025D1*
X449066Y1259411D1*
X452589Y1260257D1*
X456201Y1260541D1*
X459812Y1260257D1*
X463336Y1259411D1*
X466684Y1258025D1*
X469773Y1256131D1*
X472528Y1253778D1*
X474350Y1251697D1*
X487806Y1251692D1*
X529465Y1293353D1*
X529461Y1294727D1*
X526877Y1291776D1*
X525190Y1290217D1*
X523387Y1288795D1*
X521479Y1287520D1*
X519475Y1286399D1*
X517391Y1285437D1*
X515236Y1284643D1*
X513018Y1284017D1*
X508979Y1281269D1*
X506975Y1280148D1*
X504891Y1279186D1*
X502736Y1278392D1*
X500526Y1277769D1*
X498274Y1277320D1*
X495995Y1277051D1*
X493701Y1276961D1*
X491407Y1277051D1*
X489127Y1277320D1*
X486875Y1277769D1*
X484665Y1278392D1*
X482510Y1279186D1*
X480427Y1280148D1*
X478423Y1281269D1*
X476514Y1282545D1*
X474711Y1283966D1*
X470904Y1287646D1*
X448025Y1310525D1*
X446466Y1312211D1*
X445045Y1314014D1*
X443769Y1315923D1*
X442647Y1317927D1*
X441686Y1320010D1*
X440892Y1322165D1*
X440269Y1324375D1*
X439820Y1326626D1*
X439551Y1328907D1*
X439461Y1331201D1*
X439551Y1333495D1*
X439820Y1335776D1*
X440269Y1338026D1*
X440892Y1340236D1*
X441686Y1342391D1*
X442647Y1344475D1*
X443769Y1346479D1*
X445045Y1348387D1*
X446466Y1350190D1*
X450146Y1353997D1*
X479276Y1383127D1*
X480955Y1384680D1*
X480961Y1482798D1*
X478843Y1480759D1*
X475190Y1477717D1*
X473387Y1476295D1*
X471479Y1475020D1*
X469475Y1473898D1*
X467391Y1472937D1*
X465236Y1472142D1*
X463026Y1471518D1*
X460776Y1471071D1*
X458495Y1470801D1*
X453201Y1470711D1*
X441407Y1470801D1*
X439126Y1471071D1*
X436875Y1471518D1*
X434665Y1472142D1*
X432510Y1472937D1*
X430427Y1473898D1*
X428423Y1475020D1*
X426514Y1476295D1*
X422615Y1479531D1*
X421059Y1480759D1*
X417482Y1484224D1*
X400148Y1501587D1*
X398864Y1503096D1*
X397696Y1504706D1*
X396701Y1505701D1*
Y419948D1*
X419944Y396701D1*
X2292448D1*
X2315701Y419944D1*
Y1642454D1*
X2292458Y1665701D1*
X2113736D1*
X2117391Y1664465D1*
X2119475Y1663503D1*
X2121479Y1662382D1*
X2123387Y1661106D1*
X2125190Y1659685D1*
X2126877Y1658126D1*
X2128436Y1656440D1*
X2129857Y1654636D1*
X2131133Y1652728D1*
X2132253Y1650724D1*
X2133215Y1648640D1*
X2134009Y1646486D1*
X2134633Y1644276D1*
X2135081Y1642025D1*
X2135350Y1639744D1*
X2135441Y1637450D1*
X2135350Y1635156D1*
X2135081Y1632875D1*
X2134633Y1630625D1*
X2134009Y1628415D1*
X2133215Y1626260D1*
X2132253Y1624176D1*
X2131133Y1622172D1*
X2129857Y1620264D1*
X2128436Y1618461D1*
X2126877Y1616774D1*
X2125190Y1615215D1*
X2123387Y1613794D1*
X2121479Y1612518D1*
X2119475Y1611398D1*
X2117391Y1610436D1*
X2115236Y1609642D1*
X2113026Y1609018D1*
X2110776Y1608570D1*
X2108495Y1608301D1*
X2103201Y1608210D1*
X2031202D1*
X2028908Y1608301D1*
X2026627Y1608570D1*
X2024377Y1609018D1*
X2022167Y1609642D1*
X2020012Y1610436D1*
X2017928Y1611398D1*
X2015924Y1612518D1*
X2014016Y1613794D1*
X2012213Y1615215D1*
X2010526Y1616774D1*
X2008962Y1618467D1*
X1967119Y1618461D1*
X1982358Y1603239D1*
X1986140Y1601966D1*
X1988224Y1601004D1*
X1990228Y1599883D1*
X1992136Y1598608D1*
X1993940Y1597186D1*
X1995626Y1595627D1*
X1997185Y1593941D1*
X1998606Y1592138D1*
X1999882Y1590230D1*
X2001003Y1588226D1*
X2001965Y1586142D1*
X2002759Y1583987D1*
X2003382Y1581777D1*
X2003831Y1579526D1*
X2004100Y1577245D1*
X2004190Y1571951D1*
Y1487451D1*
X2004100Y1485157D1*
X2003831Y1482877D1*
X2003382Y1480626D1*
X2002759Y1478416D1*
X2001965Y1476261D1*
X2001003Y1474177D1*
X1999882Y1472173D1*
X1998606Y1470265D1*
X1997185Y1468462D1*
X1995626Y1466776D1*
X1993940Y1465217D1*
X1992136Y1463795D1*
X1990228Y1462520D1*
X1988224Y1461399D1*
X1986140Y1460437D1*
X1983986Y1459643D1*
X1981776Y1459020D1*
X1979525Y1458571D1*
X1977244Y1458302D1*
X1974950Y1458211D1*
X1972656Y1458302D1*
X1970375Y1458571D1*
X1968125Y1459020D1*
X1965915Y1459643D1*
X1963760Y1460437D1*
X1961676Y1461399D1*
X1959672Y1462520D1*
X1957764Y1463795D1*
X1955961Y1465217D1*
X1954274Y1466776D1*
X1952715Y1468462D1*
X1951294Y1470265D1*
X1950018Y1472173D1*
X1948898Y1474177D1*
X1947936Y1476261D1*
X1947142Y1478416D1*
X1946518Y1480626D1*
X1946070Y1482877D1*
X1945801Y1485157D1*
X1945710Y1490451D1*
Y1568487D1*
X1939495Y1574713D1*
X1300955Y1574710D1*
X1302950Y1573278D1*
X1312257Y1564034D1*
X1331390Y1544839D1*
X1332703Y1543031D1*
X1333718Y1541039D1*
X1334408Y1538915D1*
X1334759Y1536707D1*
X1334802Y1530657D1*
X1336906Y1528795D1*
X1339261Y1526038D1*
X1341156Y1522945D1*
X1342545Y1519594D1*
X1343391Y1516067D1*
X1343676Y1512451D1*
X1343391Y1508836D1*
X1342545Y1505308D1*
X1341156Y1501958D1*
X1341008Y1501692D1*
X1350374Y1501762D1*
X1384453Y1535778D1*
X1386260Y1537092D1*
X1388252Y1538106D1*
X1390377Y1538797D1*
X1392584Y1539146D1*
X1405701Y1539190D1*
X1726067Y1539146D1*
X1728274Y1538797D1*
X1730399Y1538106D1*
X1732391Y1537092D1*
X1734198Y1535778D1*
X1743505Y1526534D1*
X1792029Y1477949D1*
X1793343Y1476142D1*
X1794357Y1474151D1*
X1795047Y1472025D1*
X1795396Y1469818D1*
X1795441Y1456701D1*
X1795513Y968278D1*
X1818451Y945441D1*
X2038567Y945396D1*
X2040774Y945047D1*
X2042899Y944357D1*
X2044891Y943343D1*
X2046698Y942029D1*
X2056005Y932785D1*
X2079529Y909198D1*
X2080843Y907391D1*
X2081857Y905399D1*
X2082547Y903274D1*
X2082896Y901067D1*
X2082941Y887950D1*
Y886907D1*
X2085045Y885045D1*
X2087400Y882287D1*
X2089295Y879194D1*
X2090684Y875844D1*
X2091530Y872316D1*
X2091815Y868701D1*
X2091530Y865085D1*
X2090684Y861558D1*
X2089295Y858207D1*
X2087400Y855114D1*
X2085045Y852357D1*
X2082287Y850001D1*
X2079194Y848106D1*
X2075844Y846718D1*
X2072316Y845871D1*
X2068701Y845587D1*
X2065085Y845871D1*
X2061558Y846718D1*
X2058207Y848106D1*
X2055114Y850001D1*
X2052357Y852357D1*
X2050001Y855114D1*
X2048106Y858207D1*
X2046718Y861558D1*
X2045871Y865085D1*
X2045587Y868701D1*
X2045871Y872316D1*
X2046718Y875844D1*
X2048106Y879194D1*
X2050001Y882287D1*
X2052357Y885045D1*
X2054463Y886887D1*
X2054388Y894123D1*
X2031450Y916961D1*
X2006197D1*
X2035780Y887323D1*
X2037093Y885516D1*
X2038108Y883524D1*
X2038798Y881399D1*
X2039148Y879192D1*
X2039192Y866075D1*
X2039264Y837028D1*
X2117029Y759199D1*
X2118343Y757392D1*
X2119357Y755400D1*
X2120047Y753276D1*
X2120398Y751068D1*
X2120441Y737951D1*
X2120513Y524528D1*
X2137941Y507155D1*
X2141469Y506308D1*
X2144819Y504920D1*
X2147912Y503025D1*
X2150669Y500669D1*
X2153025Y497912D1*
X2154920Y494819D1*
X2156308Y491469D1*
X2157155Y487941D1*
X2157440Y484325D1*
X2157155Y480710D1*
X2156308Y477182D1*
X2154920Y473832D1*
X2153025Y470739D1*
X2150669Y467982D1*
X2147912Y465626D1*
X2144819Y463731D1*
X2141469Y462343D1*
X2137941Y461496D1*
X2134325Y461211D1*
X2130710Y461496D1*
X2127182Y462343D1*
X2123832Y463731D1*
X2120739Y465626D1*
X2117982Y467982D1*
X2115626Y470739D1*
X2113731Y473832D1*
X2112343Y477182D1*
X2111496Y480710D1*
X2111211Y484325D1*
X2111496Y487941D1*
X2112343Y491469D1*
X2112600Y492167D1*
X2095373Y509453D1*
X2094059Y511260D1*
X2093045Y513252D1*
X2092354Y515377D1*
X2092004Y517584D1*
X2091961Y530701D1*
X2091888Y744125D1*
X2014123Y821953D1*
X2012810Y823760D1*
X2011795Y825752D1*
X2011105Y827877D1*
X2010755Y830084D1*
X2010711Y843201D1*
X2010639Y872248D1*
X1987701Y895085D1*
X1974962D1*
X1984642Y885398D1*
X1987450Y885566D1*
X1991066Y885281D1*
X1994593Y884434D1*
X1997944Y883046D1*
X2001037Y881151D1*
X2003794Y878795D1*
X2006150Y876038D1*
X2008045Y872945D1*
X2009433Y869594D1*
X2010280Y866067D1*
X2010564Y862451D1*
X2010280Y858836D1*
X2009433Y855308D1*
X2008045Y851958D1*
X2006150Y848865D1*
X2003794Y846108D1*
X2001037Y843752D1*
X1997944Y841857D1*
X1994593Y840469D1*
X1991066Y839622D1*
X1987450Y839337D1*
X1983835Y839622D1*
X1980307Y840469D1*
X1976957Y841857D1*
X1973864Y843752D1*
X1971106Y846108D1*
X1968751Y848865D1*
X1966856Y851958D1*
X1965467Y855308D1*
X1964621Y858836D1*
X1964336Y862451D1*
X1964524Y865244D1*
X1956450Y873211D1*
X1518157D1*
X1516295Y871108D1*
X1513538Y868752D1*
X1510445Y866857D1*
X1507094Y865469D1*
X1503567Y864622D1*
X1499951Y864337D1*
X1496336Y864622D1*
X1492808Y865469D1*
X1489458Y866857D1*
X1486365Y868752D1*
X1483608Y871108D1*
X1481252Y873865D1*
X1479357Y876958D1*
X1477969Y880308D1*
X1477122Y883836D1*
X1476837Y887451D1*
X1477122Y891067D1*
X1477969Y894594D1*
X1479357Y897945D1*
X1481252Y901038D1*
X1483608Y903795D1*
X1486365Y906151D1*
X1489458Y908046D1*
X1492808Y909434D1*
X1496336Y910281D1*
X1499951Y910566D1*
X1503567Y910281D1*
X1507094Y909434D1*
X1510445Y908046D1*
X1513538Y906151D1*
X1516295Y903795D1*
X1518138Y901689D1*
X1634331Y901692D1*
X1620373Y915703D1*
X1619059Y917510D1*
X1618045Y919503D1*
X1617354Y921627D1*
X1617005Y923835D1*
X1616961Y936951D1*
Y1159549D1*
X1614857Y1161412D1*
X1612501Y1164169D1*
X1610606Y1167262D1*
X1609218Y1170613D1*
X1608371Y1174140D1*
X1608087Y1177756D1*
X1608371Y1181371D1*
X1609218Y1184899D1*
X1610606Y1188249D1*
X1612501Y1191343D1*
X1614857Y1194100D1*
X1617614Y1196455D1*
X1620707Y1198350D1*
X1624058Y1199739D1*
X1627585Y1200585D1*
X1631201Y1200870D1*
X1634816Y1200585D1*
X1638344Y1199739D1*
X1641694Y1198350D1*
X1644787Y1196455D1*
X1647545Y1194100D1*
X1649900Y1191343D1*
X1651795Y1188249D1*
X1653184Y1184899D1*
X1654030Y1181371D1*
X1654315Y1177756D1*
X1654030Y1174140D1*
X1653184Y1170613D1*
X1651795Y1167262D1*
X1649900Y1164169D1*
X1647545Y1161412D1*
X1645438Y1159570D1*
X1645441Y930853D1*
X1652730Y923560D1*
X1799955Y923566D1*
X1770373Y953203D1*
X1769059Y955010D1*
X1768045Y957003D1*
X1767354Y959127D1*
X1767005Y961335D1*
X1766961Y974451D1*
X1766888Y1462874D1*
X1718950Y1510710D1*
X1417555D1*
X1419787Y1509276D1*
X1422545Y1506920D1*
X1424900Y1504163D1*
X1426795Y1501070D1*
X1428184Y1497719D1*
X1429030Y1494192D1*
X1429315Y1490576D1*
X1429030Y1486961D1*
X1428184Y1483433D1*
X1426795Y1480083D1*
X1424900Y1476990D1*
X1422545Y1474232D1*
X1419787Y1471877D1*
X1416694Y1469982D1*
X1413344Y1468593D1*
X1409816Y1467747D1*
X1406349Y1467469D1*
X1365449Y1426623D1*
X1363642Y1425310D1*
X1361650Y1424295D1*
X1359525Y1423605D1*
X1357318Y1423256D1*
X1344201Y1423211D1*
X1341424D1*
X1343391Y1421516D1*
X1375559Y1389273D1*
X1377150Y1387084D1*
X1378378Y1384673D1*
X1379214Y1382101D1*
X1379636Y1379429D1*
X1379690Y1369076D1*
Y1358049D1*
X1389412Y1358059D1*
X1389975Y1361597D1*
X1391096Y1365046D1*
X1392743Y1368278D1*
X1394874Y1371213D1*
X1397438Y1373777D1*
X1400373Y1375908D1*
X1403605Y1377555D1*
X1407054Y1378676D1*
X1410636Y1379244D1*
X1414264D1*
X1417846Y1378676D1*
X1421295Y1377555D1*
X1424528Y1375908D1*
X1427462Y1373777D1*
X1430026Y1371213D1*
X1432157Y1368278D1*
X1433804Y1365046D1*
X1434925Y1361597D1*
X1435493Y1358014D1*
Y1354387D1*
X1434925Y1350804D1*
X1433804Y1347356D1*
X1432157Y1344123D1*
X1430026Y1341189D1*
X1427462Y1338625D1*
X1424528Y1336493D1*
X1421295Y1334846D1*
X1417846Y1333726D1*
X1414264Y1333157D1*
X1410941Y1333146D1*
X1393312Y1315576D1*
X1391374Y1314169D1*
X1391375Y1296272D1*
X1333525D1*
Y1358059D1*
X1345209D1*
X1345210Y1370934D1*
X1324066Y1392079D1*
X1197713Y1392085D1*
X1163696Y1358064D1*
X1166375Y1358059D1*
Y1296272D1*
X1108525D1*
Y1297619D1*
X1093127Y1297630D1*
X1037409Y1241912D1*
X1037416Y1227318D1*
X1044472Y1220259D1*
X1046787Y1220007D1*
X1050315Y1219160D1*
X1053665Y1217772D1*
X1056759Y1215877D1*
X1059516Y1213521D1*
X1061871Y1210764D1*
X1063766Y1207671D1*
X1065155Y1204320D1*
X1066001Y1200793D1*
X1066286Y1197177D1*
X1066001Y1193562D1*
X1065155Y1190034D1*
X1064488Y1188248D1*
X1078630Y1188251D1*
Y1130400D1*
X1016843D1*
Y1188251D1*
X1019843D1*
X1084371D2*
X1145559D1*
Y1130400D1*
X1083772D1*
Y1188251D1*
X1084371D1*
X1090375Y1008059D2*
X1147626D1*
Y946272D1*
X1089776D1*
Y1008059D1*
X1090375D1*
X1365375D2*
X1422626D1*
Y946272D1*
X1364776D1*
Y1008059D1*
X1365375D1*
X1364319Y1072626D2*
X1425505D1*
Y1014776D1*
X1363718D1*
Y1072626D1*
X1364319D1*
X1334126Y1291130D2*
X1391375D1*
Y1229343D1*
X1333525D1*
Y1291130D1*
X1334126D1*
X1109126D2*
X1166375D1*
Y1229343D1*
X1108525D1*
Y1291130D1*
X1109126D1*
X2111772Y1497626D2*
X2170559D1*
Y1482942D1*
X2213568Y1482896D1*
X2215776Y1482547D1*
X2217900Y1481857D1*
X2219892Y1480843D1*
X2221699Y1479529D1*
X2231007Y1470285D1*
X2260713Y1440577D1*
X2260710Y1525307D1*
X2231545Y1554469D1*
X2170549Y1554461D1*
X2170559Y1539776D1*
X2108772D1*
Y1597626D1*
X2170559D1*
Y1582942D1*
X2238570Y1582896D1*
X2240776Y1582547D1*
X2242902Y1581857D1*
X2244892Y1580843D1*
X2246699Y1579529D1*
X2256007Y1570285D1*
X2285778Y1540449D1*
X2287092Y1538642D1*
X2288106Y1536650D1*
X2288797Y1534525D1*
X2289146Y1532318D1*
X2289190Y1519201D1*
X2289146Y1117585D1*
X2288797Y1115378D1*
X2288106Y1113253D1*
X2287092Y1111262D1*
X2285778Y1109454D1*
X2276534Y1100147D1*
X2260402Y1084013D1*
X2260564Y1081201D1*
X2260280Y1077585D1*
X2259433Y1074058D1*
X2258045Y1070707D1*
X2256150Y1067614D1*
X2253794Y1064857D1*
X2251037Y1062501D1*
X2247944Y1060606D1*
X2244593Y1059218D1*
X2241066Y1058371D1*
X2237450Y1058087D1*
X2233835Y1058371D1*
X2230307Y1059218D1*
X2229143Y1059647D1*
X2234640Y1054148D1*
X2237450Y1054315D1*
X2241066Y1054030D1*
X2244593Y1053184D1*
X2247944Y1051795D1*
X2251037Y1049900D1*
X2253794Y1047545D1*
X2256150Y1044787D1*
X2258045Y1041694D1*
X2259433Y1038344D1*
X2260280Y1034816D1*
X2260564Y1031201D1*
X2260280Y1027585D1*
X2259433Y1024058D1*
X2258045Y1020707D1*
X2256150Y1017614D1*
X2253794Y1014857D1*
X2251037Y1012501D1*
X2247944Y1010606D1*
X2244593Y1009218D1*
X2241066Y1008371D1*
X2237450Y1008087D1*
X2233835Y1008371D1*
X2230307Y1009218D1*
X2226957Y1010606D1*
X2223864Y1012501D1*
X2221106Y1014857D1*
X2218751Y1017614D1*
X2216856Y1020707D1*
X2215467Y1024058D1*
X2214621Y1027585D1*
X2214336Y1031201D1*
X2214524Y1033993D1*
X2201685Y1046828D1*
X2201690Y1030845D1*
X2229596Y1002944D1*
X2232054Y1003676D1*
X2235636Y1004244D1*
X2239264D1*
X2242846Y1003676D1*
X2246295Y1002555D1*
X2249528Y1000908D1*
X2252462Y998777D1*
X2255026Y996213D1*
X2257157Y993278D1*
X2258804Y990046D1*
X2259925Y986597D1*
X2260493Y983014D1*
Y979387D1*
X2259925Y975804D1*
X2258804Y972356D1*
X2257157Y969123D1*
X2255026Y966189D1*
X2252462Y963625D1*
X2249528Y961493D1*
X2246295Y959846D1*
X2242846Y958726D1*
X2239264Y958157D1*
X2236933Y958108D1*
X2241066Y954030D1*
X2244593Y953184D1*
X2247944Y951795D1*
X2251037Y949900D1*
X2253794Y947545D1*
X2256150Y944787D1*
X2258045Y941694D1*
X2259433Y938344D1*
X2260280Y934816D1*
X2260564Y931201D1*
X2260280Y927585D1*
X2259433Y924058D1*
X2258045Y920707D1*
X2256150Y917614D1*
X2253794Y914857D1*
X2251037Y912501D1*
X2247944Y910606D1*
X2244593Y909218D1*
X2241066Y908371D1*
X2237450Y908087D1*
X2233835Y908371D1*
X2230307Y909218D1*
X2229143Y909647D1*
X2234654Y904135D1*
X2237450Y904315D1*
X2241066Y904030D1*
X2244593Y903184D1*
X2247944Y901795D1*
X2251037Y899900D1*
X2253794Y897545D1*
X2256150Y894787D1*
X2258045Y891694D1*
X2259433Y888344D1*
X2260280Y884816D1*
X2260564Y881201D1*
X2260280Y877585D1*
X2259433Y874058D1*
X2258045Y870707D1*
X2256150Y867614D1*
X2253794Y864857D1*
X2251037Y862501D1*
X2247944Y860606D1*
X2244593Y859218D1*
X2241066Y858371D1*
X2237450Y858087D1*
X2233835Y858371D1*
X2230307Y859218D1*
X2226957Y860606D1*
X2223864Y862501D1*
X2221106Y864857D1*
X2218751Y867614D1*
X2216856Y870707D1*
X2215467Y874058D1*
X2214621Y877585D1*
X2214336Y881201D1*
X2214524Y883993D1*
X2132873Y965702D1*
X2131559Y967509D1*
X2130545Y969501D1*
X2129854Y971626D1*
X2129505Y973833D1*
X2129461Y986950D1*
Y1059314D1*
X2127949Y1057873D1*
X2126142Y1056559D1*
X2124150Y1055545D1*
X2122025Y1054854D1*
X2119818Y1054504D1*
X2106701Y1054461D1*
X1958776D1*
X1956920Y1052357D1*
X1954163Y1050001D1*
X1951070Y1048106D1*
X1947719Y1046718D1*
X1944192Y1045871D1*
X1940576Y1045587D1*
X1936961Y1045871D1*
X1933433Y1046718D1*
X1930083Y1048106D1*
X1926990Y1050001D1*
X1924232Y1052357D1*
X1921877Y1055114D1*
X1919982Y1058207D1*
X1918593Y1061558D1*
X1917747Y1065085D1*
X1917462Y1068701D1*
X1917747Y1072316D1*
X1918593Y1075844D1*
X1919982Y1079194D1*
X1921877Y1082287D1*
X1924232Y1085045D1*
X1926990Y1087400D1*
X1930083Y1089295D1*
X1933433Y1090684D1*
X1936961Y1091530D1*
X1940576Y1091815D1*
X1944192Y1091530D1*
X1947719Y1090684D1*
X1951070Y1089295D1*
X1954163Y1087400D1*
X1956920Y1085045D1*
X1958762Y1082938D1*
X2112807Y1082941D1*
X2125428Y1095567D1*
X2125425Y1139786D1*
X2108772Y1139776D1*
Y1197626D1*
X2170559D1*
Y1139776D1*
X2157938D1*
X2157941Y1115533D1*
X2173480Y1131119D1*
X2204461Y1162201D1*
X2204388Y1244123D1*
X2193950Y1254461D1*
X2170547D1*
X2170559Y1239776D1*
X2108772D1*
Y1297626D1*
X2170559D1*
Y1282942D1*
X2201067Y1282898D1*
X2203274Y1282547D1*
X2205399Y1281857D1*
X2207391Y1280843D1*
X2209198Y1279529D1*
X2218505Y1270285D1*
X2223203Y1265587D1*
X2223210Y1325298D1*
X2194045Y1354469D1*
X2170549Y1354461D1*
X2170559Y1339776D1*
X2108772D1*
Y1397626D1*
X2170559D1*
Y1382942D1*
X2201070Y1382896D1*
X2203276Y1382547D1*
X2205402Y1381857D1*
X2207392Y1380843D1*
X2209199Y1379529D1*
X2218507Y1370285D1*
X2241965Y1346825D1*
X2241961Y1419056D1*
X2206547Y1454466D1*
X2170556Y1454461D1*
X2170559Y1439776D1*
X2108772D1*
Y1497626D1*
X2111772D1*
X2042442D2*
X2103630D1*
Y1439776D1*
X2041843D1*
Y1497626D1*
X2042442D1*
Y1397626D2*
X2103630D1*
Y1339776D1*
X2041843D1*
Y1397626D1*
X2042442D1*
Y1297626D2*
X2103630D1*
Y1239776D1*
X2041843D1*
Y1297626D1*
X2042442D1*
Y1597626D2*
X2103630D1*
Y1539776D1*
X2041843D1*
Y1597626D1*
X2042442D1*
Y1197626D2*
X2103630D1*
Y1139776D1*
X2041843D1*
Y1197626D1*
X2042442D1*
X816436Y1449594D2*
X847626D1*
Y1387807D1*
X789776D1*
Y1418991D1*
X735322Y1473457D1*
X733776Y1473461D1*
X731888Y1472180D1*
X730160Y1471211D1*
X728360Y1470382D1*
X726500Y1469696D1*
X724593Y1469159D1*
X722650Y1468772D1*
X720681Y1468538D1*
X715701Y1468461D1*
X643701D1*
X641720Y1468538D1*
X639752Y1468772D1*
X637808Y1469159D1*
X635902Y1469696D1*
X634042Y1470382D1*
X632241Y1471211D1*
X630513Y1472180D1*
X628865Y1473281D1*
X627308Y1474508D1*
X625853Y1475853D1*
X624508Y1477308D1*
X623281Y1478865D1*
X622180Y1480513D1*
X621211Y1482241D1*
X620382Y1484042D1*
X619696Y1485902D1*
X619159Y1487808D1*
X618772Y1489752D1*
X618538Y1491720D1*
X618461Y1493701D1*
X618538Y1495681D1*
X618772Y1497650D1*
X619159Y1499593D1*
X619696Y1501500D1*
X620382Y1503360D1*
X621211Y1505160D1*
X622180Y1506888D1*
X623281Y1508537D1*
X624508Y1510093D1*
X625853Y1511549D1*
X627308Y1512894D1*
X628865Y1514121D1*
X630513Y1515222D1*
X632241Y1516190D1*
X634042Y1517020D1*
X635902Y1517706D1*
X637808Y1518243D1*
X639752Y1518630D1*
X641720Y1518864D1*
X646701Y1518941D1*
X718701D1*
X720681Y1518864D1*
X722650Y1518630D1*
X724593Y1518243D1*
X726500Y1517706D1*
X728360Y1517020D1*
X730160Y1516190D1*
X731888Y1515222D1*
X733761Y1513944D1*
X745289Y1513878D1*
X748425Y1513382D1*
X751446Y1512400D1*
X754276Y1510958D1*
X756845Y1509092D1*
X762256Y1503770D1*
X816424Y1449602D1*
X859705Y1449594D2*
X906827D1*
X907346Y1451451D1*
X908028Y1453299D1*
X908852Y1455088D1*
X909815Y1456806D1*
X910908Y1458444D1*
X912127Y1459991D1*
X913465Y1461437D1*
X916331Y1463892D1*
X917657Y1466041D1*
X919364Y1468038D1*
X932829Y1481430D1*
X935781Y1483537D1*
X937008Y1485093D1*
X938353Y1486549D1*
X939808Y1487894D1*
X941365Y1489121D1*
X943013Y1490222D1*
X944741Y1491190D1*
X946542Y1492020D1*
X948402Y1492706D1*
X950308Y1493244D1*
X952252Y1493630D1*
X954220Y1493864D1*
X956201Y1493941D1*
X958181Y1493864D1*
X960150Y1493630D1*
X962093Y1493244D1*
X964000Y1492706D1*
X965860Y1492020D1*
X967660Y1491190D1*
X969388Y1490222D1*
X971037Y1489121D1*
X972593Y1487894D1*
X974049Y1486549D1*
X975394Y1485093D1*
X976621Y1483537D1*
X977722Y1481888D1*
X978690Y1480160D1*
X979520Y1478360D1*
X980206Y1476500D1*
X980744Y1474593D1*
X981130Y1472650D1*
X981364Y1470681D1*
X981441Y1465701D1*
X981364Y1416720D1*
X981130Y1414752D1*
X980744Y1412808D1*
X980206Y1410902D1*
X979520Y1409042D1*
X978690Y1407241D1*
X977722Y1405513D1*
X976621Y1403865D1*
X975394Y1402308D1*
X974049Y1400853D1*
X972593Y1399508D1*
X971037Y1398281D1*
X969388Y1397180D1*
X967660Y1396211D1*
X965860Y1395382D1*
X964000Y1394696D1*
X962093Y1394157D1*
X960150Y1393772D1*
X958181Y1393538D1*
X956201Y1393461D1*
X954220Y1393538D1*
X952252Y1393772D1*
X950308Y1394157D1*
X948402Y1394696D1*
X946542Y1395382D1*
X944741Y1396211D1*
X942594Y1397459D1*
X914564Y1397461D1*
X914555Y1387807D1*
X856705D1*
Y1449594D1*
X859705D1*
X475907Y785126D2*
X537094D1*
Y727276D1*
X475307D1*
Y785126D1*
X475907D1*
X1729244Y766887D2*
X1728676Y763304D1*
X1727555Y759856D1*
X1725908Y756623D1*
X1723777Y753689D1*
X1721213Y751125D1*
X1720438Y750514D1*
X1720396Y667584D1*
X1720047Y665377D1*
X1719357Y663252D1*
X1718343Y661260D1*
X1717029Y659453D1*
X1707785Y650146D1*
X1615449Y557873D1*
X1613642Y556559D1*
X1611650Y555545D1*
X1609525Y554854D1*
X1607318Y554505D1*
X1594201Y554461D1*
X1374416D1*
X1372545Y552357D1*
X1369787Y550001D1*
X1366694Y548106D1*
X1363344Y546718D1*
X1359816Y545871D1*
X1356201Y545587D1*
X1352585Y545871D1*
X1349058Y546718D1*
X1345707Y548106D1*
X1342614Y550001D1*
X1339857Y552357D1*
X1337501Y555114D1*
X1335606Y558207D1*
X1334218Y561558D1*
X1333371Y565085D1*
X1333087Y568701D1*
X1333371Y572316D1*
X1334218Y575844D1*
X1335606Y579194D1*
X1337501Y582287D1*
X1339857Y585045D1*
X1342614Y587400D1*
X1345707Y589295D1*
X1349058Y590684D1*
X1352585Y591530D1*
X1356201Y591815D1*
X1359816Y591530D1*
X1363344Y590684D1*
X1366694Y589295D1*
X1369787Y587400D1*
X1372545Y585045D1*
X1374387Y582938D1*
X1600314Y582941D1*
X1691963Y674602D1*
X1691961Y750486D1*
X1689857Y752357D1*
X1687501Y755114D1*
X1685606Y758207D1*
X1684218Y761558D1*
X1683371Y765085D1*
X1683087Y768701D1*
X1683371Y772316D1*
X1684218Y775844D1*
X1685606Y779194D1*
X1687501Y782287D1*
X1689857Y785045D1*
X1692614Y787400D1*
X1695707Y789295D1*
X1699058Y790684D1*
X1702585Y791530D1*
X1706201Y791815D1*
X1709816Y791530D1*
X1713344Y790684D1*
X1716694Y789295D1*
X1719787Y787400D1*
X1722545Y785045D1*
X1724900Y782287D1*
X1726795Y779194D1*
X1728184Y775844D1*
X1729030Y772316D1*
X1729315Y768701D1*
X1729244Y766887D1*
X1114665Y1106990D2*
D29*
Y1049163D1*
X1083783Y1078076D2*
X1145547D1*
X1265576Y1008047D2*
Y946283D1*
X1236663Y977165D2*
X1265576D1*
X1394612Y1153864D2*
Y1096037D1*
X1363730Y1124950D2*
X1425493D1*
X1256201Y1291118D2*
Y1229354D1*
X1227287Y1260236D2*
X1285114D1*
X1114665Y1188239D2*
Y1130412D1*
X1083783Y1159325D2*
X1145547D1*
X1118701Y1008047D2*
Y946283D1*
X1089787Y977165D2*
X1147614D1*
X1393701Y1008047D2*
Y946283D1*
X1364787Y977165D2*
X1422614D1*
X1394612Y1072614D2*
Y1014787D1*
X1363730Y1043701D2*
X1425493D1*
X1362450Y1291118D2*
Y1229354D1*
X1333537Y1260236D2*
X1391364D1*
X1137450Y1291118D2*
Y1229354D1*
X1108537Y1260236D2*
X1166364D1*
X2072736Y1497614D2*
Y1439787D1*
X2041854Y1468701D2*
X2103618D1*
X2072736Y1397614D2*
Y1339787D1*
X2041854Y1368701D2*
X2103618D1*
X2072736Y1297614D2*
Y1239787D1*
X2041854Y1268701D2*
X2103618D1*
X2072736Y1597614D2*
Y1539787D1*
X2041854Y1568701D2*
X2103618D1*
X2072736Y1197614D2*
Y1139787D1*
X2041854Y1168701D2*
X2103618D1*
X506201Y785114D2*
Y727287D1*
X475319Y756201D2*
X537083D1*
X1110522Y825832D2*
D14*
X1125161D1*
X1118419Y834934D2*
X1108177Y824692D1*
X1127333Y824701D1*
X1118420Y834911D1*
X1385522Y825832D2*
X1401895D1*
X1393684Y835199D2*
X1383177Y824692D1*
X1404209Y824701D1*
X1393693Y835224D1*
D38*
X1047736Y1078076D3*
X1114665D3*
D37*
X1265576Y910236D3*
Y977165D3*
D38*
X1461541Y1124950D3*
X1394612D3*
D37*
X1256201Y1327165D3*
Y1260236D3*
D38*
X1047736Y1159325D3*
X1114665D3*
D37*
X1118701Y910236D3*
Y977165D3*
X1393701Y910236D3*
Y977165D3*
D38*
X1461541Y1043701D3*
X1394612D3*
D37*
X1362450Y1327165D3*
Y1260236D3*
X1137450Y1327165D3*
Y1260236D3*
D38*
X2139665Y1468701D3*
X2072736D3*
X2139665Y1368701D3*
X2072736D3*
X2139665Y1268701D3*
X2072736D3*
X2139665Y1568701D3*
X2072736D3*
X2139665Y1168701D3*
X2072736D3*
D37*
X818701Y1418701D3*
X885630D3*
D43*
X1506201Y1298701D3*
Y1238701D3*
D38*
X506201Y756201D3*
Y689272D3*
X756201Y752165D3*
Y685236D3*
X856201Y752165D3*
Y685236D3*
M02*
