G04 DipTrace 3.3.1.1*
G04 BottomMask.gbs*
%MOIN*%
G04 #@! TF.FileFunction,Soldermask,Bot*
G04 #@! TF.Part,Single*
%ADD68C,0.066929*%
%ADD96R,0.070874X0.053874*%
%ADD104R,0.051181X0.047244*%
%ADD106R,0.047244X0.051181*%
%FSLAX26Y26*%
G04*
G70*
G90*
G75*
G01*
G04 BotMask*
%LPD*%
D68*
X456201Y596825D3*
X556201D3*
X456201Y496825D3*
X656201D3*
X756201D3*
Y596825D3*
X856201D3*
X556201Y496825D3*
X856201D3*
X656201Y596825D3*
D104*
X1047736Y1078076D3*
X1114665D3*
D106*
X1265576Y910236D3*
Y977165D3*
D104*
X1461541Y1124950D3*
X1394612D3*
D106*
X1256201Y1327165D3*
Y1260236D3*
D104*
X1047736Y1159325D3*
X1114665D3*
D106*
X1118701Y910236D3*
Y977165D3*
X1393701Y910236D3*
Y977165D3*
D104*
X1461541Y1043701D3*
X1394612D3*
D106*
X1362450Y1327165D3*
Y1260236D3*
X1137450Y1327165D3*
Y1260236D3*
D104*
X2139665Y1468701D3*
X2072736D3*
X2139665Y1368701D3*
X2072736D3*
X2139665Y1268701D3*
X2072736D3*
X2139665Y1568701D3*
X2072736D3*
X2139665Y1168701D3*
X2072736D3*
D106*
X818701Y1418701D3*
X885630D3*
G36*
X1542201Y1271704D2*
X1470201D1*
Y1265698D1*
X1542201D1*
Y1271704D1*
G37*
D96*
X1506201Y1298701D3*
Y1238701D3*
D104*
X506201Y756201D3*
Y689272D3*
X756201Y752165D3*
Y685236D3*
X856201Y752165D3*
Y685236D3*
M02*
