G04 DipTrace 3.3.1.1*
G04 BottomSilk.gbo*
%MOIN*%
G04 #@! TF.FileFunction,Legend,Bot*
G04 #@! TF.Part,Single*
%ADD28C,0.006*%
%ADD47C,0.005*%
%FSLAX26Y26*%
G04*
G70*
G90*
G75*
G01*
G04 BotSilk*
%LPD*%
X1068700Y1062450D2*
D28*
X1093702D1*
X1068700Y1093702D2*
X1093702D1*
X1281202Y931200D2*
Y956202D1*
X1249950Y931200D2*
Y956202D1*
X1440577Y1140576D2*
X1415575D1*
X1440577Y1109324D2*
X1415575D1*
X1240575Y1306202D2*
Y1281200D1*
X1271827Y1306202D2*
Y1281200D1*
X1068700Y1143699D2*
X1093702D1*
X1068700Y1174951D2*
X1093702D1*
X1134327Y931200D2*
Y956202D1*
X1103075Y931200D2*
Y956202D1*
X1409327Y931200D2*
Y956202D1*
X1378075Y931200D2*
Y956202D1*
X1440577Y1059327D2*
X1415575D1*
X1440577Y1028075D2*
X1415575D1*
X1346824Y1306202D2*
Y1281200D1*
X1378076Y1306202D2*
Y1281200D1*
X1121824Y1306202D2*
Y1281200D1*
X1153076Y1306202D2*
Y1281200D1*
X2118702Y1484327D2*
X2093700D1*
X2118702Y1453075D2*
X2093700D1*
X2118702Y1384327D2*
X2093700D1*
X2118702Y1353075D2*
X2093700D1*
X2118702Y1284327D2*
X2093700D1*
X2118702Y1253075D2*
X2093700D1*
X2118702Y1584327D2*
X2093700D1*
X2118702Y1553075D2*
X2093700D1*
X2118702Y1184327D2*
X2093700D1*
X2118702Y1153075D2*
X2093700D1*
X839665Y1403076D2*
X864666D1*
X839665Y1434326D2*
X864666D1*
X1546201Y1213698D2*
Y1323704D1*
X1466201Y1213698D2*
G03X1476201Y1203701I9992J-5D01*
G01*
Y1333701D2*
G03X1466201Y1323704I-8J-9992D01*
G01*
X1536201Y1333701D2*
G02X1546201Y1323704I8J-9992D01*
G01*
Y1213698D2*
G02X1536201Y1203701I-9992J-5D01*
G01*
X1476201D1*
X1536201Y1333701D2*
X1476201D1*
X1466201Y1323704D2*
Y1213698D1*
X490576Y735237D2*
Y710235D1*
X521826Y735237D2*
Y710235D1*
X740576Y731202D2*
Y706200D1*
X771826Y731202D2*
Y706200D1*
X840576Y731202D2*
Y706200D1*
X871826Y731202D2*
Y706200D1*
X2062450Y1606201D2*
X2043701D1*
X2034325Y1596825D1*
Y1331201D1*
X2021825Y1318701D1*
X2034325Y1306201D1*
Y1143701D1*
X2046825Y1131201D1*
X2059325D1*
X2022561Y1258879D2*
D47*
X2024463Y1257928D1*
X2026386Y1256005D1*
X2027337Y1254104D1*
Y1250279D1*
X2026386Y1248356D1*
X2024463Y1246454D1*
X2022561Y1245482D1*
X2019687Y1244531D1*
X2014890D1*
X2012038Y1245482D1*
X2010115Y1246454D1*
X2008213Y1248356D1*
X2007241Y1250279D1*
Y1254104D1*
X2008213Y1256005D1*
X2010115Y1257928D1*
X2012038Y1258879D1*
X2022539Y1269852D2*
X2023490D1*
X2025413Y1270802D1*
X2026364Y1271753D1*
X2027314Y1273676D1*
Y1277501D1*
X2026364Y1279402D1*
X2025413Y1280353D1*
X2023490Y1281326D1*
X2021589D1*
X2019665Y1280353D1*
X2016813Y1278452D1*
X2007241Y1268879D1*
Y1282276D1*
X2027314Y1294200D2*
Y1304701D1*
X2019665Y1298975D1*
Y1301849D1*
X2018714Y1303750D1*
X2017764Y1304701D1*
X2014890Y1305674D1*
X2012989D1*
X2010115Y1304701D1*
X2008191Y1302800D1*
X2007241Y1299925D1*
Y1297051D1*
X2008191Y1294200D1*
X2009164Y1293249D1*
X2011065Y1292276D1*
X2017277Y1315674D2*
Y1326727D1*
X2022561Y1351075D2*
X2024462Y1350125D1*
X2026386Y1348201D1*
X2027337Y1346300D1*
Y1342475D1*
X2026386Y1340552D1*
X2024463Y1338651D1*
X2022561Y1337678D1*
X2019687Y1336727D1*
X2014890D1*
X2012038Y1337678D1*
X2010115Y1338651D1*
X2008213Y1340552D1*
X2007241Y1342475D1*
Y1346300D1*
X2008213Y1348201D1*
X2010115Y1350125D1*
X2012038Y1351075D1*
X2022539Y1362048D2*
X2023490D1*
X2025413Y1362999D1*
X2026364Y1363949D1*
X2027314Y1365873D1*
Y1369697D1*
X2026364Y1371599D1*
X2025413Y1372549D1*
X2023490Y1373522D1*
X2021588D1*
X2019665Y1372549D1*
X2016813Y1370648D1*
X2007241Y1361075D1*
Y1374473D1*
X2007240Y1388297D2*
X2027314Y1397870D1*
Y1384473D1*
X1276152Y1146186D2*
X1277102Y1148087D1*
X1279026Y1150011D1*
X1280927Y1150961D1*
X1284751D1*
X1286675Y1150011D1*
X1288576Y1148087D1*
X1289549Y1146186D1*
X1290499Y1143312D1*
Y1138515D1*
X1289549Y1135663D1*
X1288576Y1133739D1*
X1286675Y1131838D1*
X1284751Y1130865D1*
X1280927D1*
X1279026Y1131838D1*
X1277102Y1133739D1*
X1276152Y1135663D1*
X1266152Y1147114D2*
X1264228Y1148087D1*
X1261354Y1150939D1*
Y1130865D1*
X1245606Y1150939D2*
X1248480Y1149988D1*
X1250403Y1147114D1*
X1251354Y1142339D1*
Y1139465D1*
X1250403Y1134690D1*
X1248480Y1131816D1*
X1245606Y1130865D1*
X1243705D1*
X1240831Y1131816D1*
X1238930Y1134690D1*
X1237957Y1139465D1*
Y1142339D1*
X1238930Y1147114D1*
X1240831Y1149988D1*
X1243705Y1150939D1*
X1245606D1*
X1238930Y1147114D2*
X1250403Y1134690D1*
X1227957Y1140902D2*
X1216903D1*
X1241885Y1098186D2*
X1242835Y1100087D1*
X1244759Y1102011D1*
X1246660Y1102961D1*
X1250484D1*
X1252408Y1102011D1*
X1254309Y1100087D1*
X1255282Y1098186D1*
X1256232Y1095312D1*
Y1090515D1*
X1255282Y1087663D1*
X1254309Y1085739D1*
X1252408Y1083838D1*
X1250484Y1082865D1*
X1246660D1*
X1244759Y1083838D1*
X1242835Y1085739D1*
X1241885Y1087663D1*
X1231885Y1099114D2*
X1229961Y1100087D1*
X1227087Y1102939D1*
Y1082865D1*
X1204640Y1096263D2*
X1205613Y1093389D1*
X1207514Y1091465D1*
X1210388Y1090515D1*
X1211339D1*
X1214213Y1091465D1*
X1216114Y1093389D1*
X1217087Y1096263D1*
Y1097213D1*
X1216114Y1100087D1*
X1214213Y1101988D1*
X1211339Y1102939D1*
X1210388D1*
X1207514Y1101988D1*
X1205613Y1100087D1*
X1204640Y1096263D1*
Y1091465D1*
X1205613Y1086690D1*
X1207514Y1083816D1*
X1210388Y1082865D1*
X1212290D1*
X1215164Y1083816D1*
X1216114Y1085739D1*
X2260429Y458341D2*
Y428197D1*
X2280525Y458341D1*
Y428197D1*
X2233218Y454030D2*
X2234644Y456882D1*
X2238955Y458308D1*
X2241807D1*
X2246118Y456882D1*
X2249003Y452571D1*
X2250429Y445408D1*
Y438245D1*
X2249003Y432508D1*
X2246118Y429623D1*
X2241807Y428197D1*
X2240381D1*
X2236103Y429623D1*
X2233218Y432508D1*
X2231792Y436820D1*
Y438245D1*
X2233218Y442556D1*
X2236103Y445408D1*
X2240381Y446834D1*
X2241807D1*
X2246118Y445408D1*
X2249003Y442556D1*
X2250429Y438245D1*
X2207433Y428197D2*
Y458308D1*
X2221792Y438245D1*
X2200270D1*
X2190270Y443982D2*
X2177370D1*
X2173059Y445442D1*
X2171600Y446868D1*
X2170174Y449719D1*
Y452604D1*
X2171600Y455456D1*
X2173059Y456916D1*
X2177370Y458341D1*
X2190270D1*
Y428197D1*
X2180222Y443982D2*
X2170174Y428197D1*
X2138652Y451179D2*
X2140078Y454030D1*
X2142963Y456916D1*
X2145815Y458341D1*
X2151552D1*
X2154437Y456916D1*
X2157289Y454030D1*
X2158748Y451179D1*
X2160174Y446868D1*
Y439671D1*
X2158748Y435394D1*
X2157289Y432508D1*
X2154437Y429657D1*
X2151552Y428197D1*
X2145815D1*
X2142963Y429657D1*
X2140078Y432508D1*
X2138652Y435394D1*
Y439671D1*
X2145815D1*
X2128652Y458341D2*
Y428197D1*
X2115719D1*
X2111408Y429657D1*
X2109982Y431083D1*
X2108556Y433934D1*
Y438245D1*
X2109982Y441131D1*
X2111408Y442556D1*
X2115719Y443982D1*
X2111408Y445442D1*
X2109982Y446868D1*
X2108556Y449719D1*
Y452604D1*
X2109982Y455456D1*
X2111408Y456916D1*
X2115719Y458341D1*
X2128652D1*
Y443982D2*
X2115719D1*
X2098556Y448293D2*
X2089934Y428197D1*
X2081345Y448293D1*
X2071345Y452571D2*
X2068460Y454030D1*
X2064149Y458308D1*
Y428197D1*
X2024252Y458341D2*
X2017056Y428197D1*
X2009893Y458341D1*
X2002730Y428197D1*
X1995534Y458341D1*
X1985534D2*
X1984108Y456916D1*
X1982649Y458341D1*
X1984108Y459801D1*
X1985534Y458341D1*
X1984108Y448293D2*
Y428197D1*
X1968338Y458341D2*
Y433934D1*
X1966912Y429657D1*
X1964027Y428197D1*
X1961175D1*
X1972649Y448293D2*
X1962601D1*
X1951175Y458341D2*
Y428197D1*
Y442556D2*
X1946864Y446868D1*
X1943979Y448293D1*
X1939668D1*
X1936816Y446868D1*
X1935390Y442556D1*
Y428197D1*
X1895493Y458341D2*
Y428197D1*
X1885493Y448293D2*
Y428197D1*
Y442556D2*
X1881182Y446868D1*
X1878297Y448293D1*
X1874019D1*
X1871134Y446868D1*
X1869708Y442556D1*
Y428197D1*
X1855397Y458341D2*
Y433934D1*
X1853971Y429657D1*
X1851086Y428197D1*
X1848234D1*
X1859708Y448293D2*
X1849660D1*
X1838234Y439671D2*
X1821023D1*
Y442556D1*
X1822449Y445442D1*
X1823875Y446868D1*
X1826760Y448293D1*
X1831071D1*
X1833923Y446868D1*
X1836808Y443982D1*
X1838234Y439671D1*
Y436820D1*
X1836808Y432508D1*
X1833923Y429657D1*
X1831071Y428197D1*
X1826760D1*
X1823875Y429657D1*
X1821023Y432508D1*
X1793812Y446868D2*
Y423886D1*
X1795238Y419609D1*
X1796664Y418149D1*
X1799549Y416724D1*
X1803860D1*
X1806712Y418149D1*
X1793812Y442556D2*
X1796664Y445408D1*
X1799549Y446868D1*
X1803860D1*
X1806712Y445408D1*
X1809597Y442556D1*
X1811023Y438245D1*
Y435360D1*
X1809597Y431083D1*
X1806712Y428197D1*
X1803860Y426772D1*
X1799549D1*
X1796664Y428197D1*
X1793812Y431083D1*
X1783812Y448293D2*
Y428197D1*
Y439671D2*
X1782353Y443982D1*
X1779501Y446868D1*
X1776616Y448293D1*
X1772305D1*
X1745094D2*
Y428197D1*
Y443982D2*
X1747946Y446868D1*
X1750831Y448293D1*
X1755109D1*
X1757994Y446868D1*
X1760846Y443982D1*
X1762305Y439671D1*
Y436820D1*
X1760846Y432508D1*
X1757994Y429657D1*
X1755109Y428197D1*
X1750831D1*
X1747946Y429657D1*
X1745094Y432508D1*
X1730783Y458341D2*
Y433934D1*
X1729357Y429657D1*
X1726472Y428197D1*
X1723620D1*
X1735094Y448293D2*
X1725046D1*
X1713620Y439671D2*
X1696409D1*
Y442556D1*
X1697835Y445442D1*
X1699261Y446868D1*
X1702146Y448293D1*
X1706457D1*
X1709309Y446868D1*
X1712194Y443982D1*
X1713620Y439671D1*
Y436820D1*
X1712194Y432508D1*
X1709309Y429657D1*
X1706457Y428197D1*
X1702146D1*
X1699261Y429657D1*
X1696409Y432508D1*
X1669198Y458341D2*
Y428197D1*
Y443982D2*
X1672050Y446868D1*
X1674935Y448293D1*
X1679246D1*
X1682098Y446868D1*
X1684983Y443982D1*
X1686409Y439671D1*
Y436820D1*
X1684983Y432508D1*
X1682098Y429657D1*
X1679246Y428197D1*
X1674935D1*
X1672050Y429657D1*
X1669198Y432508D1*
X1626416Y458308D2*
X1610664D1*
X1619253Y446834D1*
X1614942D1*
X1612090Y445408D1*
X1610664Y443982D1*
X1609205Y439671D1*
Y436820D1*
X1610664Y432508D1*
X1613516Y429623D1*
X1617827Y428197D1*
X1622138D1*
X1626416Y429623D1*
X1627842Y431083D1*
X1629301Y433934D1*
X1597779Y431083D2*
X1599205Y429623D1*
X1597779Y428197D1*
X1596320Y429623D1*
X1597779Y431083D1*
X1583435Y458308D2*
X1567683D1*
X1576272Y446834D1*
X1571961D1*
X1569109Y445408D1*
X1567683Y443982D1*
X1566224Y439671D1*
Y436820D1*
X1567683Y432508D1*
X1570535Y429623D1*
X1574846Y428197D1*
X1579157D1*
X1583435Y429623D1*
X1584861Y431083D1*
X1586320Y433934D1*
X1556224Y448293D2*
X1547602Y428197D1*
X1539013Y448293D1*
X1499116Y443982D2*
X1486216D1*
X1481905Y445442D1*
X1480446Y446868D1*
X1479020Y449719D1*
Y452604D1*
X1480446Y455456D1*
X1481905Y456916D1*
X1486216Y458341D1*
X1499116D1*
Y428197D1*
X1489068Y443982D2*
X1479020Y428197D1*
X1469020Y439671D2*
X1451809D1*
Y442556D1*
X1453235Y445442D1*
X1454661Y446868D1*
X1457546Y448293D1*
X1461857D1*
X1464709Y446868D1*
X1467594Y443982D1*
X1469020Y439671D1*
Y436820D1*
X1467594Y432508D1*
X1464709Y429657D1*
X1461857Y428197D1*
X1457546D1*
X1454661Y429657D1*
X1451809Y432508D1*
X1424598Y446868D2*
Y423886D1*
X1426024Y419609D1*
X1427450Y418149D1*
X1430335Y416724D1*
X1434646D1*
X1437498Y418149D1*
X1424598Y442556D2*
X1427450Y445408D1*
X1430335Y446868D1*
X1434646D1*
X1437498Y445408D1*
X1440383Y442556D1*
X1441809Y438245D1*
Y435360D1*
X1440383Y431083D1*
X1437498Y428197D1*
X1434646Y426772D1*
X1430335D1*
X1427450Y428197D1*
X1424598Y431083D1*
X1414598Y448293D2*
Y433934D1*
X1413173Y429657D1*
X1410287Y428197D1*
X1405976D1*
X1403125Y429657D1*
X1398813Y433934D1*
Y448293D2*
Y428197D1*
X1388813Y458341D2*
Y428197D1*
X1361603Y448293D2*
Y428197D1*
Y443982D2*
X1364454Y446868D1*
X1367340Y448293D1*
X1371617D1*
X1374502Y446868D1*
X1377354Y443982D1*
X1378813Y439671D1*
Y436820D1*
X1377354Y432508D1*
X1374502Y429657D1*
X1371617Y428197D1*
X1367340D1*
X1364454Y429657D1*
X1361603Y432508D1*
X1347292Y458341D2*
Y433934D1*
X1345866Y429657D1*
X1342981Y428197D1*
X1340129D1*
X1351603Y448293D2*
X1341555D1*
X1322966D2*
X1325818Y446868D1*
X1328703Y443982D1*
X1330129Y439671D1*
Y436820D1*
X1328703Y432508D1*
X1325818Y429657D1*
X1322966Y428197D1*
X1318655D1*
X1315770Y429657D1*
X1312918Y432508D1*
X1311459Y436820D1*
Y439671D1*
X1312918Y443982D1*
X1315770Y446868D1*
X1318655Y448293D1*
X1322966D1*
X1301459D2*
Y428197D1*
Y439671D2*
X1299999Y443982D1*
X1297148Y446868D1*
X1294262Y448293D1*
X1289951D1*
X1507591Y1384966D2*
D28*
Y1362018D1*
X1509017Y1357707D1*
X1510476Y1356281D1*
X1513328Y1354822D1*
X1516213D1*
X1519065Y1356281D1*
X1520491Y1357707D1*
X1521950Y1362018D1*
Y1364870D1*
X1495591Y1379196D2*
X1492706Y1380655D1*
X1488395Y1384933D1*
Y1354822D1*
X1934952Y1490890D2*
D47*
X1926352D1*
X1923478Y1491863D1*
X1922505Y1492813D1*
X1921554Y1494715D1*
Y1496638D1*
X1922505Y1498539D1*
X1923478Y1499512D1*
X1926352Y1500463D1*
X1934952D1*
Y1480367D1*
X1928253Y1490890D2*
X1921554Y1480367D1*
X1911554Y1488016D2*
X1900080D1*
Y1489939D1*
X1901031Y1491863D1*
X1901982Y1492813D1*
X1903905Y1493764D1*
X1906779D1*
X1908680Y1492813D1*
X1910604Y1490890D1*
X1911554Y1488016D1*
Y1486115D1*
X1910604Y1483241D1*
X1908680Y1481339D1*
X1906779Y1480367D1*
X1903905D1*
X1901982Y1481339D1*
X1900080Y1483241D1*
X1878607Y1500463D2*
Y1480367D1*
Y1490890D2*
X1880508Y1492813D1*
X1882431Y1493764D1*
X1885305D1*
X1887206Y1492813D1*
X1889130Y1490890D1*
X1890080Y1488016D1*
Y1486115D1*
X1889130Y1483241D1*
X1887206Y1481339D1*
X1885305Y1480367D1*
X1882431D1*
X1880508Y1481339D1*
X1878607Y1483241D1*
X1868607Y1488016D2*
X1857133D1*
Y1489939D1*
X1858083Y1491863D1*
X1859034Y1492813D1*
X1860957Y1493764D1*
X1863831D1*
X1865732Y1492813D1*
X1867656Y1490890D1*
X1868607Y1488016D1*
Y1486115D1*
X1867656Y1483241D1*
X1865732Y1481339D1*
X1863831Y1480367D1*
X1860957D1*
X1859034Y1481339D1*
X1857133Y1483241D1*
X1836609Y1490890D2*
X1837560Y1492813D1*
X1840434Y1493764D1*
X1843308D1*
X1846182Y1492813D1*
X1847133Y1490890D1*
X1846182Y1488989D1*
X1844259Y1488016D1*
X1839483Y1487065D1*
X1837560Y1486115D1*
X1836609Y1484191D1*
Y1483241D1*
X1837560Y1481339D1*
X1840434Y1480367D1*
X1843308D1*
X1846182Y1481339D1*
X1847133Y1483241D1*
X1826609Y1500463D2*
X1825659Y1499512D1*
X1824686Y1500463D1*
X1825659Y1501435D1*
X1826609Y1500463D1*
X1825659Y1493764D2*
Y1480367D1*
X1803212Y1492813D2*
Y1477493D1*
X1804163Y1474641D1*
X1805113Y1473668D1*
X1807037Y1472717D1*
X1809911D1*
X1811812Y1473668D1*
X1803212Y1489939D2*
X1805113Y1491841D1*
X1807037Y1492813D1*
X1809911D1*
X1811812Y1491841D1*
X1813735Y1489939D1*
X1814686Y1487065D1*
Y1485142D1*
X1813735Y1482290D1*
X1811812Y1480367D1*
X1809911Y1479416D1*
X1807037D1*
X1805113Y1480367D1*
X1803212Y1482290D1*
X1793212Y1493764D2*
Y1480367D1*
Y1489939D2*
X1790338Y1492813D1*
X1788414Y1493764D1*
X1785563D1*
X1783639Y1492813D1*
X1782689Y1489939D1*
Y1480367D1*
X1749424Y1500463D2*
Y1480367D1*
Y1490890D2*
X1747501Y1492813D1*
X1745599Y1493764D1*
X1742725D1*
X1740824Y1492813D1*
X1738901Y1490890D1*
X1737950Y1488016D1*
Y1486115D1*
X1738901Y1483241D1*
X1740824Y1481339D1*
X1742725Y1480367D1*
X1745599D1*
X1747501Y1481339D1*
X1749424Y1483241D1*
X1726977Y1493764D2*
X1721251Y1480367D1*
X1723153Y1476542D1*
X1725076Y1474619D1*
X1726977Y1473668D1*
X1727950D1*
X1715503Y1493764D2*
X1721251Y1480367D1*
X1682239Y1500463D2*
Y1480367D1*
Y1490890D2*
X1680315Y1492813D1*
X1678414Y1493764D1*
X1675540D1*
X1673639Y1492813D1*
X1671715Y1490890D1*
X1670765Y1488016D1*
Y1486115D1*
X1671715Y1483241D1*
X1673639Y1481339D1*
X1675540Y1480367D1*
X1678414D1*
X1680315Y1481339D1*
X1682239Y1483241D1*
X1655989Y1493764D2*
X1657891Y1492813D1*
X1659814Y1490890D1*
X1660765Y1488016D1*
Y1486115D1*
X1659814Y1483241D1*
X1657891Y1481339D1*
X1655989Y1480367D1*
X1653115D1*
X1651192Y1481339D1*
X1649291Y1483241D1*
X1648318Y1486115D1*
Y1488016D1*
X1649291Y1490890D1*
X1651192Y1492813D1*
X1653115Y1493764D1*
X1655989D1*
X1638318D2*
Y1480367D1*
Y1488016D2*
X1637345Y1490890D1*
X1635444Y1492813D1*
X1633520Y1493764D1*
X1630646D1*
X1617772Y1500463D2*
Y1484191D1*
X1616822Y1481339D1*
X1614898Y1480367D1*
X1612997D1*
X1620646Y1493764D2*
X1613948D1*
X1602997Y1500463D2*
X1602047Y1499512D1*
X1601074Y1500463D1*
X1602047Y1501435D1*
X1602997Y1500463D1*
X1602047Y1493764D2*
Y1480367D1*
X1581501D2*
Y1500440D1*
X1591074Y1487065D1*
X1576726D1*
X1554279Y1493764D2*
X1555252Y1490890D1*
X1557153Y1488966D1*
X1560027Y1488016D1*
X1560978D1*
X1563852Y1488966D1*
X1565753Y1490890D1*
X1566726Y1493764D1*
Y1494715D1*
X1565753Y1497589D1*
X1563852Y1499490D1*
X1560978Y1500440D1*
X1560027D1*
X1557153Y1499490D1*
X1555252Y1497589D1*
X1554279Y1493764D1*
Y1488966D1*
X1555252Y1484191D1*
X1557153Y1481317D1*
X1560027Y1480367D1*
X1561928D1*
X1564802Y1481317D1*
X1565753Y1483241D1*
X1542356Y1500440D2*
X1531855D1*
X1537580Y1492791D1*
X1534706D1*
X1532805Y1491841D1*
X1531855Y1490890D1*
X1530882Y1488016D1*
Y1486115D1*
X1531855Y1483241D1*
X1533756Y1481317D1*
X1536630Y1480367D1*
X1539504D1*
X1542356Y1481317D1*
X1543306Y1482290D1*
X1544279Y1484191D1*
X1516107Y1500440D2*
X1518958Y1499490D1*
X1519931Y1497589D1*
Y1495665D1*
X1518958Y1493764D1*
X1517057Y1492791D1*
X1513232Y1491841D1*
X1510358Y1490890D1*
X1508457Y1488966D1*
X1507507Y1487065D1*
Y1484191D1*
X1508457Y1482290D1*
X1509408Y1481317D1*
X1512282Y1480367D1*
X1516107D1*
X1518958Y1481317D1*
X1519931Y1482290D1*
X1520882Y1484191D1*
Y1487065D1*
X1519931Y1488966D1*
X1518008Y1490890D1*
X1515156Y1491841D1*
X1511331Y1492791D1*
X1509408Y1493764D1*
X1508457Y1495665D1*
Y1497589D1*
X1509408Y1499490D1*
X1512282Y1500440D1*
X1516107D1*
X1928252Y1553701D2*
X1930176Y1551800D1*
X1932077Y1548925D1*
X1934000Y1545101D1*
X1934951Y1540303D1*
Y1536479D1*
X1934000Y1531704D1*
X1932077Y1527879D1*
X1930176Y1525005D1*
X1928252Y1523104D1*
X1910603Y1548461D2*
X1912504D1*
X1914428Y1547511D1*
X1915378Y1544637D1*
Y1528365D1*
X1918252Y1541763D2*
X1911554D1*
X1895828D2*
X1897729Y1540812D1*
X1899652Y1538889D1*
X1900603Y1536015D1*
Y1534113D1*
X1899652Y1531239D1*
X1897729Y1529338D1*
X1895828Y1528365D1*
X1892954D1*
X1891030Y1529338D1*
X1889129Y1531239D1*
X1888156Y1534113D1*
Y1536015D1*
X1889129Y1538889D1*
X1891030Y1540812D1*
X1892954Y1541763D1*
X1895828D1*
X1878156D2*
Y1528365D1*
Y1536015D2*
X1877184Y1538889D1*
X1875282Y1540812D1*
X1873359Y1541763D1*
X1870485D1*
X1824796Y1548461D2*
X1837220D1*
Y1528365D1*
X1824796D1*
X1837220Y1538889D2*
X1829571D1*
X1814796Y1537938D2*
X1806174D1*
X1803322Y1538889D1*
X1802349Y1539861D1*
X1801398Y1541763D1*
Y1544637D1*
X1802349Y1546538D1*
X1803322Y1547511D1*
X1806174Y1548461D1*
X1814796D1*
Y1528365D1*
X1776100D2*
Y1548461D1*
X1783749Y1528365D1*
X1791398Y1548461D1*
Y1528365D1*
X1765127Y1543664D2*
Y1544614D1*
X1764176Y1546538D1*
X1763226Y1547488D1*
X1761302Y1548439D1*
X1757478D1*
X1755576Y1547488D1*
X1754626Y1546538D1*
X1753653Y1544614D1*
Y1542713D1*
X1754626Y1540790D1*
X1756527Y1537938D1*
X1766100Y1528365D1*
X1752702D1*
X1733130D2*
Y1548439D1*
X1742702Y1535064D1*
X1728354D1*
X1712606Y1548439D2*
X1715480Y1547488D1*
X1717404Y1544614D1*
X1718354Y1539839D1*
Y1536965D1*
X1717404Y1532190D1*
X1715480Y1529316D1*
X1712606Y1528365D1*
X1710705D1*
X1707831Y1529316D1*
X1705930Y1532190D1*
X1704957Y1536965D1*
Y1539839D1*
X1705930Y1544614D1*
X1707831Y1547488D1*
X1710705Y1548439D1*
X1712606D1*
X1705930Y1544614D2*
X1717404Y1532190D1*
X1688258Y1548461D2*
Y1528365D1*
X1694957Y1548461D2*
X1681560D1*
X1671560Y1544614D2*
X1669636Y1545587D1*
X1666762Y1548439D1*
Y1528365D1*
X1651014Y1548439D2*
X1653888Y1547488D1*
X1655812Y1544614D1*
X1656762Y1539839D1*
Y1536965D1*
X1655812Y1532190D1*
X1653888Y1529316D1*
X1651014Y1528365D1*
X1649113D1*
X1646239Y1529316D1*
X1644338Y1532190D1*
X1643365Y1536965D1*
Y1539839D1*
X1644338Y1544614D1*
X1646239Y1547488D1*
X1649113Y1548439D1*
X1651014D1*
X1644338Y1544614D2*
X1655812Y1532190D1*
X1627617Y1548439D2*
X1630491Y1547488D1*
X1632414Y1544614D1*
X1633365Y1539839D1*
Y1536965D1*
X1632414Y1532190D1*
X1630491Y1529316D1*
X1627617Y1528365D1*
X1625716D1*
X1622842Y1529316D1*
X1620940Y1532190D1*
X1619968Y1536965D1*
Y1539839D1*
X1620940Y1544614D1*
X1622842Y1547488D1*
X1625716Y1548439D1*
X1627617D1*
X1620940Y1544614D2*
X1632414Y1532190D1*
X1595620Y1543686D2*
X1596570Y1545587D1*
X1598494Y1547511D1*
X1600395Y1548461D1*
X1604220D1*
X1606143Y1547511D1*
X1608044Y1545587D1*
X1609017Y1543686D1*
X1609968Y1540812D1*
Y1536015D1*
X1609017Y1533163D1*
X1608044Y1531239D1*
X1606143Y1529338D1*
X1604220Y1528365D1*
X1600395D1*
X1598494Y1529338D1*
X1596570Y1531239D1*
X1595620Y1533163D1*
X1574146Y1548439D2*
X1583696D1*
X1584647Y1539839D1*
X1583696Y1540790D1*
X1580822Y1541763D1*
X1577970D1*
X1575096Y1540790D1*
X1573173Y1538889D1*
X1572222Y1536015D1*
Y1534113D1*
X1573173Y1531239D1*
X1575096Y1529316D1*
X1577970Y1528365D1*
X1580822D1*
X1583696Y1529316D1*
X1584647Y1530289D1*
X1585620Y1532190D1*
X1562222Y1553701D2*
X1560299Y1551800D1*
X1558398Y1548925D1*
X1556474Y1545101D1*
X1555524Y1540303D1*
Y1536479D1*
X1556474Y1531704D1*
X1558398Y1527879D1*
X1560299Y1525005D1*
X1562222Y1523104D1*
X1932077Y1596463D2*
Y1580191D1*
X1931126Y1577339D1*
X1929203Y1576367D1*
X1927301D1*
X1934951Y1589764D2*
X1928252D1*
X1917301Y1596463D2*
Y1576367D1*
Y1585939D2*
X1914427Y1588813D1*
X1912504Y1589764D1*
X1909630D1*
X1907729Y1588813D1*
X1906778Y1585939D1*
Y1576367D1*
X1896778Y1584016D2*
X1885304D1*
Y1585939D1*
X1886255Y1587863D1*
X1887205Y1588813D1*
X1889129Y1589764D1*
X1892003D1*
X1893904Y1588813D1*
X1895827Y1586890D1*
X1896778Y1584016D1*
Y1582115D1*
X1895827Y1579241D1*
X1893904Y1577339D1*
X1892003Y1576367D1*
X1889129D1*
X1887205Y1577339D1*
X1885304Y1579241D1*
X1841516Y1586890D2*
X1842467Y1588813D1*
X1845341Y1589764D1*
X1848215D1*
X1851089Y1588813D1*
X1852039Y1586890D1*
X1851089Y1584989D1*
X1849165Y1584016D1*
X1844390Y1583065D1*
X1842467Y1582115D1*
X1841516Y1580191D1*
Y1579241D1*
X1842467Y1577339D1*
X1845341Y1576367D1*
X1848215D1*
X1851089Y1577339D1*
X1852039Y1579241D1*
X1820020Y1586890D2*
X1821943Y1588813D1*
X1823867Y1589764D1*
X1826719D1*
X1828642Y1588813D1*
X1830543Y1586890D1*
X1831516Y1584016D1*
Y1582115D1*
X1830543Y1579241D1*
X1828642Y1577339D1*
X1826719Y1576367D1*
X1823867D1*
X1821943Y1577339D1*
X1820020Y1579241D1*
X1810020Y1596463D2*
Y1576367D1*
Y1585939D2*
X1807146Y1588813D1*
X1805223Y1589764D1*
X1802349D1*
X1800447Y1588813D1*
X1799497Y1585939D1*
Y1576367D1*
X1789497Y1584016D2*
X1778023D1*
Y1585939D1*
X1778973Y1587863D1*
X1779924Y1588813D1*
X1781847Y1589764D1*
X1784721D1*
X1786623Y1588813D1*
X1788546Y1586890D1*
X1789497Y1584016D1*
Y1582115D1*
X1788546Y1579241D1*
X1786623Y1577339D1*
X1784721Y1576367D1*
X1781847D1*
X1779924Y1577339D1*
X1778023Y1579241D1*
X1768023Y1589764D2*
Y1576367D1*
Y1585939D2*
X1765149Y1588813D1*
X1763225Y1589764D1*
X1760373D1*
X1758450Y1588813D1*
X1757499Y1585939D1*
Y1576367D1*
Y1585939D2*
X1754625Y1588813D1*
X1752702Y1589764D1*
X1749850D1*
X1747927Y1588813D1*
X1746954Y1585939D1*
Y1576367D1*
X1725480Y1589764D2*
Y1576367D1*
Y1586890D2*
X1727381Y1588813D1*
X1729305Y1589764D1*
X1732157D1*
X1734080Y1588813D1*
X1735981Y1586890D1*
X1736954Y1584016D1*
Y1582115D1*
X1735981Y1579241D1*
X1734080Y1577339D1*
X1732157Y1576367D1*
X1729305D1*
X1727381Y1577339D1*
X1725480Y1579241D1*
X1712606Y1596463D2*
Y1580191D1*
X1711655Y1577339D1*
X1709732Y1576367D1*
X1707831D1*
X1715480Y1589764D2*
X1708781D1*
X1697831Y1596463D2*
X1696880Y1595512D1*
X1695907Y1596463D1*
X1696880Y1597435D1*
X1697831Y1596463D1*
X1696880Y1589764D2*
Y1576367D1*
X1674411Y1586890D2*
X1676335Y1588813D1*
X1678258Y1589764D1*
X1681110D1*
X1683033Y1588813D1*
X1684935Y1586890D1*
X1685907Y1584016D1*
Y1582115D1*
X1684935Y1579241D1*
X1683033Y1577339D1*
X1681110Y1576367D1*
X1678258D1*
X1676335Y1577339D1*
X1674411Y1579241D1*
X1653888Y1586890D2*
X1654839Y1588813D1*
X1657713Y1589764D1*
X1660587D1*
X1663461Y1588813D1*
X1664411Y1586890D1*
X1663461Y1584989D1*
X1661537Y1584016D1*
X1656762Y1583065D1*
X1654839Y1582115D1*
X1653888Y1580191D1*
Y1579241D1*
X1654839Y1577339D1*
X1657713Y1576367D1*
X1660587D1*
X1663461Y1577339D1*
X1664411Y1579241D1*
X1620623Y1596463D2*
Y1576367D1*
Y1586890D2*
X1618700Y1588813D1*
X1616799Y1589764D1*
X1613925D1*
X1612023Y1588813D1*
X1610100Y1586890D1*
X1609149Y1584016D1*
Y1582115D1*
X1610100Y1579241D1*
X1612023Y1577339D1*
X1613925Y1576367D1*
X1616799D1*
X1618700Y1577339D1*
X1620623Y1579241D1*
X1598177Y1589764D2*
X1592451Y1576367D1*
X1594352Y1572542D1*
X1596275Y1570619D1*
X1598177Y1569668D1*
X1599149D1*
X1586703Y1589764D2*
X1592451Y1576367D1*
X1553438Y1589764D2*
X1547690Y1576367D1*
X1541964Y1589764D1*
X1531964Y1596463D2*
X1531013Y1595512D1*
X1530041Y1596463D1*
X1531013Y1597435D1*
X1531964Y1596463D1*
X1531013Y1589764D2*
Y1576367D1*
X1520041Y1596463D2*
Y1576367D1*
X1510041Y1584016D2*
X1498567D1*
Y1585939D1*
X1499517Y1587863D1*
X1500468Y1588813D1*
X1502391Y1589764D1*
X1505265D1*
X1507167Y1588813D1*
X1509090Y1586890D1*
X1510041Y1584016D1*
Y1582115D1*
X1509090Y1579241D1*
X1507167Y1577339D1*
X1505265Y1576367D1*
X1502391D1*
X1500468Y1577339D1*
X1498567Y1579241D1*
X1485693Y1596463D2*
Y1580191D1*
X1484742Y1577339D1*
X1482819Y1576367D1*
X1480917D1*
X1488567Y1589764D2*
X1481868D1*
X1470917Y1596463D2*
X1469967Y1595512D1*
X1468994Y1596463D1*
X1469967Y1597435D1*
X1470917Y1596463D1*
X1469967Y1589764D2*
Y1576367D1*
X1458994Y1589764D2*
Y1576367D1*
Y1585939D2*
X1456120Y1588813D1*
X1454197Y1589764D1*
X1451345D1*
X1449421Y1588813D1*
X1448471Y1585939D1*
Y1576367D1*
Y1585939D2*
X1445597Y1588813D1*
X1443673Y1589764D1*
X1440821D1*
X1438898Y1588813D1*
X1437925Y1585939D1*
Y1576367D1*
X1934952Y1644461D2*
Y1624365D1*
X1928253D1*
X1925379Y1625338D1*
X1923456Y1627239D1*
X1922505Y1629163D1*
X1921554Y1632015D1*
Y1636812D1*
X1922505Y1639686D1*
X1923456Y1641587D1*
X1925379Y1643511D1*
X1928253Y1644461D1*
X1934952D1*
X1911554Y1632015D2*
X1900080D1*
Y1633938D1*
X1901031Y1635861D1*
X1901982Y1636812D1*
X1903905Y1637763D1*
X1906779D1*
X1908680Y1636812D1*
X1910604Y1634889D1*
X1911554Y1632015D1*
Y1630113D1*
X1910604Y1627239D1*
X1908680Y1625338D1*
X1906779Y1624365D1*
X1903905D1*
X1901982Y1625338D1*
X1900080Y1627239D1*
X1879557Y1634889D2*
X1880508Y1636812D1*
X1883382Y1637763D1*
X1886256D1*
X1889130Y1636812D1*
X1890080Y1634889D1*
X1889130Y1632987D1*
X1887206Y1632015D1*
X1882431Y1631064D1*
X1880508Y1630113D1*
X1879557Y1628190D1*
Y1627239D1*
X1880508Y1625338D1*
X1883382Y1624365D1*
X1886256D1*
X1889130Y1625338D1*
X1890080Y1627239D1*
X1869557Y1644461D2*
X1868607Y1643511D1*
X1867634Y1644461D1*
X1868607Y1645434D1*
X1869557Y1644461D1*
X1868607Y1637763D2*
Y1624365D1*
X1846160Y1636812D2*
Y1621491D1*
X1847110Y1618639D1*
X1848061Y1617667D1*
X1849984Y1616716D1*
X1852858D1*
X1854760Y1617667D1*
X1846160Y1633938D2*
X1848061Y1635839D1*
X1849984Y1636812D1*
X1852858D1*
X1854760Y1635839D1*
X1856683Y1633938D1*
X1857634Y1631064D1*
Y1629141D1*
X1856683Y1626289D1*
X1854760Y1624365D1*
X1852858Y1623415D1*
X1849984D1*
X1848061Y1624365D1*
X1846160Y1626289D1*
X1836160Y1637763D2*
Y1624365D1*
Y1633938D2*
X1833286Y1636812D1*
X1831362Y1637763D1*
X1828510D1*
X1826587Y1636812D1*
X1825636Y1633938D1*
Y1624365D1*
X1792372Y1644461D2*
X1791421Y1643511D1*
X1790448Y1644461D1*
X1791421Y1645434D1*
X1792372Y1644461D1*
X1791421Y1637763D2*
Y1624365D1*
X1769925Y1634889D2*
X1770876Y1636812D1*
X1773750Y1637763D1*
X1776624D1*
X1779498Y1636812D1*
X1780448Y1634889D1*
X1779498Y1632987D1*
X1777574Y1632015D1*
X1772799Y1631064D1*
X1770876Y1630113D1*
X1769925Y1628190D1*
Y1627239D1*
X1770876Y1625338D1*
X1773750Y1624365D1*
X1776624D1*
X1779498Y1625338D1*
X1780448Y1627239D1*
X1736660Y1644461D2*
Y1624365D1*
Y1634889D2*
X1734737Y1636812D1*
X1732836Y1637763D1*
X1729962D1*
X1728060Y1636812D1*
X1726137Y1634889D1*
X1725186Y1632015D1*
Y1630113D1*
X1726137Y1627239D1*
X1728060Y1625338D1*
X1729962Y1624365D1*
X1732836D1*
X1734737Y1625338D1*
X1736660Y1627239D1*
X1703712Y1637763D2*
Y1624365D1*
Y1634889D2*
X1705614Y1636812D1*
X1707537Y1637763D1*
X1710389D1*
X1712312Y1636812D1*
X1714214Y1634889D1*
X1715186Y1632015D1*
Y1630113D1*
X1714214Y1627239D1*
X1712312Y1625338D1*
X1710389Y1624365D1*
X1707537D1*
X1705614Y1625338D1*
X1703712Y1627239D1*
X1683189Y1634889D2*
X1684140Y1636812D1*
X1687014Y1637763D1*
X1689888D1*
X1692762Y1636812D1*
X1693712Y1634889D1*
X1692762Y1632987D1*
X1690838Y1632015D1*
X1686063Y1631064D1*
X1684140Y1630113D1*
X1683189Y1628190D1*
Y1627239D1*
X1684140Y1625338D1*
X1687014Y1624365D1*
X1689888D1*
X1692762Y1625338D1*
X1693712Y1627239D1*
X1673189Y1632015D2*
X1661715D1*
Y1633938D1*
X1662666Y1635861D1*
X1663616Y1636812D1*
X1665540Y1637763D1*
X1668414D1*
X1670315Y1636812D1*
X1672239Y1634889D1*
X1673189Y1632015D1*
Y1630113D1*
X1672239Y1627239D1*
X1670315Y1625338D1*
X1668414Y1624365D1*
X1665540D1*
X1663616Y1625338D1*
X1661715Y1627239D1*
X1640241Y1644461D2*
Y1624365D1*
Y1634889D2*
X1642143Y1636812D1*
X1644066Y1637763D1*
X1646940D1*
X1648841Y1636812D1*
X1650765Y1634889D1*
X1651715Y1632015D1*
Y1630113D1*
X1650765Y1627239D1*
X1648841Y1625338D1*
X1646940Y1624365D1*
X1644066D1*
X1642143Y1625338D1*
X1640241Y1627239D1*
X1602201Y1637763D2*
X1604103Y1636812D1*
X1606026Y1634889D1*
X1606977Y1632015D1*
Y1630113D1*
X1606026Y1627239D1*
X1604103Y1625338D1*
X1602201Y1624365D1*
X1599327D1*
X1597404Y1625338D1*
X1595503Y1627239D1*
X1594530Y1630113D1*
Y1632015D1*
X1595503Y1634889D1*
X1597404Y1636812D1*
X1599327Y1637763D1*
X1602201D1*
X1584530D2*
Y1624365D1*
Y1633938D2*
X1581656Y1636812D1*
X1579732Y1637763D1*
X1576881D1*
X1574957Y1636812D1*
X1574007Y1633938D1*
Y1624365D1*
X565889Y680576D2*
Y689176D1*
X566861Y692050D1*
X567812Y693023D1*
X569713Y693973D1*
X571637D1*
X573538Y693023D1*
X574511Y692050D1*
X575461Y689176D1*
Y680576D1*
X555365D1*
X565889Y687275D2*
X555365Y693973D1*
X571614Y703973D2*
X572587Y705897D1*
X575439Y708771D1*
X555365D1*
X575439Y724519D2*
X574488Y721645D1*
X571614Y719721D1*
X566839Y718771D1*
X563965D1*
X559190Y719721D1*
X556316Y721645D1*
X555365Y724519D1*
Y726420D1*
X556316Y729294D1*
X559190Y731195D1*
X563965Y732168D1*
X566839D1*
X571614Y731195D1*
X574488Y729294D1*
X575439Y726420D1*
Y724519D1*
X571614Y731195D2*
X559190Y719721D1*
X715889Y680576D2*
X715888Y689176D1*
X716861Y692050D1*
X717812Y693023D1*
X719713Y693973D1*
X721637D1*
X723538Y693023D1*
X724511Y692050D1*
X725461Y689176D1*
Y680576D1*
X705365D1*
X715888Y687275D2*
X705365Y693973D1*
X721614Y703973D2*
X722587Y705897D1*
X725439Y708771D1*
X705365D1*
X721614Y718771D2*
X722587Y720694D1*
X725439Y723568D1*
X705365D1*
X912764Y680576D2*
Y689176D1*
X913737Y692050D1*
X914687Y693023D1*
X916588Y693973D1*
X918512D1*
X920413Y693023D1*
X921386Y692050D1*
X922337Y689176D1*
Y680576D1*
X902241D1*
X912764Y687275D2*
X902241Y693973D1*
X918490Y703973D2*
X919462Y705897D1*
X922314Y708771D1*
X902241D1*
X917539Y719743D2*
X918490D1*
X920413Y720694D1*
X921364Y721645D1*
X922314Y723568D1*
Y727393D1*
X921364Y729294D1*
X920413Y730244D1*
X918490Y731217D1*
X916589D1*
X914665Y730244D1*
X911813Y728343D1*
X902241Y718771D1*
Y732168D1*
X1921696Y1436617D2*
Y1456713D1*
X1929345Y1436617D1*
X1936995Y1456713D1*
Y1436617D1*
X1906921Y1450015D2*
X1908822Y1449064D1*
X1910746Y1447141D1*
X1911696Y1444267D1*
Y1442365D1*
X1910746Y1439491D1*
X1908822Y1437590D1*
X1906921Y1436617D1*
X1904047D1*
X1902123Y1437590D1*
X1900222Y1439491D1*
X1899249Y1442365D1*
Y1444267D1*
X1900222Y1447141D1*
X1902123Y1449064D1*
X1904047Y1450015D1*
X1906921D1*
X1877775Y1456713D2*
Y1436617D1*
Y1447141D2*
X1879677Y1449064D1*
X1881600Y1450015D1*
X1884474D1*
X1886375Y1449064D1*
X1888299Y1447141D1*
X1889249Y1444267D1*
Y1442365D1*
X1888299Y1439491D1*
X1886375Y1437590D1*
X1884474Y1436617D1*
X1881600D1*
X1879677Y1437590D1*
X1877775Y1439491D1*
X1867775Y1456713D2*
X1866825Y1455763D1*
X1865852Y1456713D1*
X1866825Y1457686D1*
X1867775Y1456713D1*
X1866825Y1450015D2*
Y1436617D1*
X1848203Y1456713D2*
X1850104D1*
X1852027Y1455763D1*
X1852978Y1452889D1*
Y1436617D1*
X1855852Y1450015D2*
X1849153D1*
X1838203Y1456713D2*
X1837252Y1455763D1*
X1836279Y1456713D1*
X1837252Y1457686D1*
X1838203Y1456713D1*
X1837252Y1450015D2*
Y1436617D1*
X1826279Y1444267D2*
X1814805D1*
Y1446190D1*
X1815756Y1448113D1*
X1816707Y1449064D1*
X1818630Y1450015D1*
X1821504D1*
X1823405Y1449064D1*
X1825329Y1447141D1*
X1826279Y1444267D1*
Y1442365D1*
X1825329Y1439491D1*
X1823405Y1437590D1*
X1821504Y1436617D1*
X1818630D1*
X1816707Y1437590D1*
X1814805Y1439491D1*
X1793332Y1456713D2*
Y1436617D1*
Y1447141D2*
X1795233Y1449064D1*
X1797156Y1450015D1*
X1800030D1*
X1801931Y1449064D1*
X1803855Y1447141D1*
X1804805Y1444267D1*
Y1442365D1*
X1803855Y1439491D1*
X1801931Y1437590D1*
X1800030Y1436617D1*
X1797156D1*
X1795233Y1437590D1*
X1793332Y1439491D1*
X1760067Y1456713D2*
Y1436617D1*
Y1447141D2*
X1758143Y1449064D1*
X1756242Y1450015D1*
X1753368D1*
X1751467Y1449064D1*
X1749544Y1447141D1*
X1748593Y1444267D1*
Y1442365D1*
X1749544Y1439491D1*
X1751467Y1437590D1*
X1753368Y1436617D1*
X1756242D1*
X1758143Y1437590D1*
X1760067Y1439491D1*
X1737620Y1450015D2*
X1731894Y1436617D1*
X1733795Y1432793D1*
X1735719Y1430869D1*
X1737620Y1429919D1*
X1738593D1*
X1726146Y1450015D2*
X1731894Y1436617D1*
X1677561D2*
X1685232Y1456713D1*
X1692881Y1436617D1*
X1690007Y1443316D2*
X1680435D1*
X1667561Y1450015D2*
Y1436617D1*
Y1444267D2*
X1666588Y1447141D1*
X1664687Y1449064D1*
X1662763Y1450015D1*
X1659889D1*
X1647015Y1456713D2*
Y1440442D1*
X1646065Y1437590D1*
X1644141Y1436617D1*
X1642240D1*
X1649889Y1450015D2*
X1643191D1*
X1632240Y1456713D2*
Y1436617D1*
Y1446190D2*
X1629366Y1449064D1*
X1627443Y1450015D1*
X1624569D1*
X1622667Y1449064D1*
X1621717Y1446190D1*
Y1436617D1*
X1611717Y1450015D2*
Y1436617D1*
Y1444267D2*
X1610744Y1447141D1*
X1608843Y1449064D1*
X1606919Y1450015D1*
X1604045D1*
X1594045Y1456713D2*
X1593095Y1455763D1*
X1592122Y1456713D1*
X1593095Y1457686D1*
X1594045Y1456713D1*
X1593095Y1450015D2*
Y1436617D1*
X1582122Y1450015D2*
Y1436617D1*
Y1446190D2*
X1579248Y1449064D1*
X1577325Y1450015D1*
X1574473D1*
X1572549Y1449064D1*
X1571599Y1446190D1*
Y1436617D1*
Y1446190D2*
X1568725Y1449064D1*
X1566801Y1450015D1*
X1563949D1*
X1562026Y1449064D1*
X1561053Y1446190D1*
Y1436617D1*
X1551053Y1450015D2*
Y1440442D1*
X1550103Y1437590D1*
X1548179Y1436617D1*
X1545305D1*
X1543404Y1437590D1*
X1540530Y1440442D1*
Y1450015D2*
Y1436617D1*
X1520007Y1447141D2*
X1520957Y1449064D1*
X1523831Y1450015D1*
X1526705D1*
X1529579Y1449064D1*
X1530530Y1447141D1*
X1529579Y1445239D1*
X1527656Y1444267D1*
X1522881Y1443316D1*
X1520957Y1442365D1*
X1520007Y1440442D1*
Y1439491D1*
X1520957Y1437590D1*
X1523831Y1436617D1*
X1526705D1*
X1529579Y1437590D1*
X1530530Y1439491D1*
X866253Y1478586D2*
X878699D1*
Y1458490D1*
Y1469013D2*
X871050D1*
X856253Y1478586D2*
Y1458490D1*
X847631D1*
X844757Y1459463D1*
X843806Y1460413D1*
X842855Y1462315D1*
Y1465189D1*
X843806Y1467112D1*
X844757Y1468063D1*
X847631Y1469013D1*
X844757Y1469986D1*
X843806Y1470937D1*
X842855Y1472838D1*
Y1474761D1*
X843806Y1476663D1*
X844757Y1477635D1*
X847631Y1478586D1*
X856253D1*
Y1469013D2*
X847631D1*
X831883Y1473789D2*
Y1474739D1*
X830932Y1476663D1*
X829981Y1477613D1*
X828058Y1478564D1*
X824233D1*
X822332Y1477613D1*
X821381Y1476663D1*
X820409Y1474739D1*
Y1472838D1*
X821381Y1470914D1*
X823283Y1468063D1*
X832855Y1458490D1*
X819458D1*
X1602576Y1165400D2*
X1600675Y1163477D1*
X1597801Y1161575D1*
X1593976Y1159652D1*
X1589179Y1158701D1*
X1585354D1*
X1580579Y1159652D1*
X1576754Y1161575D1*
X1573880Y1163477D1*
X1571979Y1165400D1*
X1597314Y1186874D2*
Y1177323D1*
X1588714Y1176373D1*
X1589665Y1177323D1*
X1590638Y1180197D1*
Y1183049D1*
X1589665Y1185923D1*
X1587764Y1187847D1*
X1584890Y1188797D1*
X1582989D1*
X1580115Y1187847D1*
X1578191Y1185923D1*
X1577241Y1183049D1*
Y1180197D1*
X1578191Y1177323D1*
X1579164Y1176373D1*
X1581065Y1175400D1*
X1577241Y1202622D2*
X1597314Y1212195D1*
Y1198797D1*
Y1227943D2*
X1596364Y1225069D1*
X1593490Y1223145D1*
X1588714Y1222195D1*
X1585840D1*
X1581065Y1223145D1*
X1578191Y1225069D1*
X1577241Y1227943D1*
Y1229844D1*
X1578191Y1232718D1*
X1581065Y1234619D1*
X1585840Y1235592D1*
X1588714D1*
X1593490Y1234619D1*
X1596364Y1232718D1*
X1597314Y1229844D1*
Y1227943D1*
X1593490Y1234619D2*
X1581065Y1223145D1*
X1597337Y1245592D2*
X1577241D1*
Y1257066D1*
X1597337Y1279491D2*
Y1267066D1*
X1577241D1*
Y1279491D1*
X1587764Y1267066D2*
Y1274715D1*
Y1300014D2*
X1589687Y1299063D1*
X1590638Y1296189D1*
Y1293315D1*
X1589687Y1290441D1*
X1587764Y1289491D1*
X1585863Y1290441D1*
X1584890Y1292365D1*
X1583939Y1297140D1*
X1582989Y1299063D1*
X1581065Y1300014D1*
X1580115D1*
X1578213Y1299063D1*
X1577241Y1296189D1*
Y1293315D1*
X1578213Y1290441D1*
X1580115Y1289491D1*
X1602576Y1310014D2*
X1600675Y1311937D1*
X1597801Y1313838D1*
X1593976Y1315762D1*
X1589179Y1316712D1*
X1585354D1*
X1580579Y1315762D1*
X1576754Y1313838D1*
X1573880Y1311937D1*
X1571979Y1310014D1*
M02*
