M48
INCH
T01C0.0157
T02C0.0177
T03C0.0197
T04C0.0236
T05C0.0394
%
T01
X+012750Y+008812
X+013375Y+008812
X+013937Y+008812
X+014625Y+008625
X+015000Y+008875
X+014562Y+009687
X+014906Y+010400
X+014937Y+011187
X+016312Y+011778
X+017062Y+010687
X+017625Y+009406
X+018562Y+010062
X+019406Y+010687
X+019750Y+011687
X+022375Y+010812
X+022375Y+010312
X+022375Y+009812
X+022375Y+009312
X+022375Y+008812
X+020687Y+008687
X+019875Y+008625
X+019312Y+007125
X+018062Y+006687
X+018312Y+005937
X+017687Y+004187
X+019062Y+004187
X+021343Y+004843
X+020625Y+006937
X+017781Y+008187
X+017062Y+007687
X+014032Y+007406
X+013875Y+006687
X+013062Y+007187
X+013562Y+005687
X+012750Y+004187
X+011312Y+007437
X+011187Y+008812
X+010250Y+009125
X+009687Y+007687
X+012031Y+009437
X+010187Y+010781
X+010432Y+011972
X+010062Y+013062
X+008750Y+013352
X+008562Y+013687
X+007656Y+013843
X+008375Y+015062
X+009937Y+015062
X+011375Y+014906
X+012527Y+015128
X+012867Y+015125
X+013206Y+015125
X+014062Y+014906
X+014125Y+013562
X+013187Y+013562
X+012562Y+013562
X+012000Y+013562
X+011375Y+013562
X+012062Y+011906
X+012562Y+011906
X+015750Y+014125
X+015250Y+015625
X+022750Y+016375
X+006562Y+007687
X+006000Y+006875
T02
X+004562Y+011875
X+004562Y+012375
T03
X+006437Y+014937
X+006812Y+014937
X+007187Y+014937
X+007062Y+013375
X+007562Y+013375
X+008062Y+013375
X+009312Y+014437
X+009562Y+014187
X+009562Y+014687
X+014375Y+013000
X+014375Y+012468
T04
X+021062Y+016375
X+020687Y+016375
X+020312Y+016375
X+019750Y+015750
X+019750Y+015312
X+019750Y+014875
X+021562Y+005875
X+022000Y+005875
X+022437Y+005875
X+022875Y+005875
X+022875Y+005437
X+021562Y+005437
X+006437Y+013000
X+006437Y+013375
X+006437Y+013750
X+006000Y+013750
X+006000Y+013375
X+006000Y+013000
X+005000Y+013125
X+004687Y+013312
X+005000Y+013500
X+004562Y+015000
X+004250Y+015187
X+004562Y+015437
T05
X+004562Y+005968
X+005562Y+005968
X+005562Y+004968
X+004562Y+004968
X+006562Y+004968
X+007562Y+004968
X+007562Y+005968
X+008562Y+005968
X+008562Y+004968
X+006562Y+005968
T00
M30
