G04 DipTrace 3.3.1.1*
G04 TopMask.gts*
%MOIN*%
G04 #@! TF.FileFunction,Soldermask,Top*
G04 #@! TF.Part,Single*
%ADD68C,0.066929*%
%ADD74R,0.066929X0.086614*%
%ADD76R,0.137874X0.107874*%
%ADD78R,0.057874X0.107874*%
%ADD80R,0.047244X0.021654*%
%ADD82R,0.020472X0.066929*%
%ADD84R,0.033071X0.066929*%
%ADD86R,0.066929X0.020472*%
%ADD88R,0.066929X0.033071*%
%ADD92R,0.107874X0.057874*%
%ADD94R,0.053874X0.070874*%
%ADD100R,0.070866X0.03937*%
%ADD102R,0.070866X0.094488*%
%ADD104R,0.051181X0.047244*%
%ADD106R,0.047244X0.051181*%
%ADD108R,0.066929X0.059055*%
%ADD110R,0.059055X0.066929*%
%ADD112R,0.070874X0.039374*%
%FSLAX26Y26*%
G04*
G70*
G90*
G75*
G01*
G04 TopMask*
%LPD*%
D68*
X456201Y596825D3*
X556201D3*
X456201Y496825D3*
X656201D3*
X756201D3*
Y596825D3*
X856201D3*
X556201Y496825D3*
X856201D3*
X656201Y596825D3*
D112*
X2274951Y931201D3*
D110*
X690675Y1443701D3*
X765478D3*
X893602Y1618701D3*
X818799D3*
X2118701Y1187451D3*
X2043898D3*
D108*
X2249951Y1249950D3*
Y1175147D3*
D106*
X2268701Y1387451D3*
Y1454381D3*
D104*
X1900861Y665576D3*
X1967790D3*
D106*
X472736Y1593701D3*
X539665D3*
D102*
X451083D3*
X561319D3*
D100*
X437449Y1093701D3*
D112*
X2274951Y881201D3*
Y1081201D3*
X437450Y1237451D3*
D100*
X437449Y693701D3*
Y743701D3*
Y793701D3*
Y843701D3*
Y893701D3*
Y943701D3*
Y993701D3*
Y1043701D3*
G36*
X655020Y927759D2*
X694388D1*
Y904131D1*
X655020D1*
Y927759D1*
G37*
G36*
Y896259D2*
X694388D1*
Y872643D1*
X655020D1*
Y896259D1*
G37*
G36*
Y864759D2*
X694388D1*
Y841143D1*
X655020D1*
Y864759D1*
G37*
G36*
Y833270D2*
X694388D1*
Y809642D1*
X655020D1*
Y833270D1*
G37*
G36*
X757382Y809642D2*
Y833270D1*
X718013D1*
Y809642D1*
X757382D1*
G37*
G36*
Y841143D2*
Y864759D1*
X718013D1*
Y841143D1*
X757382D1*
G37*
G36*
Y872643D2*
Y896259D1*
X718013D1*
Y872643D1*
X757382D1*
G37*
G36*
Y904131D2*
Y927759D1*
X718013D1*
Y904131D1*
X757382D1*
G37*
G36*
X655020Y1102759D2*
X694388D1*
Y1079131D1*
X655020D1*
Y1102759D1*
G37*
G36*
Y1071259D2*
X694388D1*
Y1047643D1*
X655020D1*
Y1071259D1*
G37*
G36*
Y1039759D2*
X694388D1*
Y1016143D1*
X655020D1*
Y1039759D1*
G37*
G36*
Y1008270D2*
X694388D1*
Y984642D1*
X655020D1*
Y1008270D1*
G37*
G36*
X757382Y984642D2*
Y1008270D1*
X718013D1*
Y984642D1*
X757382D1*
G37*
G36*
Y1016143D2*
Y1039759D1*
X718013D1*
Y1016143D1*
X757382D1*
G37*
G36*
Y1047643D2*
Y1071259D1*
X718013D1*
Y1047643D1*
X757382D1*
G37*
G36*
Y1079131D2*
Y1102759D1*
X718013D1*
Y1079131D1*
X757382D1*
G37*
G36*
X655020Y1277759D2*
X694388D1*
Y1254131D1*
X655020D1*
Y1277759D1*
G37*
G36*
Y1246259D2*
X694388D1*
Y1222643D1*
X655020D1*
Y1246259D1*
G37*
G36*
Y1214759D2*
X694388D1*
Y1191143D1*
X655020D1*
Y1214759D1*
G37*
G36*
Y1183270D2*
X694388D1*
Y1159642D1*
X655020D1*
Y1183270D1*
G37*
G36*
X757382Y1159642D2*
Y1183270D1*
X718013D1*
Y1159642D1*
X757382D1*
G37*
G36*
Y1191143D2*
Y1214759D1*
X718013D1*
Y1191143D1*
X757382D1*
G37*
G36*
Y1222643D2*
Y1246259D1*
X718013D1*
Y1222643D1*
X757382D1*
G37*
G36*
Y1254131D2*
Y1277759D1*
X718013D1*
Y1254131D1*
X757382D1*
G37*
G36*
X1232382Y1509642D2*
X1193013D1*
Y1533270D1*
X1232382D1*
Y1509642D1*
G37*
G36*
Y1541143D2*
X1193013D1*
Y1564759D1*
X1232382D1*
Y1541143D1*
G37*
G36*
Y1572643D2*
X1193013D1*
Y1596259D1*
X1232382D1*
Y1572643D1*
G37*
G36*
Y1604131D2*
X1193013D1*
Y1627759D1*
X1232382D1*
Y1604131D1*
G37*
G36*
X1130020Y1627759D2*
Y1604131D1*
X1169388D1*
Y1627759D1*
X1130020D1*
G37*
G36*
Y1596259D2*
Y1572643D1*
X1169388D1*
Y1596259D1*
X1130020D1*
G37*
G36*
Y1564759D2*
Y1541143D1*
X1169388D1*
Y1564759D1*
X1130020D1*
G37*
G36*
Y1533270D2*
Y1509642D1*
X1169388D1*
Y1533270D1*
X1130020D1*
G37*
D112*
X2274950Y981201D3*
D94*
X1466201Y1568701D3*
X1406201D3*
X1346201D3*
G36*
X2220698Y432701D2*
X2226704D1*
Y504701D1*
X2220698D1*
Y432701D1*
G37*
D94*
X2193701Y468701D3*
X2253701D3*
D92*
X2256201Y649951D3*
X456201Y1331201D3*
D112*
X437449Y1143701D3*
X2274950Y831201D3*
D92*
X2256201Y724951D3*
D106*
X1697736Y1218701D3*
X1764665D3*
X1697736Y1118701D3*
X1764665D3*
X1872736D3*
X1939665D3*
Y1218701D3*
X1872736D3*
D104*
X1356201Y453987D3*
Y520916D3*
X1831201Y453987D3*
Y520916D3*
D112*
X2274951Y1031201D3*
G36*
X2005020Y1027759D2*
X2044388D1*
Y1004131D1*
X2005020D1*
Y1027759D1*
G37*
G36*
Y996259D2*
X2044388D1*
Y972643D1*
X2005020D1*
Y996259D1*
G37*
G36*
Y964759D2*
X2044388D1*
Y941143D1*
X2005020D1*
Y964759D1*
G37*
G36*
Y933270D2*
X2044388D1*
Y909642D1*
X2005020D1*
Y933270D1*
G37*
G36*
X2107382Y909642D2*
Y933270D1*
X2068013D1*
Y909642D1*
X2107382D1*
G37*
G36*
Y941143D2*
Y964759D1*
X2068013D1*
Y941143D1*
X2107382D1*
G37*
G36*
Y972643D2*
Y996259D1*
X2068013D1*
Y972643D1*
X2107382D1*
G37*
G36*
Y1004131D2*
Y1027759D1*
X2068013D1*
Y1004131D1*
X2107382D1*
G37*
G36*
X1680020Y1602759D2*
X1719388D1*
Y1579131D1*
X1680020D1*
Y1602759D1*
G37*
G36*
Y1571259D2*
X1719388D1*
Y1547643D1*
X1680020D1*
Y1571259D1*
G37*
G36*
Y1539759D2*
X1719388D1*
Y1516143D1*
X1680020D1*
Y1539759D1*
G37*
G36*
Y1508270D2*
X1719388D1*
Y1484642D1*
X1680020D1*
Y1508270D1*
G37*
G36*
X1782382Y1484642D2*
Y1508270D1*
X1743013D1*
Y1484642D1*
X1782382D1*
G37*
G36*
Y1516143D2*
Y1539759D1*
X1743013D1*
Y1516143D1*
X1782382D1*
G37*
G36*
Y1547643D2*
Y1571259D1*
X1743013D1*
Y1547643D1*
X1782382D1*
G37*
G36*
Y1579131D2*
Y1602759D1*
X1743013D1*
Y1579131D1*
X1782382D1*
G37*
G36*
X1830020Y1602759D2*
X1869388D1*
Y1579131D1*
X1830020D1*
Y1602759D1*
G37*
G36*
Y1571259D2*
X1869388D1*
Y1547643D1*
X1830020D1*
Y1571259D1*
G37*
G36*
Y1539759D2*
X1869388D1*
Y1516143D1*
X1830020D1*
Y1539759D1*
G37*
G36*
Y1508270D2*
X1869388D1*
Y1484642D1*
X1830020D1*
Y1508270D1*
G37*
G36*
X1932382Y1484642D2*
Y1508270D1*
X1893013D1*
Y1484642D1*
X1932382D1*
G37*
G36*
Y1516143D2*
Y1539759D1*
X1893013D1*
Y1516143D1*
X1932382D1*
G37*
G36*
Y1547643D2*
Y1571259D1*
X1893013D1*
Y1547643D1*
X1932382D1*
G37*
G36*
Y1579131D2*
Y1602759D1*
X1893013D1*
Y1579131D1*
X1932382D1*
G37*
G36*
X1680020Y1427759D2*
X1719388D1*
Y1404131D1*
X1680020D1*
Y1427759D1*
G37*
G36*
Y1396259D2*
X1719388D1*
Y1372643D1*
X1680020D1*
Y1396259D1*
G37*
G36*
Y1364759D2*
X1719388D1*
Y1341143D1*
X1680020D1*
Y1364759D1*
G37*
G36*
Y1333270D2*
X1719388D1*
Y1309642D1*
X1680020D1*
Y1333270D1*
G37*
G36*
X1782382Y1309642D2*
Y1333270D1*
X1743013D1*
Y1309642D1*
X1782382D1*
G37*
G36*
Y1341143D2*
Y1364759D1*
X1743013D1*
Y1341143D1*
X1782382D1*
G37*
G36*
Y1372643D2*
Y1396259D1*
X1743013D1*
Y1372643D1*
X1782382D1*
G37*
G36*
Y1404131D2*
Y1427759D1*
X1743013D1*
Y1404131D1*
X1782382D1*
G37*
G36*
X1830020Y1427759D2*
X1869388D1*
Y1404131D1*
X1830020D1*
Y1427759D1*
G37*
G36*
Y1396259D2*
X1869388D1*
Y1372643D1*
X1830020D1*
Y1396259D1*
G37*
G36*
Y1364759D2*
X1869388D1*
Y1341143D1*
X1830020D1*
Y1364759D1*
G37*
G36*
Y1333270D2*
X1869388D1*
Y1309642D1*
X1830020D1*
Y1333270D1*
G37*
G36*
X1932382Y1309642D2*
Y1333270D1*
X1893013D1*
Y1309642D1*
X1932382D1*
G37*
G36*
Y1341143D2*
Y1364759D1*
X1893013D1*
Y1341143D1*
X1932382D1*
G37*
G36*
Y1372643D2*
Y1396259D1*
X1893013D1*
Y1372643D1*
X1932382D1*
G37*
G36*
Y1404131D2*
Y1427759D1*
X1893013D1*
Y1404131D1*
X1932382D1*
G37*
G36*
X1090259Y688631D2*
X1066631D1*
Y649263D1*
X1090259D1*
Y688631D1*
G37*
G36*
X1058759D2*
X1035143D1*
Y649263D1*
X1058759D1*
Y688631D1*
G37*
G36*
X1027259D2*
X1003643D1*
Y649263D1*
X1027259D1*
Y688631D1*
G37*
G36*
X995770D2*
X972142D1*
Y649263D1*
X995770D1*
Y688631D1*
G37*
G36*
X972142Y586269D2*
X995770D1*
Y625638D1*
X972142D1*
Y586269D1*
G37*
G36*
X1003643D2*
X1027259D1*
Y625638D1*
X1003643D1*
Y586269D1*
G37*
G36*
X1035143D2*
X1058759D1*
Y625638D1*
X1035143D1*
Y586269D1*
G37*
G36*
X1066631D2*
X1090259D1*
Y625638D1*
X1066631D1*
Y586269D1*
G37*
G36*
X1090259Y538633D2*
X1066631D1*
Y499264D1*
X1090259D1*
Y538633D1*
G37*
G36*
X1058759D2*
X1035143D1*
Y499264D1*
X1058759D1*
Y538633D1*
G37*
G36*
X1027259D2*
X1003643D1*
Y499264D1*
X1027259D1*
Y538633D1*
G37*
G36*
X995770D2*
X972142D1*
Y499264D1*
X995770D1*
Y538633D1*
G37*
G36*
X972142Y436270D2*
X995770D1*
Y475639D1*
X972142D1*
Y436270D1*
G37*
G36*
X1003643D2*
X1027259D1*
Y475639D1*
X1003643D1*
Y436270D1*
G37*
G36*
X1035143D2*
X1058759D1*
Y475639D1*
X1035143D1*
Y436270D1*
G37*
G36*
X1066631D2*
X1090259D1*
Y475639D1*
X1066631D1*
Y436270D1*
G37*
G36*
X1265259Y688631D2*
X1241631D1*
Y649263D1*
X1265259D1*
Y688631D1*
G37*
G36*
X1233759D2*
X1210143D1*
Y649263D1*
X1233759D1*
Y688631D1*
G37*
G36*
X1202259D2*
X1178643D1*
Y649263D1*
X1202259D1*
Y688631D1*
G37*
G36*
X1170770D2*
X1147142D1*
Y649263D1*
X1170770D1*
Y688631D1*
G37*
G36*
X1147142Y586269D2*
X1170770D1*
Y625638D1*
X1147142D1*
Y586269D1*
G37*
G36*
X1178643D2*
X1202259D1*
Y625638D1*
X1178643D1*
Y586269D1*
G37*
G36*
X1210143D2*
X1233759D1*
Y625638D1*
X1210143D1*
Y586269D1*
G37*
G36*
X1241631D2*
X1265259D1*
Y625638D1*
X1241631D1*
Y586269D1*
G37*
G36*
X1265259Y538633D2*
X1241631D1*
Y499264D1*
X1265259D1*
Y538633D1*
G37*
G36*
X1233759D2*
X1210143D1*
Y499264D1*
X1233759D1*
Y538633D1*
G37*
G36*
X1202259D2*
X1178643D1*
Y499264D1*
X1202259D1*
Y538633D1*
G37*
G36*
X1170770D2*
X1147142D1*
Y499264D1*
X1170770D1*
Y538633D1*
G37*
G36*
X1147142Y436270D2*
X1170770D1*
Y475639D1*
X1147142D1*
Y436270D1*
G37*
G36*
X1178643D2*
X1202259D1*
Y475639D1*
X1178643D1*
Y436270D1*
G37*
G36*
X1210143D2*
X1233759D1*
Y475639D1*
X1210143D1*
Y436270D1*
G37*
G36*
X1241631D2*
X1265259D1*
Y475639D1*
X1241631D1*
Y436270D1*
G37*
G36*
X1565259Y688631D2*
X1541631D1*
Y649263D1*
X1565259D1*
Y688631D1*
G37*
G36*
X1533759D2*
X1510143D1*
Y649263D1*
X1533759D1*
Y688631D1*
G37*
G36*
X1502259D2*
X1478643D1*
Y649263D1*
X1502259D1*
Y688631D1*
G37*
G36*
X1470770D2*
X1447142D1*
Y649263D1*
X1470770D1*
Y688631D1*
G37*
G36*
X1447142Y586269D2*
X1470770D1*
Y625638D1*
X1447142D1*
Y586269D1*
G37*
G36*
X1478643D2*
X1502259D1*
Y625638D1*
X1478643D1*
Y586269D1*
G37*
G36*
X1510143D2*
X1533759D1*
Y625638D1*
X1510143D1*
Y586269D1*
G37*
G36*
X1541631D2*
X1565259D1*
Y625638D1*
X1541631D1*
Y586269D1*
G37*
G36*
X1565259Y538633D2*
X1541631D1*
Y499264D1*
X1565259D1*
Y538633D1*
G37*
G36*
X1533759D2*
X1510143D1*
Y499264D1*
X1533759D1*
Y538633D1*
G37*
G36*
X1502259D2*
X1478643D1*
Y499264D1*
X1502259D1*
Y538633D1*
G37*
G36*
X1470770D2*
X1447142D1*
Y499264D1*
X1470770D1*
Y538633D1*
G37*
G36*
X1447142Y436270D2*
X1470770D1*
Y475639D1*
X1447142D1*
Y436270D1*
G37*
G36*
X1478643D2*
X1502259D1*
Y475639D1*
X1478643D1*
Y436270D1*
G37*
G36*
X1510143D2*
X1533759D1*
Y475639D1*
X1510143D1*
Y436270D1*
G37*
G36*
X1541631D2*
X1565259D1*
Y475639D1*
X1541631D1*
Y436270D1*
G37*
G36*
X1740259Y688631D2*
X1716631D1*
Y649263D1*
X1740259D1*
Y688631D1*
G37*
G36*
X1708759D2*
X1685143D1*
Y649263D1*
X1708759D1*
Y688631D1*
G37*
G36*
X1677259D2*
X1653643D1*
Y649263D1*
X1677259D1*
Y688631D1*
G37*
G36*
X1645770D2*
X1622142D1*
Y649263D1*
X1645770D1*
Y688631D1*
G37*
G36*
X1622142Y586269D2*
X1645770D1*
Y625638D1*
X1622142D1*
Y586269D1*
G37*
G36*
X1653643D2*
X1677259D1*
Y625638D1*
X1653643D1*
Y586269D1*
G37*
G36*
X1685143D2*
X1708759D1*
Y625638D1*
X1685143D1*
Y586269D1*
G37*
G36*
X1716631D2*
X1740259D1*
Y625638D1*
X1716631D1*
Y586269D1*
G37*
G36*
X1740259Y538633D2*
X1716631D1*
Y499264D1*
X1740259D1*
Y538633D1*
G37*
G36*
X1708759D2*
X1685143D1*
Y499264D1*
X1708759D1*
Y538633D1*
G37*
G36*
X1677259D2*
X1653643D1*
Y499264D1*
X1677259D1*
Y538633D1*
G37*
G36*
X1645770D2*
X1622142D1*
Y499264D1*
X1645770D1*
Y538633D1*
G37*
G36*
X1622142Y436270D2*
X1645770D1*
Y475639D1*
X1622142D1*
Y436270D1*
G37*
G36*
X1653643D2*
X1677259D1*
Y475639D1*
X1653643D1*
Y436270D1*
G37*
G36*
X1685143D2*
X1708759D1*
Y475639D1*
X1685143D1*
Y436270D1*
G37*
G36*
X1716631D2*
X1740259D1*
Y475639D1*
X1716631D1*
Y436270D1*
G37*
D112*
X437449Y1187451D3*
D88*
X941240Y1361220D3*
D86*
Y1335236D3*
Y1315551D3*
Y1295866D3*
Y1276181D3*
Y1256496D3*
Y1236811D3*
Y1217126D3*
Y1197441D3*
Y1177756D3*
Y1158071D3*
Y1138386D3*
Y1118701D3*
Y1099016D3*
Y1079331D3*
Y1059646D3*
Y1039961D3*
Y1020276D3*
Y1000591D3*
Y980906D3*
Y961220D3*
Y941535D3*
Y921850D3*
Y902165D3*
D88*
Y876181D3*
D84*
X1013681Y803740D3*
D82*
X1039665D3*
X1059350D3*
X1079035D3*
X1098720D3*
X1118406D3*
X1138091D3*
X1157776D3*
X1177461D3*
X1197146D3*
X1216831D3*
X1236516D3*
X1256201D3*
X1275886D3*
X1295571D3*
X1315256D3*
X1334941D3*
X1354626D3*
X1374311D3*
X1393996D3*
X1413681D3*
X1433366D3*
X1453051D3*
X1472736D3*
D84*
X1498720D3*
D88*
X1571161Y876181D3*
D86*
Y902165D3*
Y921850D3*
Y941535D3*
Y961220D3*
Y980906D3*
Y1000591D3*
Y1020276D3*
Y1039961D3*
Y1059646D3*
Y1079331D3*
Y1099016D3*
Y1118701D3*
Y1138386D3*
Y1158071D3*
Y1177756D3*
Y1197441D3*
Y1217126D3*
Y1236811D3*
Y1256496D3*
Y1276181D3*
Y1295866D3*
Y1315551D3*
Y1335236D3*
D88*
Y1361220D3*
D84*
X1498720Y1433661D3*
D82*
X1472736D3*
X1453051D3*
X1433366D3*
X1413681D3*
X1393996D3*
X1374311D3*
X1354626D3*
X1334941D3*
X1315256D3*
X1295571D3*
X1275886D3*
X1256201D3*
X1236516D3*
X1216831D3*
X1197146D3*
X1177461D3*
X1157776D3*
X1138091D3*
X1118406D3*
X1098720D3*
X1079035D3*
X1059350D3*
X1039665D3*
D84*
X1013681D3*
D80*
X1707480Y1017348D3*
Y991757D3*
Y966167D3*
Y940576D3*
Y914986D3*
Y889395D3*
Y863804D3*
X1929921D3*
Y889395D3*
Y914986D3*
Y940576D3*
Y966167D3*
Y991757D3*
Y1017348D3*
D78*
X2193701Y1556201D3*
X2102701D3*
X2011701D3*
D76*
X2102701Y1315201D3*
D74*
X1872146Y768701D3*
X1990256D3*
D110*
X1893799D3*
X1968602D3*
D74*
X447146Y1443701D3*
X565256D3*
D110*
X468799D3*
X543602D3*
M02*
