G04 DipTrace 3.3.1.1*
G04 TopSilk.gto*
%MOIN*%
G04 #@! TF.FileFunction,Legend,Top*
G04 #@! TF.Part,Single*
%ADD13C,0.01*%
%ADD28C,0.006*%
%ADD30C,0.008*%
%ADD32C,0.004*%
%ADD33C,0.009*%
%ADD47C,0.005*%
%ADD52C,0.029532*%
%ADD12C,0.003*%
%ADD114C,0.003088*%
%ADD115C,0.002187*%
%FSLAX26Y26*%
G04*
G70*
G90*
G75*
G01*
G04 TopSilk*
%LPD*%
X713071Y1469703D2*
D28*
X743081D1*
X713071Y1417699D2*
X743081D1*
X871206Y1592699D2*
X841196D1*
X871206Y1644703D2*
X841196D1*
X2093646Y1161160D2*
X2068650D1*
X2093646Y1213784D2*
X2068650D1*
X2223613Y1199950D2*
Y1224945D1*
X2276237Y1199950D2*
Y1224945D1*
X2253075Y1408415D2*
Y1433417D1*
X2284327Y1408415D2*
Y1433417D1*
X1921825Y681202D2*
X1946826D1*
X1921825Y649950D2*
X1946826D1*
X493694Y1609331D2*
X518708D1*
X493694Y1578071D2*
X518708D1*
X735732Y807677D2*
D32*
X676669D1*
Y929724D2*
X735732D1*
Y982677D2*
X676669D1*
Y1104724D2*
X735732D1*
Y1157677D2*
X676669D1*
Y1279724D2*
X735732D1*
X1151669Y1629724D2*
X1210732D1*
Y1507677D2*
X1151669D1*
X1321195Y1608701D2*
D28*
X1491207D1*
X1321195Y1528701D2*
G02X1311201Y1538701I-1J9993D01*
G01*
X1501201D2*
G02X1491207Y1528701I-9993J-7D01*
G01*
X1501201Y1598701D2*
G03X1491207Y1608701I-9993J7D01*
G01*
X1321195D2*
G03X1311201Y1598701I-1J-9993D01*
G01*
Y1538701D1*
X1501201Y1598701D2*
Y1538701D1*
X1491207Y1528701D2*
X1321195D1*
X2278704Y428701D2*
X2168698D1*
X2278704Y508701D2*
G02X2288701Y498701I5J-9992D01*
G01*
X2158701D2*
G02X2168698Y508701I9992J8D01*
G01*
X2158701Y438701D2*
G03X2168698Y428701I9992J-8D01*
G01*
X2278704D2*
G03X2288701Y438701I5J9992D01*
G01*
Y498701D1*
X2158701Y438701D2*
Y498701D1*
X2168698Y508701D2*
X2278704D1*
X1718700Y1234326D2*
X1743702D1*
X1718700Y1203076D2*
X1743702D1*
X1718700Y1134326D2*
X1743702D1*
X1718700Y1103076D2*
X1743702D1*
X1893700Y1134326D2*
X1918702D1*
X1893700Y1103076D2*
X1918702D1*
Y1203076D2*
X1893700D1*
X1918702Y1234326D2*
X1893700D1*
X1340576Y474951D2*
Y499952D1*
X1371826Y474951D2*
Y499952D1*
X1815576Y474951D2*
Y499952D1*
X1846826Y474951D2*
Y499952D1*
X2085732Y907677D2*
D32*
X2026669D1*
Y1029724D2*
X2085732D1*
X1760732Y1482677D2*
X1701669D1*
Y1604724D2*
X1760732D1*
X1910732Y1482677D2*
X1851669D1*
Y1604724D2*
X1910732D1*
X1760732Y1307677D2*
X1701669D1*
Y1429724D2*
X1760732D1*
X1910732Y1307677D2*
X1851669D1*
Y1429724D2*
X1910732D1*
X970177Y607919D2*
Y666982D1*
X1092224D2*
Y607919D1*
X970177Y457920D2*
Y516983D1*
X1092224D2*
Y457920D1*
X1145177Y607919D2*
Y666982D1*
X1267224D2*
Y607919D1*
X1145177Y457920D2*
Y516983D1*
X1267224D2*
Y457920D1*
X1445177Y607919D2*
Y666982D1*
X1567224D2*
Y607919D1*
X1445177Y457920D2*
Y516983D1*
X1567224D2*
Y457920D1*
X1620177Y607919D2*
Y666982D1*
X1742224D2*
Y607919D1*
X1620177Y457920D2*
Y516983D1*
X1742224D2*
Y457920D1*
X980610Y1364734D2*
D13*
X1010167Y1394291D1*
X1521939D1*
X1531791Y1384439D1*
Y852963D1*
X1521939Y843110D1*
X990463D1*
X980610Y852963D1*
Y1364734D1*
X1301053Y1125246D2*
D47*
G03X1301053Y1135305I-69J5030D01*
G01*
X1298504Y1115256D2*
G02X1303533Y1110295I88J-4940D01*
G01*
Y1145295D2*
G02X1311043Y1117736I-1318J-15162D01*
G01*
G02X1316004Y1107746I-3518J-7973D01*
G01*
X1161053Y1092726D2*
X1181033Y1145295D1*
X1191024D1*
X1208524Y1102785D1*
Y1145295D1*
X1218514D1*
Y1135305D1*
Y1102785D1*
X1236014D1*
Y1135305D1*
X1218514D1*
Y1145295D2*
X1261024D1*
Y1135305D1*
X1246073D1*
Y1092726D1*
X1201014D1*
X1196053Y1102785D1*
X1176073D1*
X1171043Y1092726D1*
X1161053D1*
X1186063Y1135305D2*
X1178553Y1112776D1*
X1193504D1*
X1186063Y1135305D1*
X1261024D2*
Y1125246D1*
X1281073D1*
Y1135305D1*
X1261024D1*
Y1145295D2*
X1303533D1*
X1361063Y1092726D2*
X1341014Y1145295D1*
X1331024D1*
X1316073Y1110295D1*
X1303533Y1092726D2*
X1321033D1*
X1326063Y1102785D1*
X1346043D1*
X1351073Y1092726D1*
X1361063D1*
X1336053Y1135305D2*
X1343494Y1112776D1*
X1328543D1*
X1336053Y1135305D1*
X1301053D2*
X1293543D1*
Y1125246D1*
X1301053D1*
X1293543Y1115256D2*
X1298504D1*
X1293543D2*
Y1092726D1*
X1248553D1*
X1261024Y1115256D2*
X1281073D1*
Y1105266D1*
X1261024D1*
Y1115256D1*
X1303533Y1110295D2*
Y1092726D1*
X1010167Y1354916D2*
D13*
G02X1010167Y1354916I9818J0D01*
G01*
G36*
X933346Y1349026D2*
X974685D1*
Y1360807D1*
X933346D1*
Y1349026D1*
G37*
G36*
Y1329321D2*
X974685D1*
Y1341171D1*
X933346D1*
Y1329321D1*
G37*
G36*
Y1309616D2*
X974685D1*
Y1321467D1*
X933346D1*
Y1309616D1*
G37*
G36*
Y1289980D2*
X974685D1*
Y1301762D1*
X933346D1*
Y1289980D1*
G37*
G36*
Y1270276D2*
X974685D1*
Y1282057D1*
X933346D1*
Y1270276D1*
G37*
G36*
Y1250571D2*
X974685D1*
Y1262421D1*
X933346D1*
Y1250571D1*
G37*
G36*
Y1230935D2*
X974685D1*
Y1242717D1*
X933346D1*
Y1230935D1*
G37*
G36*
Y1211230D2*
X974685D1*
Y1223012D1*
X933346D1*
Y1211230D1*
G37*
G36*
Y1191526D2*
X974685D1*
Y1203376D1*
X933346D1*
Y1191526D1*
G37*
G36*
Y1171821D2*
X974685D1*
Y1183671D1*
X933346D1*
Y1171821D1*
G37*
G36*
Y1152185D2*
X974685D1*
Y1163967D1*
X933346D1*
Y1152185D1*
G37*
G36*
Y1132480D2*
X974685D1*
Y1144262D1*
X933346D1*
Y1132480D1*
G37*
G36*
Y1112776D2*
X974685D1*
Y1124626D1*
X933346D1*
Y1112776D1*
G37*
G36*
Y1093140D2*
X974685D1*
Y1104921D1*
X933346D1*
Y1093140D1*
G37*
G36*
Y1073435D2*
X974685D1*
Y1085217D1*
X933346D1*
Y1073435D1*
G37*
G36*
Y1053730D2*
X974685D1*
Y1065581D1*
X933346D1*
Y1053730D1*
G37*
G36*
Y1034026D2*
X974685D1*
Y1045876D1*
X933346D1*
Y1034026D1*
G37*
G36*
Y1014390D2*
X974685D1*
Y1026171D1*
X933346D1*
Y1014390D1*
G37*
G36*
Y994685D2*
X974685D1*
Y1006467D1*
X933346D1*
Y994685D1*
G37*
G36*
Y974980D2*
X974685D1*
Y986831D1*
X933346D1*
Y974980D1*
G37*
G36*
Y955344D2*
X974685D1*
Y967126D1*
X933346D1*
Y955344D1*
G37*
G36*
Y935640D2*
X974685D1*
Y947421D1*
X933346D1*
Y935640D1*
G37*
G36*
Y915935D2*
X974685D1*
Y927785D1*
X933346D1*
Y915935D1*
G37*
G36*
Y896230D2*
X974685D1*
Y908081D1*
X933346D1*
Y896230D1*
G37*
G36*
Y876594D2*
X974685D1*
Y888376D1*
X933346D1*
Y876594D1*
G37*
G36*
X1014094Y795846D2*
X1025876D1*
Y837185D1*
X1014094D1*
Y795846D1*
G37*
G36*
X1033730D2*
X1045581D1*
Y837185D1*
X1033730D1*
Y795846D1*
G37*
G36*
X1053435D2*
X1065285D1*
Y837185D1*
X1053435D1*
Y795846D1*
G37*
G36*
X1073140D2*
X1084921D1*
Y837185D1*
X1073140D1*
Y795846D1*
G37*
G36*
X1092844D2*
X1104626D1*
Y837185D1*
X1092844D1*
Y795846D1*
G37*
G36*
X1112480D2*
X1124331D1*
Y837185D1*
X1112480D1*
Y795846D1*
G37*
G36*
X1132185D2*
X1143967D1*
Y837185D1*
X1132185D1*
Y795846D1*
G37*
G36*
X1151890D2*
X1163671D1*
Y837185D1*
X1151890D1*
Y795846D1*
G37*
G36*
X1171526D2*
X1183376D1*
Y837185D1*
X1171526D1*
Y795846D1*
G37*
G36*
X1191230D2*
X1203081D1*
Y837185D1*
X1191230D1*
Y795846D1*
G37*
G36*
X1210935D2*
X1222717D1*
Y837185D1*
X1210935D1*
Y795846D1*
G37*
G36*
X1230640D2*
X1242421D1*
Y837185D1*
X1230640D1*
Y795846D1*
G37*
G36*
X1250276D2*
X1262126D1*
Y837185D1*
X1250276D1*
Y795846D1*
G37*
G36*
X1269980D2*
X1281762D1*
Y837185D1*
X1269980D1*
Y795846D1*
G37*
G36*
X1289685D2*
X1301467D1*
Y837185D1*
X1289685D1*
Y795846D1*
G37*
G36*
X1309321D2*
X1321171D1*
Y837185D1*
X1309321D1*
Y795846D1*
G37*
G36*
X1329026D2*
X1340876D1*
Y837185D1*
X1329026D1*
Y795846D1*
G37*
G36*
X1348730D2*
X1360512D1*
Y837185D1*
X1348730D1*
Y795846D1*
G37*
G36*
X1368435D2*
X1380217D1*
Y837185D1*
X1368435D1*
Y795846D1*
G37*
G36*
X1388071D2*
X1399921D1*
Y837185D1*
X1388071D1*
Y795846D1*
G37*
G36*
X1407776D2*
X1419557D1*
Y837185D1*
X1407776D1*
Y795846D1*
G37*
G36*
X1427480D2*
X1439262D1*
Y837185D1*
X1427480D1*
Y795846D1*
G37*
G36*
X1447116D2*
X1458967D1*
Y837185D1*
X1447116D1*
Y795846D1*
G37*
G36*
X1466821D2*
X1478671D1*
Y837185D1*
X1466821D1*
Y795846D1*
G37*
G36*
X1486526D2*
X1498307D1*
Y837185D1*
X1486526D1*
Y795846D1*
G37*
G36*
X1537717Y876594D2*
X1579055D1*
Y888376D1*
X1537717D1*
Y876594D1*
G37*
G36*
Y896230D2*
X1579055D1*
Y908081D1*
X1537717D1*
Y896230D1*
G37*
G36*
Y915935D2*
X1579055D1*
Y927785D1*
X1537717D1*
Y915935D1*
G37*
G36*
Y935640D2*
X1579055D1*
Y947421D1*
X1537717D1*
Y935640D1*
G37*
G36*
Y955344D2*
X1579055D1*
Y967126D1*
X1537717D1*
Y955344D1*
G37*
G36*
Y974980D2*
X1579055D1*
Y986831D1*
X1537717D1*
Y974980D1*
G37*
G36*
Y994685D2*
X1579055D1*
Y1006467D1*
X1537717D1*
Y994685D1*
G37*
G36*
Y1014390D2*
X1579055D1*
Y1026171D1*
X1537717D1*
Y1014390D1*
G37*
G36*
Y1034026D2*
X1579055D1*
Y1045876D1*
X1537717D1*
Y1034026D1*
G37*
G36*
Y1053730D2*
X1579055D1*
Y1065581D1*
X1537717D1*
Y1053730D1*
G37*
G36*
Y1073435D2*
X1579055D1*
Y1085217D1*
X1537717D1*
Y1073435D1*
G37*
G36*
Y1093140D2*
X1579055D1*
Y1104921D1*
X1537717D1*
Y1093140D1*
G37*
G36*
Y1112776D2*
X1579055D1*
Y1124626D1*
X1537717D1*
Y1112776D1*
G37*
G36*
Y1132480D2*
X1579055D1*
Y1144262D1*
X1537717D1*
Y1132480D1*
G37*
G36*
Y1152185D2*
X1579055D1*
Y1163967D1*
X1537717D1*
Y1152185D1*
G37*
G36*
Y1171821D2*
X1579055D1*
Y1183671D1*
X1537717D1*
Y1171821D1*
G37*
G36*
Y1191526D2*
X1579055D1*
Y1203376D1*
X1537717D1*
Y1191526D1*
G37*
G36*
Y1211230D2*
X1579055D1*
Y1223012D1*
X1537717D1*
Y1211230D1*
G37*
G36*
Y1230935D2*
X1579055D1*
Y1242717D1*
X1537717D1*
Y1230935D1*
G37*
G36*
Y1250571D2*
X1579055D1*
Y1262421D1*
X1537717D1*
Y1250571D1*
G37*
G36*
Y1270276D2*
X1579055D1*
Y1282057D1*
X1537717D1*
Y1270276D1*
G37*
G36*
Y1289980D2*
X1579055D1*
Y1301762D1*
X1537717D1*
Y1289980D1*
G37*
G36*
Y1309616D2*
X1579055D1*
Y1321467D1*
X1537717D1*
Y1309616D1*
G37*
G36*
Y1329321D2*
X1579055D1*
Y1341171D1*
X1537717D1*
Y1329321D1*
G37*
G36*
Y1349026D2*
X1579055D1*
Y1360807D1*
X1537717D1*
Y1349026D1*
G37*
G36*
X1486526Y1400217D2*
X1498307D1*
Y1441555D1*
X1486526D1*
Y1400217D1*
G37*
G36*
X1466821D2*
X1478671D1*
Y1441555D1*
X1466821D1*
Y1400217D1*
G37*
G36*
X1447116D2*
X1458967D1*
Y1441555D1*
X1447116D1*
Y1400217D1*
G37*
G36*
X1427480D2*
X1439262D1*
Y1441555D1*
X1427480D1*
Y1400217D1*
G37*
G36*
X1407776D2*
X1419557D1*
Y1441555D1*
X1407776D1*
Y1400217D1*
G37*
G36*
X1388071D2*
X1399921D1*
Y1441555D1*
X1388071D1*
Y1400217D1*
G37*
G36*
X1368435D2*
X1380217D1*
Y1441555D1*
X1368435D1*
Y1400217D1*
G37*
G36*
X1348730D2*
X1360512D1*
Y1441555D1*
X1348730D1*
Y1400217D1*
G37*
G36*
X1329026D2*
X1340876D1*
Y1441555D1*
X1329026D1*
Y1400217D1*
G37*
G36*
X1309321D2*
X1321171D1*
Y1441555D1*
X1309321D1*
Y1400217D1*
G37*
G36*
X1289685D2*
X1301467D1*
Y1441555D1*
X1289685D1*
Y1400217D1*
G37*
G36*
X1269980D2*
X1281762D1*
Y1441555D1*
X1269980D1*
Y1400217D1*
G37*
G36*
X1250276D2*
X1262126D1*
Y1441555D1*
X1250276D1*
Y1400217D1*
G37*
G36*
X1230640D2*
X1242421D1*
Y1441555D1*
X1230640D1*
Y1400217D1*
G37*
G36*
X1210935D2*
X1222717D1*
Y1441555D1*
X1210935D1*
Y1400217D1*
G37*
G36*
X1191230D2*
X1203081D1*
Y1441555D1*
X1191230D1*
Y1400217D1*
G37*
G36*
X1171526D2*
X1183376D1*
Y1441555D1*
X1171526D1*
Y1400217D1*
G37*
G36*
X1151890D2*
X1163671D1*
Y1441555D1*
X1151890D1*
Y1400217D1*
G37*
G36*
X1132185D2*
X1143967D1*
Y1441555D1*
X1132185D1*
Y1400217D1*
G37*
G36*
X1112480D2*
X1124331D1*
Y1441555D1*
X1112480D1*
Y1400217D1*
G37*
G36*
X1092844D2*
X1104626D1*
Y1441555D1*
X1092844D1*
Y1400217D1*
G37*
G36*
X1073140D2*
X1084921D1*
Y1441555D1*
X1073140D1*
Y1400217D1*
G37*
G36*
X1053435D2*
X1065285D1*
Y1441555D1*
X1053435D1*
Y1400217D1*
G37*
G36*
X1033730D2*
X1045581D1*
Y1441555D1*
X1033730D1*
Y1400217D1*
G37*
G36*
X1014094D2*
X1025876D1*
Y1441555D1*
X1014094D1*
Y1400217D1*
G37*
X1734057Y843923D2*
D30*
Y1037230D1*
X1903344D1*
Y843923D2*
X1734057D1*
X1903344Y1037230D2*
Y843923D1*
D52*
X1758668Y1012428D3*
X2230654Y1505094D2*
D28*
X1974748D1*
Y1367296D1*
X2230654D1*
Y1505094D1*
X1906026Y494148D2*
D47*
X2000811Y606179D1*
X2005760Y606168D1*
Y590581D1*
X1972462Y550490D1*
X2005760D1*
Y538288D1*
X1962244D1*
X1925340Y494126D1*
X1906026Y494148D1*
X2054204Y592932D2*
X2028520Y592909D1*
X2054345Y551108D2*
X2028660Y550973D1*
X2028219Y606179D2*
X2054725Y606134D1*
X2028319Y538513D2*
X2049636Y538457D1*
X2049476Y538446D2*
X2086921Y494092D1*
X2106375D1*
X2064322Y542393D1*
X2053964Y606112D2*
G02X2064362Y542494I1218J-32459D01*
G01*
X2054164Y592932D2*
G02X2054004Y551086I-2607J-20913D01*
G01*
X2013093Y493822D2*
Y606145D1*
X2029822D1*
X2028480Y592909D2*
Y550940D1*
Y538536D2*
Y493721D1*
X2028339D2*
X2013113D1*
X1899949Y799953D2*
D28*
X1962453D1*
Y737449D2*
X1899949D1*
X1916195Y794701D2*
X1946207D1*
X1916195Y742701D2*
X1946207D1*
X474949Y1474953D2*
X537453D1*
Y1412449D2*
X474949D1*
X491195Y1469701D2*
X521207D1*
X491195Y1417701D2*
X521207D1*
X478085Y1474953D2*
X534317D1*
X478085Y1412449D2*
X534317D1*
X462450Y1018701D2*
X474951D1*
X481201Y1012451D1*
Y849950D1*
X487450Y843701D1*
X481201Y837451D1*
Y671825D1*
X474951Y665576D1*
X462450D1*
X896825Y456201D2*
D30*
Y637450D1*
X415576D1*
Y456201D1*
X896825D1*
G36*
X706201D2*
Y440576D1*
X606201D1*
Y456201D1*
X706201D1*
G37*
D30*
Y440576D1*
X606201D1*
Y456201D1*
X706201D1*
X1959325Y737451D2*
D28*
X1903076D1*
X1959325Y799950D2*
X1903076D1*
X443701Y1549950D2*
Y1543701D1*
X568701D1*
Y1549950D1*
X443701Y1637451D2*
Y1643701D1*
X568701D1*
Y1637451D1*
X1338701Y1628076D2*
D13*
G02X1338701Y1628076I5000J0D01*
G01*
X406201Y1287451D2*
D32*
X506201D1*
X524951D2*
D33*
Y1374950D1*
X399951D1*
X524951Y1287451D2*
X399951D1*
Y1374950D2*
Y1287451D1*
X2078211Y1241493D2*
D114*
X2077261Y1243394D1*
X2075337Y1245318D1*
X2073436Y1246268D1*
X2069611D1*
X2067688Y1245318D1*
X2065787Y1243394D1*
X2064814Y1241493D1*
X2063863Y1238619D1*
Y1233822D1*
X2064814Y1230970D1*
X2065787Y1229046D1*
X2067688Y1227145D1*
X2069611Y1226172D1*
X2073436D1*
X2075337Y1227145D1*
X2077261Y1229046D1*
X2078211Y1230970D1*
X2093960Y1226172D2*
Y1246246D1*
X2084387Y1232871D1*
X2098735D1*
X2247339Y1300055D2*
X2246388Y1301956D1*
X2244465Y1303879D1*
X2242564Y1304830D1*
X2238739D1*
X2236816Y1303879D1*
X2234914Y1301956D1*
X2233942Y1300055D1*
X2232991Y1297181D1*
Y1292383D1*
X2233942Y1289531D1*
X2234914Y1287608D1*
X2236816Y1285707D1*
X2238739Y1284734D1*
X2242564D1*
X2244465Y1285707D1*
X2246388Y1287608D1*
X2247339Y1289531D1*
X2264989Y1304808D2*
X2255438D1*
X2254487Y1296208D1*
X2255438Y1297159D1*
X2258312Y1298131D1*
X2261164D1*
X2264038Y1297159D1*
X2265961Y1295257D1*
X2266912Y1292383D1*
Y1290482D1*
X2265961Y1287608D1*
X2264038Y1285685D1*
X2261164Y1284734D1*
X2258312D1*
X2255438Y1285685D1*
X2254487Y1286657D1*
X2253515Y1288559D1*
X2266575Y1500548D2*
X2265624Y1502449D1*
X2263701Y1504373D1*
X2261799Y1505323D1*
X2257975D1*
X2256051Y1504373D1*
X2254150Y1502449D1*
X2253177Y1500548D1*
X2252227Y1497674D1*
Y1492877D1*
X2253177Y1490025D1*
X2254150Y1488101D1*
X2256051Y1486200D1*
X2257975Y1485227D1*
X2261799D1*
X2263701Y1486200D1*
X2265624Y1488101D1*
X2266575Y1490025D1*
X2284224Y1502449D2*
X2283274Y1504351D1*
X2280400Y1505301D1*
X2278498D1*
X2275624Y1504351D1*
X2273701Y1501477D1*
X2272750Y1496701D1*
Y1491926D1*
X2273701Y1488101D1*
X2275624Y1486178D1*
X2278498Y1485227D1*
X2279449D1*
X2282301Y1486178D1*
X2284224Y1488101D1*
X2285175Y1490975D1*
Y1491926D1*
X2284224Y1494800D1*
X2282301Y1496701D1*
X2279449Y1497652D1*
X2278498D1*
X2275624Y1496701D1*
X2273701Y1494800D1*
X2272750Y1491926D1*
X2091448Y1419216D2*
X2105796D1*
X2108670Y1420166D1*
X2110571Y1422090D1*
X2111544Y1424964D1*
Y1426865D1*
X2110571Y1429739D1*
X2108670Y1431662D1*
X2105796Y1432613D1*
X2091448D1*
X2091470Y1440712D2*
Y1451213D1*
X2099119Y1445487D1*
Y1448361D1*
X2100070Y1450263D1*
X2101021Y1451213D1*
X2103895Y1452186D1*
X2105796D1*
X2108670Y1451213D1*
X2110593Y1449312D1*
X2111544Y1446438D1*
Y1443564D1*
X2110593Y1440712D1*
X2109621Y1439761D1*
X2107719Y1438789D1*
X483309Y768948D2*
D28*
X513453D1*
X513454Y778996D1*
X511994Y783307D1*
X509143Y786192D1*
X506257Y787618D1*
X501980Y789044D1*
X494783D1*
X490472Y787618D1*
X487621Y786192D1*
X484735Y783307D1*
X483309Y778996D1*
Y768948D1*
X483343Y809666D2*
X484769Y805355D1*
X489080Y802470D1*
X496243Y801044D1*
X500554D1*
X507717Y802469D1*
X512028Y805355D1*
X513453Y809666D1*
Y812517D1*
X512028Y816828D1*
X507717Y819680D1*
X500554Y821140D1*
X496243D1*
X489080Y819680D1*
X484769Y816829D1*
X483343Y812518D1*
Y809666D1*
X489080Y819680D2*
X507717Y802469D1*
X498398Y833140D2*
Y849720D1*
X483310Y861720D2*
X513453D1*
Y871768D1*
X511994Y876079D1*
X509142Y878964D1*
X506257Y880390D1*
X501980Y881816D1*
X494783D1*
X490472Y880390D1*
X487621Y878964D1*
X484735Y876079D1*
X483310Y871768D1*
Y861720D1*
X487621Y911027D2*
X484769Y909601D1*
X483343Y905290D1*
Y902438D1*
X484769Y898127D1*
X489080Y895242D1*
X496243Y893816D1*
X503405D1*
X509142Y895242D1*
X512028Y898127D1*
X513453Y902438D1*
Y903864D1*
X512028Y908142D1*
X509142Y911027D1*
X504831Y912453D1*
X503405D1*
X499094Y911027D1*
X496243Y908142D1*
X494817Y903864D1*
Y902438D1*
X496243Y898127D1*
X499094Y895242D1*
X503405Y893816D1*
X487325Y1066091D2*
Y1035947D1*
X497373D1*
X501684Y1037406D1*
X504570Y1040258D1*
X505996Y1043143D1*
X507421Y1047421D1*
Y1054617D1*
X505996Y1058928D1*
X504570Y1061780D1*
X501684Y1064665D1*
X497373Y1066091D1*
X487325D1*
X539517Y1061780D2*
X536666Y1064665D1*
X532355Y1066091D1*
X526618D1*
X522307Y1064665D1*
X519421Y1061780D1*
Y1058928D1*
X520881Y1056043D1*
X522307Y1054617D1*
X525158Y1053191D1*
X533780Y1050306D1*
X536666Y1048880D1*
X538092Y1047421D1*
X539517Y1044569D1*
Y1040258D1*
X536666Y1037406D1*
X532355Y1035947D1*
X526618D1*
X522307Y1037406D1*
X519421Y1040258D1*
X562991Y1071811D2*
X552977Y1030193D1*
X571613Y1071811D2*
X561565Y1030193D1*
X552977Y1055313D2*
X573039D1*
X551517Y1046691D2*
X571613D1*
X508847Y1108928D2*
X507421Y1111780D1*
X504536Y1114665D1*
X501684Y1116091D1*
X495948D1*
X493062Y1114665D1*
X490211Y1111780D1*
X488751Y1108928D1*
X487325Y1104617D1*
Y1097421D1*
X488751Y1093143D1*
X490211Y1090258D1*
X493062Y1087406D1*
X495948Y1085947D1*
X501684D1*
X504536Y1087406D1*
X507421Y1090258D1*
X508847Y1093143D1*
X520847Y1116091D2*
Y1085947D1*
X538058D1*
X550058Y1116091D2*
Y1085947D1*
X570154Y1116091D2*
X550058Y1095995D1*
X557221Y1103191D2*
X570154Y1085947D1*
X593628Y1121811D2*
X583613Y1080193D1*
X602250Y1121811D2*
X592202Y1080193D1*
X583613Y1105313D2*
X603676D1*
X582154Y1096691D2*
X602250D1*
X502598Y1155803D2*
X501172Y1158655D1*
X498287Y1161540D1*
X495435Y1162966D1*
X489698D1*
X486813Y1161540D1*
X483961Y1158655D1*
X482502Y1155803D1*
X481076Y1151492D1*
Y1144296D1*
X482502Y1140018D1*
X483961Y1137133D1*
X486813Y1134281D1*
X489698Y1132822D1*
X495435D1*
X498287Y1134281D1*
X501172Y1137133D1*
X502598Y1140018D1*
Y1144296D1*
X495435D1*
X534694Y1162966D2*
Y1132822D1*
X514598Y1162966D1*
Y1132822D1*
X546694Y1162966D2*
Y1132822D1*
X556742D1*
X561053Y1134281D1*
X563938Y1137133D1*
X565364Y1140018D1*
X566790Y1144296D1*
Y1151492D1*
X565364Y1155803D1*
X563938Y1158655D1*
X561053Y1161540D1*
X556742Y1162966D1*
X546694D1*
X763190Y940684D2*
D47*
Y928238D1*
X783286D1*
X772762D2*
Y935887D1*
X763190Y950684D2*
X783286D1*
Y959306D1*
X782313Y962180D1*
X781362Y963131D1*
X779461Y964082D1*
X776587D1*
X774664Y963131D1*
X773713Y962180D1*
X772762Y959306D1*
X771790Y962180D1*
X770839Y963131D1*
X768938Y964082D1*
X767014D1*
X765113Y963131D1*
X764140Y962180D1*
X763190Y959306D1*
Y950684D1*
X772762D2*
Y959306D1*
X763190Y987479D2*
X783286D1*
X763190Y974082D1*
X783286D1*
X767036Y997479D2*
X766064Y999402D1*
X763212Y1002276D1*
X783286D1*
X763212Y1018024D2*
X764162Y1015150D1*
X767036Y1013227D1*
X771812Y1012276D1*
X774686D1*
X779461Y1013227D1*
X782335Y1015150D1*
X783286Y1018024D1*
Y1019926D1*
X782335Y1022800D1*
X779461Y1024701D1*
X774686Y1025674D1*
X771812D1*
X767036Y1024701D1*
X764162Y1022800D1*
X763212Y1019926D1*
Y1018024D1*
X767036Y1024701D2*
X779461Y1013227D1*
X773249Y1035674D2*
Y1046728D1*
X763190Y1069174D2*
Y1056728D1*
X783286D1*
X772762D2*
Y1064377D1*
X763190Y1079174D2*
X783286D1*
Y1087796D1*
X782313Y1090670D1*
X781362Y1091621D1*
X779461Y1092572D1*
X776587D1*
X774664Y1091621D1*
X773713Y1090670D1*
X772762Y1087796D1*
X771790Y1090670D1*
X770839Y1091621D1*
X768938Y1092572D1*
X767014D1*
X765113Y1091621D1*
X764140Y1090670D1*
X763190Y1087796D1*
Y1079174D1*
X772762D2*
Y1087796D1*
X763190Y1115969D2*
X783286D1*
X763190Y1102572D1*
X783286D1*
X767036Y1125969D2*
X766064Y1127892D1*
X763212Y1130766D1*
X783286D1*
X767987Y1141739D2*
X767036D1*
X765113Y1142690D1*
X764162Y1143640D1*
X763212Y1145564D1*
Y1149388D1*
X764162Y1151290D1*
X765113Y1152240D1*
X767036Y1153213D1*
X768938D1*
X770861Y1152240D1*
X773713Y1150339D1*
X783286Y1140766D1*
Y1154164D1*
X529809Y700466D2*
D28*
Y677518D1*
X528383Y673207D1*
X526924Y671781D1*
X524072Y670322D1*
X521187D1*
X518335Y671781D1*
X516909Y673207D1*
X515450Y677518D1*
Y680370D1*
X541809Y694696D2*
X544694Y696155D1*
X549005Y700433D1*
Y670322D1*
X569627Y700433D2*
X565316Y699007D1*
X562431Y694696D1*
X561005Y687533D1*
Y683222D1*
X562431Y676059D1*
X565316Y671748D1*
X569627Y670322D1*
X572479D1*
X576790Y671748D1*
X579642Y676059D1*
X581101Y683222D1*
Y687533D1*
X579642Y694696D1*
X576790Y699007D1*
X572479Y700433D1*
X569627D1*
X579642Y694696D2*
X562431Y676059D1*
X634149Y698825D2*
D47*
X632225Y696924D1*
X630324Y694050D1*
X628401Y690226D1*
X627450Y685428D1*
Y681603D1*
X628401Y676828D1*
X630324Y673004D1*
X632225Y670130D1*
X634149Y668228D1*
X653721Y693586D2*
Y678287D1*
X652771Y675413D1*
X651798Y674463D1*
X649897Y673490D1*
X647973D1*
X646072Y674463D1*
X645122Y675413D1*
X644149Y678287D1*
Y680189D1*
X670420Y693586D2*
Y673490D1*
X663721Y693586D2*
X677119D1*
X702440Y673490D2*
X694768Y693586D1*
X687119Y673490D1*
X689993Y680189D2*
X699566D1*
X726788Y688811D2*
X725837Y690712D1*
X723913Y692635D1*
X722012Y693586D1*
X718188D1*
X716264Y692635D1*
X714363Y690712D1*
X713390Y688811D1*
X712440Y685937D1*
Y681139D1*
X713390Y678287D1*
X714363Y676364D1*
X716264Y674463D1*
X718188Y673490D1*
X722012D1*
X723913Y674463D1*
X725837Y676364D1*
X726788Y678287D1*
Y681139D1*
X722012D1*
X736788Y698825D2*
X738711Y696924D1*
X740612Y694050D1*
X742536Y690226D1*
X743486Y685428D1*
Y681603D1*
X742536Y676828D1*
X740612Y673004D1*
X738711Y670130D1*
X736788Y668228D1*
X504298Y1507561D2*
X503347Y1509463D1*
X501424Y1511386D1*
X499523Y1512337D1*
X495698D1*
X493775Y1511386D1*
X491874Y1509463D1*
X490901Y1507561D1*
X489950Y1504687D1*
Y1499890D1*
X490901Y1497038D1*
X491874Y1495115D1*
X493775Y1493213D1*
X495698Y1492241D1*
X499523D1*
X501424Y1493213D1*
X503347Y1495115D1*
X504298Y1497038D1*
X514298Y1508490D2*
X516221Y1509463D1*
X519095Y1512314D1*
Y1492241D1*
X637608Y1646862D2*
X617512D1*
Y1635388D1*
X633761Y1625388D2*
X634734Y1623465D1*
X637586Y1620591D1*
X617512D1*
Y1610591D2*
X637586Y1597193D1*
X637608Y1574747D2*
Y1587193D1*
X617512Y1587194D1*
X628035D2*
X628036Y1579544D1*
X637608Y1564747D2*
X617512D1*
Y1556125D1*
X618485Y1553251D1*
X619436Y1552300D1*
X621337Y1551349D1*
X624211D1*
X626134Y1552300D1*
X627085Y1553251D1*
X628036Y1556125D1*
X629008Y1553251D1*
X629959Y1552300D1*
X631860Y1551349D1*
X633784D1*
X635685Y1552300D1*
X636658Y1553251D1*
X637608Y1556125D1*
Y1564747D1*
X628036D2*
Y1556125D1*
X633761Y1541349D2*
X634734Y1539426D1*
X637586Y1536552D1*
X617512D1*
X726173Y1395060D2*
X725223Y1396961D1*
X723299Y1398885D1*
X721398Y1399835D1*
X717573D1*
X715650Y1398885D1*
X713749Y1396961D1*
X712776Y1395060D1*
X711825Y1392186D1*
Y1387389D1*
X712776Y1384537D1*
X713749Y1382613D1*
X715650Y1380712D1*
X717573Y1379739D1*
X721398D1*
X723299Y1380712D1*
X725223Y1382613D1*
X726173Y1384537D1*
X737146Y1395038D2*
Y1395988D1*
X738097Y1397912D1*
X739047Y1398863D1*
X740971Y1399813D1*
X744795D1*
X746697Y1398863D1*
X747647Y1397912D1*
X748620Y1395988D1*
Y1394087D1*
X747647Y1392164D1*
X745746Y1389312D1*
X736173Y1379739D1*
X749571D1*
X877951Y1428591D2*
D28*
Y1407069D1*
X879377Y1402758D1*
X882262Y1399906D1*
X886573Y1398447D1*
X889425D1*
X893736Y1399906D1*
X896621Y1402758D1*
X898047Y1407069D1*
Y1428591D1*
X910047Y1422821D2*
X912933Y1424280D1*
X917244Y1428558D1*
Y1398447D1*
X1699064Y1640264D2*
D47*
X1707664D1*
X1710538Y1641237D1*
X1711511Y1642187D1*
X1712462Y1644089D1*
Y1646012D1*
X1711511Y1647913D1*
X1710538Y1648886D1*
X1707664Y1649837D1*
X1699064D1*
Y1629741D1*
X1705763Y1640264D2*
X1712462Y1629741D1*
X1735859Y1649837D2*
Y1629741D1*
X1722462Y1649837D1*
Y1629741D1*
X1745859Y1645990D2*
X1747782Y1646963D1*
X1750656Y1649814D1*
Y1629741D1*
X1766404Y1649814D2*
X1763530Y1648864D1*
X1761607Y1645990D1*
X1760656Y1641215D1*
Y1638341D1*
X1761607Y1633565D1*
X1763530Y1630691D1*
X1766404Y1629741D1*
X1768306D1*
X1771180Y1630691D1*
X1773081Y1633565D1*
X1774054Y1638341D1*
Y1641215D1*
X1773081Y1645990D1*
X1771180Y1648864D1*
X1768306Y1649814D1*
X1766404D1*
X1773081Y1645990D2*
X1761607Y1633565D1*
X1789802Y1649814D2*
X1786928Y1648864D1*
X1785004Y1645990D1*
X1784054Y1641215D1*
Y1638341D1*
X1785004Y1633565D1*
X1786928Y1630691D1*
X1789802Y1629741D1*
X1791703D1*
X1794577Y1630691D1*
X1796478Y1633565D1*
X1797451Y1638341D1*
Y1641215D1*
X1796478Y1645990D1*
X1794577Y1648864D1*
X1791703Y1649814D1*
X1789802D1*
X1796478Y1645990D2*
X1785004Y1633565D1*
X1827451Y1640264D2*
X1836051D1*
X1838925Y1641237D1*
X1839898Y1642187D1*
X1840849Y1644089D1*
Y1646012D1*
X1839898Y1647913D1*
X1838925Y1648886D1*
X1836051Y1649837D1*
X1827451D1*
Y1629741D1*
X1834150Y1640264D2*
X1840849Y1629741D1*
X1864246Y1649837D2*
Y1629741D1*
X1850849Y1649837D1*
Y1629741D1*
X1874246Y1645990D2*
X1876169Y1646963D1*
X1879044Y1649814D1*
Y1629741D1*
X1894792Y1649814D2*
X1891918Y1648864D1*
X1889994Y1645990D1*
X1889044Y1641215D1*
Y1638341D1*
X1889994Y1633565D1*
X1891918Y1630691D1*
X1894792Y1629741D1*
X1896693D1*
X1899567Y1630691D1*
X1901468Y1633565D1*
X1902441Y1638341D1*
Y1641215D1*
X1901468Y1645990D1*
X1899567Y1648864D1*
X1896693Y1649814D1*
X1894792D1*
X1901468Y1645990D2*
X1889994Y1633565D1*
X1912441Y1645990D2*
X1914364Y1646963D1*
X1917238Y1649814D1*
Y1629741D1*
X1699064Y1462139D2*
X1707664D1*
X1710538Y1463112D1*
X1711511Y1464063D1*
X1712462Y1465964D1*
Y1467887D1*
X1711511Y1469789D1*
X1710538Y1470761D1*
X1707664Y1471712D1*
X1699064D1*
Y1451616D1*
X1705763Y1462139D2*
X1712462Y1451616D1*
X1735859Y1471712D2*
Y1451616D1*
X1722462Y1471712D1*
Y1451616D1*
X1745859Y1467865D2*
X1747782Y1468838D1*
X1750656Y1471690D1*
Y1451616D1*
X1766404Y1471690D2*
X1763530Y1470739D1*
X1761607Y1467865D1*
X1760656Y1463090D1*
Y1460216D1*
X1761607Y1455441D1*
X1763530Y1452567D1*
X1766404Y1451616D1*
X1768306D1*
X1771180Y1452567D1*
X1773081Y1455441D1*
X1774054Y1460216D1*
Y1463090D1*
X1773081Y1467865D1*
X1771180Y1470739D1*
X1768306Y1471690D1*
X1766404D1*
X1773081Y1467865D2*
X1761607Y1455441D1*
X1785026Y1466914D2*
Y1467865D1*
X1785977Y1469789D1*
X1786928Y1470739D1*
X1788851Y1471690D1*
X1792676D1*
X1794577Y1470739D1*
X1795528Y1469789D1*
X1796500Y1467865D1*
Y1465964D1*
X1795528Y1464040D1*
X1793626Y1461189D1*
X1784054Y1451616D1*
X1797451D1*
X1827451Y1462139D2*
X1836051D1*
X1838925Y1463112D1*
X1839898Y1464063D1*
X1840849Y1465964D1*
Y1467887D1*
X1839898Y1469789D1*
X1838925Y1470761D1*
X1836051Y1471712D1*
X1827451D1*
Y1451616D1*
X1834150Y1462139D2*
X1840849Y1451616D1*
X1864246Y1471712D2*
Y1451616D1*
X1850849Y1471712D1*
Y1451616D1*
X1874246Y1467865D2*
X1876169Y1468838D1*
X1879044Y1471690D1*
Y1451616D1*
X1894792Y1471690D2*
X1891918Y1470739D1*
X1889994Y1467865D1*
X1889044Y1463090D1*
Y1460216D1*
X1889994Y1455441D1*
X1891918Y1452567D1*
X1894792Y1451616D1*
X1896693D1*
X1899567Y1452567D1*
X1901468Y1455441D1*
X1902441Y1460216D1*
Y1463090D1*
X1901468Y1467865D1*
X1899567Y1470739D1*
X1896693Y1471690D1*
X1894792D1*
X1901468Y1467865D2*
X1889994Y1455441D1*
X1914364Y1471690D2*
X1924865D1*
X1919140Y1464040D1*
X1922014D1*
X1923915Y1463090D1*
X1924865Y1462139D1*
X1925838Y1459265D1*
Y1457364D1*
X1924865Y1454490D1*
X1922964Y1452567D1*
X1920090Y1451616D1*
X1917216D1*
X1914364Y1452567D1*
X1913414Y1453539D1*
X1912441Y1455441D1*
X937764Y586826D2*
Y595426D1*
X936791Y598300D1*
X935840Y599272D1*
X933939Y600223D1*
X932016D1*
X930114Y599272D1*
X929142Y598300D1*
X928191Y595426D1*
Y586826D1*
X948287D1*
X937764Y593524D2*
X948287Y600223D1*
X928191Y623620D2*
X948287D1*
X928191Y610223D1*
X948287D1*
X932038Y633620D2*
X931065Y635544D1*
X928213Y638418D1*
X948287D1*
X932038Y648418D2*
X931065Y650341D1*
X928213Y653215D1*
X948287D1*
X928213Y668963D2*
X929164Y666089D1*
X932038Y664166D1*
X936813Y663215D1*
X939687D1*
X944462Y664166D1*
X947336Y666089D1*
X948287Y668963D1*
Y670864D1*
X947336Y673738D1*
X944462Y675640D1*
X939687Y676612D1*
X936813D1*
X932038Y675640D1*
X929164Y673738D1*
X928213Y670864D1*
Y668963D1*
X932038Y675640D2*
X944462Y664166D1*
X1112762Y586826D2*
Y595426D1*
X1111790Y598300D1*
X1110839Y599272D1*
X1108938Y600223D1*
X1107014D1*
X1105113Y599272D1*
X1104140Y598300D1*
X1103190Y595426D1*
Y586826D1*
X1123286D1*
X1112762Y593524D2*
X1123286Y600223D1*
X1103190Y623620D2*
X1123286D1*
X1103190Y610223D1*
X1123286D1*
X1107036Y633620D2*
X1106064Y635544D1*
X1103212Y638418D1*
X1123286D1*
X1107036Y648418D2*
X1106064Y650341D1*
X1103212Y653215D1*
X1123286D1*
X1107987Y664188D2*
X1107036D1*
X1105113Y665138D1*
X1104162Y666089D1*
X1103212Y668012D1*
Y671837D1*
X1104162Y673738D1*
X1105113Y674689D1*
X1107036Y675662D1*
X1108938D1*
X1110861Y674689D1*
X1113713Y672788D1*
X1123286Y663215D1*
Y676612D1*
X937762Y475639D2*
Y484239D1*
X936790Y487113D1*
X935839Y488086D1*
X933938Y489037D1*
X932014D1*
X930113Y488086D1*
X929140Y487113D1*
X928190Y484239D1*
Y475639D1*
X948286D1*
X937762Y482338D2*
X948286Y489036D1*
X928190Y512434D2*
X948286D1*
X928190Y499037D1*
X948286Y499036D1*
X932036Y522434D2*
X931064Y524357D1*
X928212Y527231D1*
X948286D1*
X932036Y537231D2*
X931064Y539155D1*
X928212Y542029D1*
X948286D1*
X932036Y552029D2*
X931064Y553952D1*
X928212Y556826D1*
X948286D1*
X1112762Y467040D2*
Y475639D1*
X1111790Y478513D1*
X1110839Y479486D1*
X1108938Y480437D1*
X1107014D1*
X1105113Y479486D1*
X1104140Y478513D1*
X1103190Y475639D1*
Y467040D1*
X1123286D1*
X1112762Y473738D2*
X1123286Y480437D1*
X1103190Y503834D2*
X1123286D1*
X1103190Y490437D1*
X1123286D1*
X1107036Y513834D2*
X1106064Y515757D1*
X1103212Y518631D1*
X1123286D1*
X1107036Y528631D2*
X1106064Y530555D1*
X1103212Y533429D1*
X1123286D1*
X1103212Y545352D2*
Y555853D1*
X1110861Y550128D1*
Y553002D1*
X1111812Y554903D1*
X1112762Y555853D1*
X1115636Y556826D1*
X1117538D1*
X1120412Y555853D1*
X1122335Y553952D1*
X1123286Y551078D1*
Y548204D1*
X1122335Y545352D1*
X1121362Y544402D1*
X1119461Y543429D1*
X1587762Y458440D2*
Y467040D1*
X1586790Y469914D1*
X1585839Y470886D1*
X1583938Y471837D1*
X1582014D1*
X1580113Y470886D1*
X1579140Y469914D1*
X1578190Y467040D1*
Y458440D1*
X1598286D1*
X1587762Y465138D2*
X1598286Y471837D1*
X1578190Y495234D2*
X1598286D1*
X1578190Y481837D1*
X1598286D1*
X1582036Y505234D2*
X1581064Y507158D1*
X1578212Y510032D1*
X1598286D1*
X1582987Y521004D2*
X1582036D1*
X1580113Y521955D1*
X1579162Y522906D1*
X1578212Y524829D1*
Y528654D1*
X1579162Y530555D1*
X1580113Y531506D1*
X1582036Y532478D1*
X1583938D1*
X1585861Y531506D1*
X1588713Y529604D1*
X1598286Y520032D1*
Y533429D1*
X1578212Y545352D2*
Y555854D1*
X1585861Y550128D1*
Y553002D1*
X1586812Y554903D1*
X1587762Y555854D1*
X1590636Y556826D1*
X1592538D1*
X1595412Y555854D1*
X1597335Y553952D1*
X1598286Y551078D1*
Y548204D1*
X1597335Y545352D1*
X1596362Y544402D1*
X1594461Y543429D1*
X1412762Y467040D2*
Y475639D1*
X1411790Y478513D1*
X1410839Y479486D1*
X1408938Y480437D1*
X1407014D1*
X1405113Y479486D1*
X1404140Y478513D1*
X1403190Y475639D1*
Y467040D1*
X1423286D1*
X1412762Y473738D2*
X1423286Y480437D1*
X1403190Y503834D2*
X1423286D1*
X1403190Y490437D1*
X1423286D1*
X1407036Y513834D2*
X1406064Y515757D1*
X1403212Y518631D1*
X1423286D1*
X1407987Y529604D2*
X1407036D1*
X1405113Y530555D1*
X1404162Y531505D1*
X1403212Y533429D1*
Y537254D1*
X1404162Y539155D1*
X1405113Y540105D1*
X1407036Y541078D1*
X1408938D1*
X1410861Y540105D1*
X1413713Y538204D1*
X1423286Y528631D1*
Y542029D1*
X1407036Y552029D2*
X1406064Y553952D1*
X1403212Y556826D1*
X1423286D1*
X1412762Y586826D2*
Y595426D1*
X1411790Y598300D1*
X1410839Y599272D1*
X1408938Y600223D1*
X1407014D1*
X1405113Y599272D1*
X1404140Y598300D1*
X1403190Y595426D1*
Y586826D1*
X1423286D1*
X1412762Y593524D2*
X1423286Y600223D1*
X1403190Y623620D2*
X1423286D1*
X1403190Y610223D1*
X1423286D1*
X1407036Y633620D2*
X1406064Y635544D1*
X1403212Y638418D1*
X1423286D1*
X1407987Y649390D2*
X1407036D1*
X1405113Y650341D1*
X1404162Y651292D1*
X1403212Y653215D1*
Y657040D1*
X1404162Y658941D1*
X1405113Y659891D1*
X1407036Y660864D1*
X1408938D1*
X1410861Y659891D1*
X1413713Y657990D1*
X1423286Y648418D1*
Y661815D1*
X1403212Y677563D2*
X1404162Y674689D1*
X1407036Y672766D1*
X1411812Y671815D1*
X1414686D1*
X1419461Y672765D1*
X1422335Y674689D1*
X1423286Y677563D1*
Y679464D1*
X1422335Y682338D1*
X1419461Y684239D1*
X1414686Y685212D1*
X1411812D1*
X1407036Y684239D1*
X1404162Y682338D1*
X1403212Y679464D1*
Y677563D1*
X1407036Y684239D2*
X1419461Y672765D1*
X1587762Y586826D2*
Y595426D1*
X1586790Y598300D1*
X1585839Y599272D1*
X1583938Y600223D1*
X1582014D1*
X1580113Y599272D1*
X1579140Y598300D1*
X1578190Y595426D1*
Y586826D1*
X1598286D1*
X1587762Y593524D2*
X1598286Y600223D1*
X1578190Y623620D2*
X1598286D1*
X1578190Y610223D1*
X1598286D1*
X1582036Y633620D2*
X1581064Y635544D1*
X1578212Y638418D1*
X1598286D1*
X1582987Y649390D2*
X1582036D1*
X1580113Y650341D1*
X1579162Y651292D1*
X1578212Y653215D1*
Y657040D1*
X1579162Y658941D1*
X1580113Y659891D1*
X1582036Y660864D1*
X1583938D1*
X1585861Y659891D1*
X1588713Y657990D1*
X1598286Y648418D1*
Y661815D1*
X1582987Y672788D2*
X1582036D1*
X1580113Y673738D1*
X1579162Y674689D1*
X1578212Y676612D1*
Y680437D1*
X1579162Y682338D1*
X1580113Y683289D1*
X1582036Y684262D1*
X1583938D1*
X1585861Y683289D1*
X1588713Y681388D1*
X1598286Y671815D1*
Y685212D1*
X1300262Y464952D2*
Y473551D1*
X1299290Y476425D1*
X1298339Y477398D1*
X1296438Y478349D1*
X1294514D1*
X1292613Y477398D1*
X1291640Y476426D1*
X1290690Y473552D1*
Y464952D1*
X1310786D1*
X1300262Y471650D2*
X1310786Y478349D1*
X1294537Y488349D2*
X1293564Y490272D1*
X1290712Y493146D1*
X1310786D1*
X1294537Y503146D2*
X1293564Y505070D1*
X1290712Y507944D1*
X1310786D1*
X1290712Y523692D2*
X1291662Y520818D1*
X1294536Y518894D1*
X1299312Y517944D1*
X1302186D1*
X1306961Y518894D1*
X1309835Y520818D1*
X1310786Y523692D1*
Y525593D1*
X1309835Y528467D1*
X1306961Y530368D1*
X1302186Y531341D1*
X1299312D1*
X1294536Y530368D1*
X1291662Y528467D1*
X1290712Y525593D1*
Y523692D1*
X1294536Y530368D2*
X1306961Y518894D1*
X1775264Y464952D2*
Y473551D1*
X1774291Y476425D1*
X1773340Y477398D1*
X1771439Y478349D1*
X1769516D1*
X1767614Y477398D1*
X1766642Y476426D1*
X1765691Y473552D1*
Y464952D1*
X1785787D1*
X1775264Y471650D2*
X1785787Y478349D1*
X1769538Y488349D2*
X1768565Y490272D1*
X1765713Y493146D1*
X1785787D1*
X1770488Y504119D2*
X1769538D1*
X1767614Y505070D1*
X1766664Y506020D1*
X1765713Y507944D1*
Y511768D1*
X1766664Y513670D1*
X1767614Y514620D1*
X1769538Y515593D1*
X1771439D1*
X1773362Y514620D1*
X1776214Y512719D1*
X1785787Y503146D1*
Y516544D1*
X1765713Y532292D2*
X1766664Y529418D1*
X1769538Y527494D1*
X1774313Y526544D1*
X1777187D1*
X1781962Y527494D1*
X1784836Y529418D1*
X1785787Y532292D1*
Y534193D1*
X1784836Y537067D1*
X1781962Y538968D1*
X1777187Y539941D1*
X1774313D1*
X1769538Y538968D1*
X1766664Y537067D1*
X1765713Y534193D1*
Y532292D1*
X1769538Y538968D2*
X1781962Y527494D1*
X1855576Y1274639D2*
X1864176D1*
X1867050Y1275612D1*
X1868023Y1276563D1*
X1868973Y1278464D1*
Y1280387D1*
X1868023Y1282289D1*
X1867050Y1283261D1*
X1864176Y1284212D1*
X1855576D1*
Y1264116D1*
X1862275Y1274639D2*
X1868973Y1264116D1*
X1878973Y1280365D2*
X1880897Y1281338D1*
X1883771Y1284190D1*
Y1264116D1*
X1899519Y1284190D2*
X1896645Y1283239D1*
X1894721Y1280365D1*
X1893771Y1275590D1*
Y1272716D1*
X1894721Y1267941D1*
X1896645Y1265067D1*
X1899519Y1264116D1*
X1901420D1*
X1904294Y1265067D1*
X1906195Y1267941D1*
X1907168Y1272716D1*
Y1275590D1*
X1906195Y1280365D1*
X1904294Y1283239D1*
X1901420Y1284190D1*
X1899519D1*
X1906195Y1280365D2*
X1894721Y1267941D1*
X1922916Y1284190D2*
X1920042Y1283239D1*
X1918119Y1280365D1*
X1917168Y1275590D1*
Y1272716D1*
X1918119Y1267941D1*
X1920042Y1265067D1*
X1922916Y1264116D1*
X1924817D1*
X1927692Y1265067D1*
X1929593Y1267941D1*
X1930566Y1272716D1*
Y1275590D1*
X1929593Y1280365D1*
X1927692Y1283239D1*
X1924817Y1284190D1*
X1922916D1*
X1929593Y1280365D2*
X1918119Y1267941D1*
X1696201Y1274639D2*
X1704801D1*
X1707675Y1275612D1*
X1708647Y1276563D1*
X1709598Y1278464D1*
Y1280387D1*
X1708647Y1282289D1*
X1707675Y1283261D1*
X1704801Y1284212D1*
X1696201D1*
Y1264116D1*
X1702899Y1274639D2*
X1709598Y1264116D1*
X1719598Y1280365D2*
X1721522Y1281338D1*
X1724396Y1284190D1*
Y1264116D1*
X1736319Y1284190D2*
X1746820D1*
X1741094Y1276540D1*
X1743968D1*
X1745869Y1275590D1*
X1746820Y1274639D1*
X1747793Y1271765D1*
Y1269864D1*
X1746820Y1266990D1*
X1744919Y1265067D1*
X1742045Y1264116D1*
X1739171D1*
X1736319Y1265067D1*
X1735368Y1266039D1*
X1734396Y1267941D1*
X1696201Y1171513D2*
X1704801D1*
X1707675Y1172486D1*
X1708647Y1173437D1*
X1709598Y1175338D1*
Y1177261D1*
X1708647Y1179163D1*
X1707675Y1180135D1*
X1704801Y1181086D1*
X1696201D1*
Y1160990D1*
X1702899Y1171513D2*
X1709598Y1160990D1*
X1719598Y1177239D2*
X1721522Y1178212D1*
X1724396Y1181064D1*
Y1160990D1*
X1743968D2*
Y1181064D1*
X1734396Y1167689D1*
X1748743D1*
X1868076Y1174638D2*
X1876676D1*
X1879550Y1175611D1*
X1880523Y1176561D1*
X1881473Y1178463D1*
Y1180386D1*
X1880523Y1182287D1*
X1879550Y1183260D1*
X1876676Y1184211D1*
X1868076D1*
Y1164115D1*
X1874775Y1174638D2*
X1881473Y1164115D1*
X1891473Y1180364D2*
X1893397Y1181337D1*
X1896271Y1184188D1*
Y1164115D1*
X1917745Y1184188D2*
X1908194D1*
X1907244Y1175589D1*
X1908194Y1176539D1*
X1911068Y1177512D1*
X1913920D1*
X1916794Y1176539D1*
X1918718Y1174638D1*
X1919668Y1171764D1*
Y1169863D1*
X1918718Y1166989D1*
X1916794Y1165065D1*
X1913920Y1164115D1*
X1911068D1*
X1908194Y1165065D1*
X1907244Y1166038D1*
X1906271Y1167939D1*
X1978388Y927450D2*
Y936050D1*
X1977416Y938924D1*
X1976465Y939897D1*
X1974564Y940848D1*
X1972640D1*
X1970739Y939897D1*
X1969766Y938924D1*
X1968816Y936050D1*
Y927450D1*
X1988912D1*
X1978388Y934149D2*
X1988912Y940847D1*
X1968816Y964245D2*
X1988912D1*
X1968816Y950848D1*
X1988912Y950847D1*
X1973613Y975218D2*
X1972662D1*
X1970739Y976168D1*
X1969788Y977119D1*
X1968838Y979042D1*
Y982867D1*
X1969788Y984768D1*
X1970739Y985719D1*
X1972662Y986692D1*
X1974564D1*
X1976487Y985719D1*
X1979339Y983817D1*
X1988912Y974245D1*
Y987642D1*
X1968838Y1003390D2*
X1969788Y1000516D1*
X1972662Y998593D1*
X1977438Y997642D1*
X1980312D1*
X1985087Y998593D1*
X1987961Y1000516D1*
X1988912Y1003390D1*
Y1005291D1*
X1987961Y1008165D1*
X1985087Y1010067D1*
X1980312Y1011039D1*
X1977438D1*
X1972662Y1010067D1*
X1969788Y1008165D1*
X1968838Y1005291D1*
Y1003390D1*
X1972662Y1010067D2*
X1985087Y998593D1*
X1618576Y1044217D2*
D28*
Y1022695D1*
X1620002Y1018384D1*
X1622887Y1015532D1*
X1627198Y1014073D1*
X1630050D1*
X1634361Y1015532D1*
X1637246Y1018384D1*
X1638672Y1022695D1*
Y1044217D1*
X1652131Y1037021D2*
Y1038447D1*
X1653557Y1041332D1*
X1654983Y1042758D1*
X1657868Y1044184D1*
X1663605D1*
X1666457Y1042758D1*
X1667883Y1041332D1*
X1669342Y1038447D1*
Y1035595D1*
X1667883Y1032710D1*
X1665031Y1028432D1*
X1650672Y1014073D1*
X1670768D1*
X1801716Y744924D2*
D47*
X1799814Y743974D1*
X1797891Y742050D1*
X1796940Y740149D1*
Y736324D1*
X1797891Y734401D1*
X1799814Y732500D1*
X1801716Y731527D1*
X1804590Y730576D1*
X1809387D1*
X1812239Y731527D1*
X1814162Y732500D1*
X1816064Y734401D1*
X1817036Y736324D1*
Y740149D1*
X1816064Y742050D1*
X1814162Y743974D1*
X1812239Y744924D1*
X1801738Y755897D2*
X1800787D1*
X1798864Y756848D1*
X1797913Y757798D1*
X1796963Y759722D1*
Y763546D1*
X1797913Y765447D1*
X1798864Y766398D1*
X1800787Y767371D1*
X1802688D1*
X1804612Y766398D1*
X1807464Y764497D1*
X1817036Y754924D1*
Y768321D1*
X1800787Y778321D2*
X1799814Y780245D1*
X1796963Y783119D1*
X1817036D1*
X1836091Y641798D2*
X1834190Y640848D1*
X1832266Y638924D1*
X1831316Y637023D1*
Y633198D1*
X1832266Y631275D1*
X1834190Y629374D1*
X1836091Y628401D1*
X1838965Y627450D1*
X1843762D1*
X1846614Y628401D1*
X1848538Y629374D1*
X1850439Y631275D1*
X1851412Y633198D1*
Y637023D1*
X1850439Y638924D1*
X1848538Y640848D1*
X1846614Y641798D1*
X1836113Y652771D2*
X1835162D1*
X1833239Y653722D1*
X1832288Y654672D1*
X1831338Y656596D1*
Y660420D1*
X1832288Y662321D1*
X1833239Y663272D1*
X1835162Y664245D1*
X1837064D1*
X1838987Y663272D1*
X1841839Y661371D1*
X1851412Y651798D1*
Y665195D1*
X1836113Y676168D2*
X1835162D1*
X1833239Y677119D1*
X1832288Y678069D1*
X1831338Y679993D1*
Y683818D1*
X1832288Y685719D1*
X1833239Y686669D1*
X1835162Y687642D1*
X1837064D1*
X1838987Y686669D1*
X1841839Y684768D1*
X1851412Y675195D1*
Y688593D1*
X1087565Y1518023D2*
Y1505576D1*
X1107661D1*
X1097138D2*
Y1513226D1*
X1087565Y1528023D2*
X1107661D1*
Y1536645D1*
X1106688Y1539519D1*
X1105738Y1540470D1*
X1103836Y1541420D1*
X1100962D1*
X1099039Y1540470D1*
X1098088Y1539519D1*
X1097138Y1536645D1*
X1096165Y1539519D1*
X1095214Y1540470D1*
X1093313Y1541420D1*
X1091390D1*
X1089488Y1540470D1*
X1088516Y1539519D1*
X1087565Y1536645D1*
Y1528023D1*
X1097138D2*
Y1536645D1*
X1087565Y1564818D2*
X1107661Y1564817D1*
X1087565Y1551420D1*
X1107661D1*
X1091412Y1574817D2*
X1090439Y1576741D1*
X1087587Y1579615D1*
X1107661D1*
X1087587Y1591538D2*
Y1602039D1*
X1095236Y1596314D1*
Y1599188D1*
X1096187Y1601089D1*
X1097138Y1602039D1*
X1100012Y1603012D1*
X1101913D1*
X1104787Y1602039D1*
X1106710Y1600138D1*
X1107661Y1597264D1*
Y1594390D1*
X1106710Y1591538D1*
X1105738Y1590588D1*
X1103836Y1589615D1*
X2116218Y1086937D2*
D28*
X2115267Y1088838D1*
X2113344Y1090761D1*
X2111443Y1091712D1*
X2107618D1*
X2105695Y1090761D1*
X2103793Y1088838D1*
X2102821Y1086937D1*
X2101870Y1084063D1*
Y1079265D1*
X2102821Y1076413D1*
X2103793Y1074490D1*
X2105695Y1072589D1*
X2107618Y1071616D1*
X2111443D1*
X2113344Y1072589D1*
X2115267Y1074490D1*
X2116218Y1076413D1*
X2141615Y1088838D2*
X2139714Y1090761D1*
X2136840Y1091712D1*
X2133015D1*
X2130141Y1090761D1*
X2128218Y1088838D1*
Y1086937D1*
X2129191Y1085013D1*
X2130141Y1084063D1*
X2132043Y1083112D1*
X2137791Y1081189D1*
X2139714Y1080238D1*
X2140665Y1079265D1*
X2141615Y1077364D1*
Y1074490D1*
X2139714Y1072589D1*
X2136840Y1071616D1*
X2133015D1*
X2130141Y1072589D1*
X2128218Y1074490D1*
X2157440Y1071616D2*
X2167013Y1091690D1*
X2153615D1*
X2190487D2*
X2180936D1*
X2179985Y1083090D1*
X2180936Y1084040D1*
X2183810Y1085013D1*
X2186662D1*
X2189536Y1084040D1*
X2191459Y1082139D1*
X2192410Y1079265D1*
Y1077364D1*
X2191459Y1074490D1*
X2189536Y1072567D1*
X2186662Y1071616D1*
X2183810D1*
X2180936Y1072567D1*
X2179985Y1073539D1*
X2179013Y1075441D1*
X2212059Y1095525D2*
X2205383Y1067780D1*
X2217807Y1095525D2*
X2211109Y1067780D1*
X2205383Y1084527D2*
X2218758D1*
X2204410Y1078779D2*
X2217807D1*
X2152807Y1032139D2*
X2161407D1*
X2164281Y1033112D1*
X2165254Y1034063D1*
X2166204Y1035964D1*
Y1037887D1*
X2165254Y1039789D1*
X2164281Y1040761D1*
X2161407Y1041712D1*
X2152807D1*
Y1021616D1*
X2159506Y1032139D2*
X2166204Y1021616D1*
X2178204Y1029265D2*
X2189678D1*
Y1031189D1*
X2188728Y1033112D1*
X2187777Y1034063D1*
X2185854Y1035013D1*
X2182980D1*
X2181078Y1034063D1*
X2179155Y1032139D1*
X2178204Y1029265D1*
Y1027364D1*
X2179155Y1024490D1*
X2181078Y1022589D1*
X2182980Y1021616D1*
X2185854D1*
X2187777Y1022589D1*
X2189678Y1024490D1*
X2213152Y1041712D2*
Y1021616D1*
Y1032139D2*
X2211251Y1034063D1*
X2209328Y1035013D1*
X2206454D1*
X2204552Y1034063D1*
X2202629Y1032139D1*
X2201678Y1029265D1*
Y1027364D1*
X2202629Y1024490D1*
X2204552Y1022589D1*
X2206454Y1021616D1*
X2209328D1*
X2211251Y1022589D1*
X2213152Y1024490D1*
X2130062Y993186D2*
X2129111Y995087D1*
X2127188Y997011D1*
X2125287Y997961D1*
X2121462D1*
X2119539Y997011D1*
X2117637Y995087D1*
X2116665Y993186D1*
X2115714Y990312D1*
Y985515D1*
X2116665Y982663D1*
X2117637Y980739D1*
X2119539Y978838D1*
X2121462Y977865D1*
X2125287D1*
X2127188Y978838D1*
X2129111Y980739D1*
X2130062Y982663D1*
Y985515D1*
X2125287D1*
X2142062Y991263D2*
Y977865D1*
Y985515D2*
X2143035Y988389D1*
X2144936Y990312D1*
X2146859Y991263D1*
X2149733D1*
X2161733Y985515D2*
X2173207D1*
Y987438D1*
X2172257Y989361D1*
X2171306Y990312D1*
X2169383Y991263D1*
X2166509D1*
X2164607Y990312D1*
X2162684Y988389D1*
X2161733Y985515D1*
Y983613D1*
X2162684Y980739D1*
X2164607Y978838D1*
X2166509Y977865D1*
X2169383D1*
X2171306Y978838D1*
X2173207Y980739D1*
X2185207Y985515D2*
X2196681D1*
Y987438D1*
X2195731Y989361D1*
X2194780Y990312D1*
X2192857Y991263D1*
X2189983D1*
X2188081Y990312D1*
X2186158Y988389D1*
X2185207Y985515D1*
Y983613D1*
X2186158Y980739D1*
X2188081Y978838D1*
X2189983Y977865D1*
X2192857D1*
X2194780Y978838D1*
X2196681Y980739D1*
X2208681Y991263D2*
Y977865D1*
Y987438D2*
X2211555Y990312D1*
X2213479Y991263D1*
X2216331D1*
X2218254Y990312D1*
X2219205Y987438D1*
Y977865D1*
X2139108Y947961D2*
Y927865D1*
X2147730D1*
X2150604Y928838D1*
X2151554Y929789D1*
X2152505Y931690D1*
Y934564D1*
X2151554Y936487D1*
X2150604Y937438D1*
X2147730Y938389D1*
X2150604Y939361D1*
X2151554Y940312D1*
X2152505Y942213D1*
Y944137D1*
X2151554Y946038D1*
X2150604Y947011D1*
X2147730Y947961D1*
X2139108D1*
Y938389D2*
X2147730D1*
X2164505Y947961D2*
Y927865D1*
X2176505Y941263D2*
Y931690D1*
X2177456Y928838D1*
X2179379Y927865D1*
X2182253D1*
X2184154Y928838D1*
X2187028Y931690D1*
Y941263D2*
Y927865D1*
X2199028Y935515D2*
X2210502D1*
Y937438D1*
X2209552Y939361D1*
X2208601Y940312D1*
X2206678Y941263D1*
X2203804D1*
X2201902Y940312D1*
X2199979Y938389D1*
X2199028Y935515D1*
Y933613D1*
X2199979Y930739D1*
X2201902Y928838D1*
X2203804Y927865D1*
X2206678D1*
X2208601Y928838D1*
X2210502Y930739D1*
X2161047Y886937D2*
X2160097Y888838D1*
X2158173Y890761D1*
X2156272Y891712D1*
X2152448D1*
X2150524Y890761D1*
X2148623Y888838D1*
X2147650Y886937D1*
X2146699Y884063D1*
Y879265D1*
X2147650Y876413D1*
X2148623Y874490D1*
X2150524Y872589D1*
X2152448Y871616D1*
X2156272D1*
X2158173Y872589D1*
X2160097Y874490D1*
X2161047Y876413D1*
X2186445Y888838D2*
X2184544Y890761D1*
X2181669Y891712D1*
X2177845D1*
X2174971Y890761D1*
X2173047Y888838D1*
Y886937D1*
X2174020Y885013D1*
X2174971Y884063D1*
X2176872Y883112D1*
X2182620Y881189D1*
X2184544Y880238D1*
X2185494Y879265D1*
X2186445Y877364D1*
Y874490D1*
X2184544Y872589D1*
X2181669Y871616D1*
X2177845D1*
X2174971Y872589D1*
X2173047Y874490D1*
X2206094Y895525D2*
X2199418Y867780D1*
X2211842Y895525D2*
X2205143Y867780D1*
X2199418Y884527D2*
X2212793D1*
X2198445Y878779D2*
X2211842D1*
X2173549Y836937D2*
X2172598Y838838D1*
X2170675Y840761D1*
X2168773Y841712D1*
X2164949D1*
X2163025Y840761D1*
X2161124Y838838D1*
X2160151Y836937D1*
X2159201Y834063D1*
Y829265D1*
X2160151Y826413D1*
X2161124Y824490D1*
X2163025Y822589D1*
X2164949Y821616D1*
X2168773D1*
X2170675Y822589D1*
X2172598Y824490D1*
X2173549Y826413D1*
Y829265D1*
X2168773D1*
X2198946Y841712D2*
Y821616D1*
X2185549Y841712D1*
Y821616D1*
X2210946Y841712D2*
Y821616D1*
X2217645D1*
X2220519Y822589D1*
X2222442Y824490D1*
X2223393Y826413D1*
X2224343Y829265D1*
Y834063D1*
X2223393Y836937D1*
X2222442Y838838D1*
X2220519Y840761D1*
X2217645Y841712D1*
X2210946D1*
X482512Y1190263D2*
D47*
X491112D1*
X493986Y1191235D1*
X494959Y1192186D1*
X495909Y1194087D1*
Y1196011D1*
X494959Y1197912D1*
X493986Y1198885D1*
X491112Y1199835D1*
X482512D1*
Y1179739D1*
X489210Y1190263D2*
X495909Y1179739D1*
X516432Y1190263D2*
X515482Y1192186D1*
X512608Y1193137D1*
X509734D1*
X506860Y1192186D1*
X505909Y1190263D1*
X506860Y1188361D1*
X508783Y1187389D1*
X513558Y1186438D1*
X515482Y1185487D1*
X516432Y1183564D1*
Y1182613D1*
X515482Y1180712D1*
X512608Y1179739D1*
X509734D1*
X506860Y1180712D1*
X505909Y1182613D1*
X529306Y1199835D2*
Y1183564D1*
X530257Y1180712D1*
X532180Y1179739D1*
X534082D1*
X526432Y1193137D2*
X533131D1*
X551731Y1203649D2*
X545055Y1175904D1*
X557479Y1203649D2*
X550780Y1175904D1*
X545055Y1192650D2*
X558430D1*
X544082Y1186902D2*
X557479D1*
X568430Y1179739D2*
X581827Y1199813D1*
X2157566Y662965D2*
D28*
X2138896D1*
Y632821D1*
Y648606D2*
X2150370D1*
X2169566Y662965D2*
X2170992Y661539D1*
X2172451Y662965D1*
X2170992Y664424D1*
X2169566Y662965D1*
X2170992Y652917D2*
Y632821D1*
X2184451Y662965D2*
Y632821D1*
X626963Y750735D2*
D30*
X654222D1*
X670222D2*
X697481D1*
X713481Y755709D2*
X733577Y785820D1*
X749577Y793713D2*
X752462Y790861D1*
X755314Y786550D1*
X758199Y780813D1*
X759625Y773617D1*
Y767880D1*
X758199Y760717D1*
X755314Y754980D1*
X752462Y750669D1*
X749577Y747817D1*
X775625Y750735D2*
X802884D1*
X818884D2*
X846143D1*
X862143Y755709D2*
X882239Y785820D1*
X898239Y793713D2*
X901124Y790861D1*
X903976Y786550D1*
X906861Y780813D1*
X908287Y773617D1*
Y767880D1*
X906861Y760717D1*
X903976Y754980D1*
X901124Y750669D1*
X898239Y747817D1*
X924287Y750735D2*
X951546D1*
X2123105Y735686D2*
D28*
X2121679Y738538D1*
X2118794Y741423D1*
X2115942Y742849D1*
X2110205D1*
X2107320Y741423D1*
X2104468Y738538D1*
X2103009Y735686D1*
X2101583Y731375D1*
Y724179D1*
X2103009Y719901D1*
X2104468Y717016D1*
X2107320Y714164D1*
X2110205Y712705D1*
X2115942D1*
X2118794Y714164D1*
X2121679Y717016D1*
X2123105Y719901D1*
Y724179D1*
X2115942D1*
X2155201Y742849D2*
Y712705D1*
X2135105Y742849D1*
Y712705D1*
X2167201Y742849D2*
Y712705D1*
X2177249D1*
X2181560Y714164D1*
X2184445Y717016D1*
X2185871Y719901D1*
X2187297Y724179D1*
Y731375D1*
X2185871Y735686D1*
X2184445Y738538D1*
X2181560Y741423D1*
X2177249Y742849D1*
X2167201D1*
X1532935Y1619217D2*
Y1596269D1*
X1531509Y1591958D1*
X1530050Y1590532D1*
X1527198Y1589073D1*
X1524313D1*
X1521461Y1590532D1*
X1520035Y1591958D1*
X1518576Y1596269D1*
Y1599121D1*
X1544935Y1613447D2*
X1547820Y1614906D1*
X1552131Y1619184D1*
Y1589073D1*
X1564131Y1613447D2*
X1567016Y1614906D1*
X1571327Y1619184D1*
Y1589073D1*
X2206273Y541712D2*
Y526413D1*
X2205323Y523539D1*
X2204350Y522589D1*
X2202449Y521616D1*
X2200525D1*
X2198624Y522589D1*
X2197674Y523539D1*
X2196701Y526413D1*
Y528315D1*
X2218273Y537865D2*
X2220197Y538838D1*
X2223071Y541690D1*
Y521616D1*
X2236044Y536914D2*
Y537865D1*
X2236994Y539789D1*
X2237945Y540739D1*
X2239868Y541690D1*
X2243693D1*
X2245594Y540739D1*
X2246545Y539789D1*
X2247518Y537865D1*
Y535964D1*
X2246545Y534040D1*
X2244644Y531189D1*
X2235071Y521616D1*
X2248468D1*
X603701Y1173491D2*
D47*
Y1193587D1*
X596052Y1173491D1*
X588403Y1193587D1*
Y1173491D1*
X497483Y1238811D2*
X496533Y1240712D1*
X494609Y1242635D1*
X492708Y1243586D1*
X488883D1*
X486960Y1242635D1*
X485059Y1240712D1*
X484086Y1238811D1*
X483135Y1235937D1*
Y1231139D1*
X484086Y1228287D1*
X485059Y1226364D1*
X486960Y1224463D1*
X488883Y1223490D1*
X492708D1*
X494609Y1224463D1*
X496533Y1226364D1*
X497483Y1228287D1*
X510357Y1243586D2*
Y1227315D1*
X511308Y1224463D1*
X513231Y1223490D1*
X515132D1*
X507483Y1236887D2*
X514182D1*
X525132D2*
Y1223490D1*
Y1231139D2*
X526105Y1234013D1*
X528006Y1235937D1*
X529930Y1236887D1*
X532804D1*
X542804Y1243586D2*
Y1223490D1*
X552804D2*
X566201Y1243564D1*
X591201Y1220365D2*
X583530Y1240461D1*
X575881Y1220365D1*
X578755Y1227064D2*
X588327D1*
X738673Y1632561D2*
X737723Y1634463D1*
X735799Y1636386D1*
X733898Y1637337D1*
X730073D1*
X728150Y1636386D1*
X726249Y1634463D1*
X725276Y1632561D1*
X724325Y1629687D1*
Y1624890D1*
X725276Y1622038D1*
X726249Y1620115D1*
X728150Y1618213D1*
X730073Y1617241D1*
X733898D1*
X735799Y1618213D1*
X737723Y1620115D1*
X738673Y1622038D1*
X750597Y1637314D2*
X761098D1*
X755372Y1629665D1*
X758246D1*
X760147Y1628715D1*
X761098Y1627764D1*
X762071Y1624890D1*
Y1622989D1*
X761098Y1620115D1*
X759197Y1618191D1*
X756323Y1617241D1*
X753449D1*
X750597Y1618191D1*
X749646Y1619164D1*
X748673Y1621065D1*
X570571Y1376722D2*
D28*
X544738D1*
X557638Y1389622D2*
Y1363789D1*
X566973Y1351789D2*
X568432Y1348904D1*
X572710Y1344593D1*
X542599D1*
X565547Y1331134D2*
X566973D1*
X569858Y1329708D1*
X571284Y1328282D1*
X572710Y1325397D1*
Y1319660D1*
X571284Y1316808D1*
X569858Y1315382D1*
X566973Y1313923D1*
X564121D1*
X561236Y1315382D1*
X556958Y1318234D1*
X542599Y1332593D1*
Y1312497D1*
X572743Y1300497D2*
X542599Y1289023D1*
X572743Y1277549D1*
X1900679Y442273D2*
D115*
X1891474Y462369D1*
X1882294Y442273D1*
X1885743Y448972D2*
X1897230D1*
X1905929Y452796D2*
X1916249D1*
X1919697Y453769D1*
X1920865Y454720D1*
X1922005Y456621D1*
Y458544D1*
X1920865Y460446D1*
X1919697Y461418D1*
X1916249Y462369D1*
X1905929D1*
Y442273D1*
X1913967Y452796D2*
X1922005Y442273D1*
X1935293Y462369D2*
Y442273D1*
X1927255Y462369D2*
X1943332D1*
X1948581D2*
Y442273D1*
X1964658Y462369D2*
Y442273D1*
X1948581Y452796D2*
X1964658D1*
X1969907D2*
X1980227D1*
X1983676Y453769D1*
X1984843Y454720D1*
X1985984Y456621D1*
Y458544D1*
X1984843Y460446D1*
X1983676Y461418D1*
X1980227Y462369D1*
X1969907D1*
Y442273D1*
X1977945Y452796D2*
X1985984Y442273D1*
X1991233Y462369D2*
Y442273D1*
X2014841D2*
Y462369D1*
X2005662Y442273D1*
X1996483Y462369D1*
Y442273D1*
X2020090Y462369D2*
Y448021D1*
X2021231Y445147D1*
X2023539Y443246D1*
X2026988Y442273D1*
X2029269D1*
X2032718Y443246D1*
X2035026Y445147D1*
X2036167Y448021D1*
Y462369D1*
X2057493Y459495D2*
X2055212Y461418D1*
X2051763Y462369D1*
X2047173D1*
X2043724Y461418D1*
X2041416Y459495D1*
Y457594D1*
X2042584Y455670D1*
X2043724Y454720D1*
X2046006Y453769D1*
X2052904Y451846D1*
X2055212Y450895D1*
X2056352Y449922D1*
X2057493Y448021D1*
Y445147D1*
X2055212Y443246D1*
X2051763Y442273D1*
X2047173D1*
X2043724Y443246D1*
X2041416Y445147D1*
X2063883Y444196D2*
X2062742Y443224D1*
X2063883Y442273D1*
X2065051Y443224D1*
X2063883Y444196D1*
X2087517Y457594D2*
X2086377Y459495D1*
X2084069Y461418D1*
X2081787Y462369D1*
X2077198D1*
X2074889Y461418D1*
X2072608Y459495D1*
X2071441Y457594D1*
X2070300Y454720D1*
Y449922D1*
X2071441Y447070D1*
X2072608Y445147D1*
X2074889Y443246D1*
X2077198Y442273D1*
X2081787D1*
X2084069Y443246D1*
X2086377Y445147D1*
X2087517Y447070D1*
X2099664Y462369D2*
X2097356Y461418D1*
X2095075Y459495D1*
X2093908Y457594D1*
X2092767Y454720D1*
Y449922D1*
X2093908Y447070D1*
X2095075Y445147D1*
X2097356Y443246D1*
X2099664Y442273D1*
X2104254D1*
X2106536Y443246D1*
X2108844Y445147D1*
X2109984Y447070D1*
X2111125Y449922D1*
Y454720D1*
X2109984Y457594D1*
X2108844Y459495D1*
X2106536Y461418D1*
X2104254Y462369D1*
X2099664D1*
X2134733Y442273D2*
Y462369D1*
X2125554Y442273D1*
X2116374Y462369D1*
Y442273D1*
X1153750Y1047818D2*
D12*
Y1027722D1*
X1147051Y1047818D2*
X1160449D1*
X1172197D2*
X1170295Y1046889D1*
X1168372Y1044966D1*
X1167421Y1043042D1*
X1166449Y1040168D1*
Y1035393D1*
X1167421Y1032519D1*
X1168372Y1030618D1*
X1170295Y1028694D1*
X1172197Y1027744D1*
X1176021D1*
X1177945Y1028694D1*
X1179846Y1030618D1*
X1180796Y1032519D1*
X1181769Y1035393D1*
Y1040168D1*
X1180796Y1043042D1*
X1179846Y1044966D1*
X1177945Y1046889D1*
X1176021Y1047818D1*
X1172197D1*
X1175071Y1031568D2*
X1180796Y1025820D1*
X1200216Y1047818D2*
X1187769D1*
Y1027722D1*
Y1038245D2*
X1195419D1*
X1206216Y1037294D2*
X1214838D1*
X1217690Y1038245D1*
X1218663Y1039218D1*
X1219613Y1041119D1*
Y1043993D1*
X1218663Y1045894D1*
X1217690Y1046867D1*
X1214838Y1047818D1*
X1206216D1*
Y1027722D1*
X1244878Y1043971D2*
X1246801Y1044944D1*
X1249675Y1047795D1*
Y1027722D1*
X1261423Y1047795D2*
X1258549Y1046845D1*
X1256626Y1043971D1*
X1255675Y1039195D1*
Y1036321D1*
X1256626Y1031546D1*
X1258549Y1028672D1*
X1261423Y1027722D1*
X1263325D1*
X1266199Y1028672D1*
X1268100Y1031546D1*
X1269073Y1036321D1*
Y1039195D1*
X1268100Y1043971D1*
X1266199Y1046845D1*
X1263325Y1047795D1*
X1261423D1*
X1268100Y1043971D2*
X1256626Y1031546D1*
X1280821Y1047795D2*
X1277947Y1046845D1*
X1276023Y1043971D1*
X1275073Y1039195D1*
Y1036321D1*
X1276023Y1031546D1*
X1277947Y1028672D1*
X1280821Y1027722D1*
X1282722D1*
X1285596Y1028672D1*
X1287497Y1031546D1*
X1288470Y1036321D1*
Y1039195D1*
X1287497Y1043971D1*
X1285596Y1046845D1*
X1282722Y1047795D1*
X1280821D1*
X1287497Y1043971D2*
X1276023Y1031546D1*
M02*
